<svg xmlns="http://www.w3.org/2000/svg" width="45" height="29" viewBox="0 0 45 29">
  <path fill="#5E5E5E" fill-rule="evenodd" d="M0.493205614,106.236142 C2.83492983,110.070122 5.98462909,113.182719 9.94430831,115.483509 C13.9039875,117.828506 18.0902205,119 22.4989975,119 C26.9097795,119 31.0960125,117.828506 35.0556917,115.527716 C39.0153709,113.182719 42.1650702,110.114329 44.5047895,106.236142 C44.8195589,105.64939 45,105.062639 45,104.522104 C45,103.935352 44.8195589,103.35061 44.5047895,102.763858 C42.1650702,98.929878 39.0153709,95.817281 35.0556917,93.5164911 C31.0960125,91.1714939 26.9097795,90 22.4989975,90 C18.0902205,90 13.9039875,91.1714939 9.94430831,93.5164911 C5.98462909,95.817281 2.83492983,98.929878 0.493205614,102.763858 C0.178436177,103.35061 0,103.935352 0,104.522104 C0,105.062639 0.178436177,105.64939 0.493205614,106.236142 L0.493205614,106.236142 Z M12.6932314,96 C11.647068,97.7402546 11.1462882,99.6157518 11.1462882,101.624503 C11.1462882,104.705251 12.239083,107.338504 14.4672489,109.526253 C16.6974423,111.714002 19.3838116,112.785998 22.5223019,112.785998 C25.6628197,112.785998 28.3471616,111.714002 30.5327511,109.526253 C32.7629445,107.338504 33.9003431,104.705251 33.9003431,101.624503 C33.9003431,99.6157518 33.352932,97.7402546 32.3533999,96 C36.2217717,97.964996 39.4514972,100.910501 42,104.838504 C39.7698066,108.231504 36.9496257,110.954256 33.5354024,112.963007 C30.1678104,114.971758 26.4819089,116 22.5223019,116 C18.5647224,116 14.878821,114.971758 11.4645976,112.963007 C8.09700561,110.954256 5.27479726,108.231504 3,104.838504 C5.59513412,100.910501 8.82485964,97.964996 12.6932314,96 L12.6932314,96 Z M17.2955217,96.2856174 C18.8115481,94.7774763 20.6467379,94 22.805183,94 C23.1284383,94 23.4025915,94.1383989 23.6787906,94.3663501 C23.9079336,94.5943012 24,94.8690638 24,95.2333786 C24,95.5529172 23.9079336,95.8744912 23.6787906,96.1024423 C23.4025915,96.3303935 23.1284383,96.4667571 22.805183,96.4667571 C21.3362128,96.4667571 20.0513753,96.9694708 19.0406911,98.0217096 C17.9849966,99.0719132 17.4796545,100.305292 17.4796545,101.766621 C17.4796545,102.132972 17.3405319,102.405699 17.111389,102.635685 C16.882246,102.863636 16.5610366,103 16.2398272,103 C15.8715617,103 15.5974085,102.863636 15.3662196,102.635685 C15.1370766,102.405699 15,102.132972 15,101.766621 C15,99.619403 15.7794953,97.7917232 17.2955217,96.2856174 L17.2955217,96.2856174 Z" opacity=".721" transform="translate(0 -90)"/>
</svg>
