<svg xmlns="http://www.w3.org/2000/svg" viewBox="0 0 1741.24 450.21"><defs><style>.a{fill:#f7ea06;}.b{fill:#01ffff;}.c{fill:#fe7eef;}.d{fill:#ff0101;}.e{fill:#4dff01;}.f{fill:#ff7f00;}.g{fill:red;}</style></defs><title>UNIDAWN logo final</title><path class="a" d="M1378.28,600.83a17.68,17.68,0,0,1-5,0,8.19,8.19,0,0,0-9.13,6.26l-.66,2.85-21.66,95.31c-.95,4.17-1.94,8.34-2.85,12.52-1.34,6.12-5,9.92-11.09,11.42a72.43,72.43,0,0,1-17.09,1.87c-9.92,0-19.86.08-29.78-.22a80.49,80.49,0,0,1-12.69-1.74c-6.61-1.26-10.56-5.34-12.23-11.9-3.76-14.78-7.68-29.51-11.54-44.26q-16.62-63.66-33.25-127.31c-5.46-20.92-11-41.82-16.28-62.77a79.31,79.31,0,0,1-2-13.29c-.45-5.56,1.59-8.53,7-9.92a62.58,62.58,0,0,1,13-2c8.14-.3,16.3-.24,24.45,0a74.25,74.25,0,0,1,11.14,1.55c4.8.89,7.73,3.89,8.89,8.62q2.21,9,4.37,18,16.17,67,32.35,134c.53,2.22,1.07,4.44,1.65,6.83a101.79,101.79,0,0,1,13.83-.6c.83-3.48,1.6-6.59,2.3-9.72q10.85-48,21.67-95.95,5.52-24.45,11-48.9c2-8.87,5-12.08,14-13.12a136.85,136.85,0,0,1,37.49.39l.31,0c6.84.88,10.6,4.64,12.21,11.46,10,42.17,20.16,84.3,30.28,126.43q3.3,13.71,6.67,27.4v0a2.67,2.67,0,0,0,3,1.84c3-.18,10.17.32,12-.37.93-4,1.8-7.66,2.66-11.35q14-60.59,28.08-121.16c1.91-8.24,3.89-16.47,5.68-24.73,1-4.69,3.66-7.78,8.26-8.83a66.45,66.45,0,0,1,12-1.81c7.51-.28,15.05-.29,22.57,0a58.48,58.48,0,0,1,12.34,1.83c5.36,1.37,7.3,4.1,6.86,9.65a87.42,87.42,0,0,1-2.23,14.2c-4.16,16.72-8.52,33.39-12.89,50q-11.48,43.8-23.06,87.56-12.37,46.95-24.74,93.91c-.48,1.81-1.07,3.61-1.72,5.37a14,14,0,0,1-9.85,8.87,62.61,62.61,0,0,1-17.07,2c-9.82,0-19.65.06-29.47-.23a85.5,85.5,0,0,1-12.39-1.65c-7-1.26-11.12-5.54-12.77-12.52-3-12.6-6.17-25.15-9.28-37.72-6.47-26.15-11.65-47.05-18.12-73.2l-.06-.24A6.41,6.41,0,0,0,1378.28,600.83Z" transform="translate(-75.75 -285.61)"/><path class="b" d="M900.14,729.73h-100c-6,0-12,.34-18-.22-14.53-1.37-27.57-6.21-38-16.44a53.66,53.66,0,0,1-15-28.41,96.13,96.13,0,0,1-2.06-18.34c-.18-42.75-.28-85.51,0-128.27.12-20,11.29-42.53,40.68-51.08a103.93,103.93,0,0,1,29.1-3.8q49.81,0,99.63,0h4V479c0-46.31,0-132,0-178.31,0-1,0-2,0-3a8.88,8.88,0,0,1,6.16-8.47,63,63,0,0,1,12-2.77,114.37,114.37,0,0,1,30.7.5,42.8,42.8,0,0,1,7.87,2.06c4.31,1.58,6.61,4.63,6.47,9.18,0,1,0,2.09,0,3.14V727.05c0,1.15,0,2.3,0,3.45a38.07,38.07,0,0,0-6.25,1.84,44.17,44.17,0,0,1-9.67,2.41A111.68,111.68,0,0,1,912,734a25.31,25.31,0,0,1-4.37-1.23m-5-199.5c-.92,0-1.46-.11-2-.11q-34.08,0-68.16,0a73,73,0,0,0-21.92,3.08c-14.59,4.57-24.09,16.23-23.9,31.56.28,22.89.05,45.79.1,68.68a71,71,0,0,0,.64,10.3c1.82,12,8,21,19.79,26.16A52.32,52.32,0,0,0,828.53,677q35.38-.06,70.78-.07h3.34Z" transform="translate(-75.75 -285.61)"/><path class="c" d="M460.23,491.49c1.51-1.21,2.59-2,3.55-2.85A133.62,133.62,0,0,1,497.09,466a95.49,95.49,0,0,1,26.25-8,94,94,0,0,1,19-1.11c14.27.74,28.19,3,41,9.78a76.37,76.37,0,0,1,32,31.29,103.4,103.4,0,0,1,11.69,36.11c.86,6.19,1.49,12.42,1.88,18.65.42,6.55.61,13.14.61,19.71q.07,72.6,0,145.22a17.07,17.07,0,0,1-.47,4.63c-.86,3-3.28,4.64-6,5.42a54.86,54.86,0,0,1-11.57,2.45c-8.86.52-17.74.76-26.61.61-5.18-.09-10.34-1.09-15.5-1.78a14.41,14.41,0,0,1-3.58-1.11c-5.44-2.26-7-4.67-7-10.52q0-70.74,0-141.46a98.87,98.87,0,0,0-2.59-23.88,53.63,53.63,0,0,0-7.36-17.19c-6.81-10.21-16.52-15.15-28.65-16-12.66-.91-23.29,3.86-33,11.28-9.27,7.07-17.18,15.53-24.5,24.57a8.4,8.4,0,0,0-1.94,5.69q.07,77.94,0,155.89a43,43,0,0,1-.38,4.66,6.82,6.82,0,0,1-4.28,5.76,36,36,0,0,1-8.88,2.84c-5.57.78-11.2,1.11-16.82,1.36-5,.22-10,.18-15-.09-5.63-.31-11.28-.62-16.74-2.26a32.43,32.43,0,0,1-4.36-1.68c-3.13-1.49-4.58-4.15-4.85-7.51-.07-.93,0-1.88,0-2.82q0-61.63,0-123.26,0-61-.11-122c0-1.25-.06-2.51,0-3.76a7.36,7.36,0,0,1,3.27-5.77c3.38-2.34,7.28-3,11.2-3.65,8.8-1.44,17.68-1.27,26.55-1.21a91.27,91.27,0,0,1,18.95,1.9,29,29,0,0,1,6.46,2.27c3.1,1.5,4.53,4.11,4.49,7.62-.08,6.38,0,12.76,0,19.13Z" transform="translate(-75.75 -285.61)"/><path class="d" d="M1648.1,490.66c6.76-5.21,13-10.43,19.69-15.1a100.76,100.76,0,0,1,45.29-17.92,107.71,107.71,0,0,1,24.41-.13c9.61.95,19,2.85,27.9,6.7,19,8.23,32.48,22,40.9,40.84,5.24,11.73,7.84,24.17,9.29,36.91a236.77,236.77,0,0,1,1.41,26.76q-.06,74.09,0,148.18c0,.62,0,1.25,0,1.88.12,3.78-1.71,6.33-5,8a31.45,31.45,0,0,1-11.16,2.9,185.16,185.16,0,0,1-37.44.07c-1.51-.15-3-.39-4.52-.69-9.92-2-12.68-4.24-12.68-11.59q0-66.8,0-133.6c0-4.7,0-9.41-.22-14.11-.46-9.33-1.88-18.48-5.61-27.15-4.65-10.82-12-18.83-23.59-22.19a41.74,41.74,0,0,0-27.37,1.1,63.71,63.71,0,0,0-16.85,10.14,160.12,160.12,0,0,0-23.35,24c-1.14,1.4-1.13,2.82-1.13,4.38q0,37.47-.09,75,0,40.46,0,80.91c0,.84,0,1.67,0,2.51.1,4.29-1.92,7.31-5.88,8.67a42.19,42.19,0,0,1-10.3,2.49c-7.8.61-15.64,1-23.47.9a173,173,0,0,1-18.72-1.44,31.25,31.25,0,0,1-7.74-2.35c-3.35-1.35-4.88-4.09-5-7.65,0-1,0-2.09,0-3.13q0-72.3,0-144.58,0-47.67,0-95.34c0-2.09.07-4.18,0-6.27,0-4.26,2-7.1,5.86-8.72a44.28,44.28,0,0,1,13.43-2.85,173.61,173.61,0,0,1,32.56.05,63,63,0,0,1,12,2.38,10.27,10.27,0,0,1,7.25,9.8c0,5.75,0,11.5,0,17.25C1648,488.61,1648.05,489.61,1648.1,490.66Z" transform="translate(-75.75 -285.61)"/><path class="e" d="M1136.24,697.72,1133.9,700c-12.92,12.81-27.85,22.28-45.45,27.28-12.53,3.56-25.31,4.28-38.22,3.38a104.7,104.7,0,0,1-32.61-7.21c-18.88-7.73-32.75-20.58-40.35-39.76a75.37,75.37,0,0,1-4.95-21.61c-1.11-13.14-.37-26.11,4.2-38.64,5.57-15.28,15.84-26.6,29.68-34.84,11.53-6.86,24.09-11,37.13-13.82a224.82,224.82,0,0,1,39.77-4.89c13.06-.45,26.13-.4,39.19-.56,1.14,0,2.29,0,3.55,0a7.1,7.1,0,0,0,.35-1.59c-.14-7.62-.18-15.25-.54-22.87a45.56,45.56,0,0,0-2.86-13.61,31,31,0,0,0-18.19-18.46,57.71,57.71,0,0,0-16.52-3.28,120.27,120.27,0,0,0-48.42,6.6,237.72,237.72,0,0,0-29.51,13,60.08,60.08,0,0,1-8.26,3.76c-6.24,2.11-10.51.16-13.28-5.84-2.32-5-3.07-10.44-3.27-15.87a121.55,121.55,0,0,1,.4-13.76c.52-7,3.91-12.46,9.67-16.44,8.05-5.55,17.05-9.25,26.24-12.51a195.85,195.85,0,0,1,71.3-11.1c15.35.45,30.55,1.94,45.3,6.44a81.3,81.3,0,0,1,27.47,14c10.92,8.7,17.86,20,22,33.19,3.87,12.27,5.36,24.92,5.5,37.71.18,15.26.09,30.53.09,45.79v112c0,4.39.06,8.78,0,13.17a9.49,9.49,0,0,1-6.58,9,38.66,38.66,0,0,1-8,1.6,152.44,152.44,0,0,1-28.5,0,36.29,36.29,0,0,1-7.65-1.54c-4-1.31-5.7-3.73-5.76-8-.08-6.59-.05-13.17-.06-19.76v-3Zm-10-85.31c-6.63,0-12.79,0-18.94,0-9.51,0-19,0-28.47,1.26-7.7,1.05-15.22,2.77-22.18,6.34-9.26,4.76-15.41,12-17.26,22.48A41.76,41.76,0,0,0,1039,655c1.46,11.84,7.53,20.37,18.69,24.56,14.27,5.36,28.36,4.09,41.77-3.1,10.06-5.4,18.2-13.23,25.83-21.62,1-1.09.92-2.26.92-3.49q0-18,0-36Z" transform="translate(-75.75 -285.61)"/><path class="f" d="M644.81,594.06V472.41c0-.73,0-1.46,0-2.19-.07-4.11,1.78-7.08,5.53-8.63a40,40,0,0,1,7.73-2.47,119.4,119.4,0,0,1,30.9-1.5c5.5.37,11,1.23,16.42,2.13a22.18,22.18,0,0,1,5.82,2.22,8.15,8.15,0,0,1,4.76,7.54c0,.94,0,1.88,0,2.82v243.6c0,8.79-2.64,11-13.3,13a72.51,72.51,0,0,1-9.4,1.07c-12,.64-24,.88-35.95-1.2a36.64,36.64,0,0,1-7.71-2.47c-3.22-1.34-4.65-4-4.8-7.46-.05-.93,0-1.88,0-2.82Z" transform="translate(-75.75 -285.61)"/><path class="f" d="M713.91,397a43.83,43.83,0,0,1-.16,10c-.37,2.79-.79,5.75-1.43,8.65-1.76,8-7,12.9-14.85,14.89A71.55,71.55,0,0,1,674,432.37c-3.45-.29-6.9-.83-10.31-1.44-9.52-1.69-14.77-7.66-16.47-16.93a62.5,62.5,0,0,1,.39-25.19c1.9-8.49,6.91-13.94,15.45-16a73.72,73.72,0,0,1,23.82-1.64,80.93,80.93,0,0,1,10.28,1.54c9.29,2,14.31,8.06,15.86,17.17C713.42,392.16,713.66,394.5,713.91,397Z" transform="translate(-75.75 -285.61)"/><path class="g" d="M76.35,321.49c.62-7.39,55-19.26,56.52-19.62a5,5,0,0,1,1.21-.15A5.23,5.23,0,0,1,139.3,307l1.08,106.66v4.19c0,57.59,0,117.14,0,175.72A61,61,0,0,0,150,627c13.13,21.24,32.46,35.5,57.45,42.38a58.16,58.16,0,0,0,15.44,2.09c8.67,0,17.59-1.89,27.25-5.78,19.83-8,35.36-21,46.15-38.67a60.51,60.51,0,0,0,9.06-25.62,77.17,77.17,0,0,0,.52-8.35c0-26,0-51,0-76.92v-36l0-65.27-.11-3.47V342.47a5.09,5.09,0,0,1,.29-1.69c.45-1.32,2.86-1.37,2.86-1.37a15.34,15.34,0,0,1,2.06-.16,5.57,5.57,0,0,1,1.22.14c1.47.35,22.21-18.92,50.38-18.77h0c.14.19,1.25,2.82,1.38,3l.4-1.08s2.6-.43,3.25.42l1.23,74.1.62,44.47c0,68.94,1,99.71,1.1,162.64,0,6.4-.91,17.13-2.83,22.68a163,163,0,0,1-34.3,58.07c-16,17.26-35.87,29.74-60.71,38.15-12.18,4.12-22.33,6.54-31.94,7.61-6.28.7-12.66.8-18.82.9l-1.83,0H219c-4,0-8-.34-11-.63a140.75,140.75,0,0,1-28.81-6.09c-16.33-5.13-29.23-11-40.61-18.37-19.62-12.77-35.77-30.4-48-52.4-5.83-10.47-9.34-17.87-13-30.28-.31-1.07-.86-4-1.57-8.52a24.21,24.21,0,0,1-.29-3.71V410.35l.49-85.9" transform="translate(-75.75 -285.61)"/><path class="g" d="M367.65,323c-2.12-6.9-54-20.27-55.52-20.63a5.57,5.57,0,0,0-1.22-.14,5.23,5.23,0,0,0-5.21,5.23l-1.09,99.65v4.2c0,57.59,1.2,124.17,1.26,182.74" transform="translate(-75.75 -285.61)"/></svg>