<svg xmlns="http://www.w3.org/2000/svg" width="40" height="40" viewBox="0 0 40 40">
  <path fill="#8E8E93" fill-rule="evenodd" d="M39.2659847,35.9258735 L28.3145561,24.9701592 C30.2776153,22.292741 31.3292184,19.0558064 31.3145561,15.7358735 C31.2770999,7.06974705 24.2677618,0.050212685 15.601699,0.000159193789 C11.4544995,-0.0186044942 7.47204581,1.62203511 4.5415161,4.5565899 C1.6109864,7.49114469 -0.0241855103,11.4758464 0.000270429199,15.6230163 C0.0377267455,24.2899317 7.04770434,31.3101057 15.7145561,31.3601592 C19.0480138,31.3746068 22.2967747,30.310729 24.9759847,28.3273021 L24.9874133,28.3187306 L35.9288419,39.2658735 C36.5204101,39.8864835 37.4018869,40.1376918 38.2317416,39.922167 C39.0615962,39.7066422 39.7094342,39.0582495 39.9242488,38.2282107 C40.1390633,37.3981719 39.8871007,36.5169103 39.2659847,35.9258735 L39.2659847,35.9258735 Z M15.7031276,28.2230163 C8.77002489,28.1831335 3.162134,22.5675955 3.131699,15.6344449 C3.11298641,12.3171387 4.42123155,9.13001748 6.76521392,6.78254705 C9.10919628,4.43507661 12.2943686,3.1220937 15.611699,3.13587348 C22.5448017,3.1757563 28.1526926,8.79129432 28.1831276,15.7244449 C28.2018402,19.0417511 26.893595,22.2288723 24.5496127,24.5763428 C22.2056303,26.9238132 19.020458,28.2367961 15.7031276,28.2230163 Z"/>
</svg>
