<svg xmlns="http://www.w3.org/2000/svg" width="11" height="11" viewBox="0 0 11 11">
  <defs>
    <filter id="close-button-a" width="144.4%" height="144.4%" x="-22.2%" y="-11.1%" filterUnits="objectBoundingBox">
      <feOffset dy="1" in="SourceAlpha" result="shadowOffsetOuter1"/>
      <feGaussianBlur in="shadowOffsetOuter1" result="shadowBlurOuter1" stdDeviation=".5"/>
      <feColorMatrix in="shadowBlurOuter1" result="shadowMatrixOuter1" values="0 0 0 0 0   0 0 0 0 0   0 0 0 0 0  0 0 0 0.5 0"/>
      <feMerge>
        <feMergeNode in="shadowMatrixOuter1"/>
        <feMergeNode in="SourceGraphic"/>
      </feMerge>
    </filter>
  </defs>
  <path fill="#616161" d="M4.06960038,4.50138073 L0.0858197586,8.51299299 C-0.0248564397,8.6244424 -0.0248564397,8.80499894 0.0858197586,8.91644835 C0.141087542,8.97224386 0.213652877,9 0.286077581,9 C0.358642916,9 0.43106762,8.97224386 0.486335404,8.91644835 L4.50007032,4.87467252 L8.51380523,8.91644835 C8.56921364,8.97224386 8.64163835,9 8.71406305,9 C8.78648775,9 8.85905309,8.97224386 8.91432087,8.91644835 C9.02499707,8.80499894 9.02499707,8.6244424 8.91432087,8.51299299 L4.93068089,4.50138073 L8.91699285,0.486936203 C9.02766905,0.375486795 9.02766905,0.194930256 8.91699285,0.0834808468 C8.80631665,-0.0278269489 8.62701277,-0.0278269489 8.51647721,0.0834808468 L4.50021095,4.12808893 L0.483522794,0.0836224598 C0.372846596,-0.027685336 0.193683347,-0.027685336 0.0830071487,0.0836224598 C-0.0276690496,0.195071869 -0.0276690496,0.375628408 0.0830071487,0.487077816 L4.06960038,4.50138073 Z" filter="url(#close-button-a)" opacity=".835" transform="translate(1)"/>
</svg>
