<svg xmlns="http://www.w3.org/2000/svg" width="57" height="35" viewBox="0 0 57 35">
  <g fill="none" fill-rule="evenodd" transform="translate(.5)">
    <rect width="55" height="34" x=".5" y=".5" stroke="#3B8EDE" rx="10"/>
    <path fill="#4D6A85" d="M30.3047111,25.616875 L15.8392889,25.616875 C15.8044444,25.621875 15.7596444,25.625625 15.7092444,25.625625 C15.5736,25.625625 15.3956444,25.59625 15.2326222,25.469375 C15.0982222,25.36375 14.9376889,25.16 14.9376889,24.79125 L14.9333333,23.65625 C14.9333333,21.313125 16.8348444,19.4075 19.1719111,19.4075 L26.8992889,19.4075 C29.2369778,19.4075 31.1384889,21.313125 31.1384889,23.65375 L31.1384889,24.78125 C31.1384889,25.241875 30.7651556,25.616875 30.3047111,25.616875 L30.3047111,25.616875 Z M23.0458667,17.4975 C20.6447111,17.4975 18.6971556,15.539375 18.6971556,13.123125 C18.6971556,10.708125 20.6447111,8.75 23.0458667,8.75 C25.4476444,8.75 27.3945778,10.708125 27.3945778,13.123125 C27.3945778,15.539375 25.4476444,17.4975 23.0458667,17.4975 L23.0458667,17.4975 Z M36.7341333,19.384375 L35.4884444,19.384375 L35.4884444,15.629375 L31.7619556,15.629375 L31.7619556,14.378125 L35.4884444,14.378125 L35.4884444,10.63375 L36.7341333,10.63375 L36.7341333,14.378125 L40.4736889,14.378125 L40.4736889,15.629375 L36.7341333,15.629375 L36.7341333,19.384375 L36.7341333,19.384375 Z"/>
  </g>
</svg>
