<svg xmlns="http://www.w3.org/2000/svg" width="18" height="19" viewBox="0 0 18 19">
  <path fill="#66CEDB" d="M16.9137931,4.83494905 L14.7218276,4.83494905 L15.4877586,1.42857754 C15.6236897,0.82400427 15.2767241,0.215586334 14.6985517,0.0451396033 C14.0781724,-0.137802283 13.4354483,0.252751411 13.2895862,0.90153831 L12.4054138,4.83494905 L7.33158621,4.83494905 L8.09751724,1.42857754 C8.23344828,0.82400427 7.88648276,0.215586334 7.30831034,0.0451396033 C6.68793103,-0.137802283 6.0452069,0.252751411 5.89934483,0.90153831 L5.01517241,4.83494905 L2.48275862,4.83494905 C1.88286207,4.83494905 1.39655172,5.33699798 1.39655172,5.95630912 C1.39655172,6.57562027 1.88286207,7.0776692 2.48275862,7.0776692 L4.51086207,7.0776692 L3.64624138,10.9223323 L1.0862069,10.9223323 C0.486310345,10.9223323 0,11.4243812 0,12.0436924 C0,12.6630035 0.486310345,13.1650524 1.0862069,13.1650524 L3.14193103,13.1650524 L2.376,16.571424 C2.24006897,17.1759972 2.58703448,17.7844152 3.1652069,17.9548619 C3.78558621,18.1378038 4.42831034,17.7472501 4.57417241,17.0981428 L5.45834483,13.1650524 L10.5321724,13.1650524 L9.76624138,16.571424 C9.63031034,17.1759972 9.97727586,17.7844152 10.5554483,17.9548619 C11.1758276,18.1378038 11.8185517,17.7472501 11.9644138,17.0981428 L12.8485862,13.1650524 L15.362069,13.1650524 C15.9619655,13.1650524 16.4482759,12.6630035 16.4482759,12.0436924 C16.4482759,11.4243812 15.9619655,10.9223323 15.362069,10.9223323 L13.3528966,10.9223323 L14.2175172,7.0776692 L16.9137931,7.0776692 C17.5136897,7.0776692 18,6.57562027 18,5.95630912 C18,5.33699798 17.5136897,4.83494905 16.9137931,4.83494905 Z M11.0364828,10.9223323 L5.96265517,10.9223323 L6.82727586,7.0776692 L11.9011034,7.0776692 L11.0364828,10.9223323 Z" transform="translate(0 .5)"/>
</svg>
