<svg xmlns="http://www.w3.org/2000/svg" width="25" height="16" viewBox="0 0 25 16">
  <path fill="#4F84C4" d="M24.7872577,120.253455 C24.6383082,120.086282 24.4123158,120 24.1246891,120 C24.0990081,120 24.068191,120 24.04251,120 C22.5838318,120.070104 21.1302897,120.145602 19.6716115,120.215706 C19.4764362,120.226491 19.2093543,120.237277 18.9987705,120.458375 C18.932,120.52848 18.8806381,120.60937 18.8395486,120.706437 C18.6238285,121.197169 18.9268638,121.515335 19.0706772,121.66633 L19.4353467,122.054601 C19.6870201,122.324233 19.9438296,122.593866 20.2006392,122.858106 L11.3869354,132.11729 L7.42693218,127.959555 C7.19066739,127.711493 6.87222355,127.571284 6.53323494,127.571284 C6.19424634,127.571284 5.88093869,127.711493 5.6446739,127.959555 L0.369805751,133.492417 C-0.123268584,134.010111 -0.123268584,134.845972 0.369805751,135.363667 L0.606070537,135.611729 C0.842335323,135.859791 1.16077916,136 1.49976777,136 C1.83875638,136 2.15206403,135.859791 2.38832881,135.611729 L6.53323494,131.259858 L10.4932382,135.417594 C10.729503,135.665656 11.0479468,135.805865 11.3869354,135.805865 C11.725924,135.805865 12.0392317,135.665656 12.2806327,135.417594 L22.2242984,124.977418 L23.3491243,126.153017 C23.4826652,126.293225 23.6675681,126.487361 23.9500586,126.487361 C24.068191,126.487361 24.1863234,126.455005 24.309592,126.384901 C24.391771,126.336367 24.4636777,126.28244 24.525312,126.217728 C24.7461682,125.985844 24.7872577,125.689248 24.7975301,125.457364 C24.8386196,124.465116 24.8848454,123.472868 24.9310711,122.475228 L24.9978416,120.981463 C25.0132501,120.668689 24.9464797,120.42602 24.7872577,120.253455 Z" transform="translate(0 -120)"/>
</svg>
