<svg xmlns="http://www.w3.org/2000/svg" width="19" height="12" viewBox="0 0 19 12">
  <path d="M9.5,0 C5.3564043,0 1.76488477,2.4382875 0,6 C1.76488477,9.5617125 5.3564043,12 9.5,12 C13.6434844,12 17.235041,9.5617125 19,6 C17.2351152,2.4382875 13.6434844,0 9.5,0 Z M14.1841309,3.18195 C15.3004551,3.9014625 16.246373,4.8652125 16.9569063,6 C16.2464102,7.1347875 15.3003809,8.0985375 14.1841309,8.81805 C12.7815078,9.7221375 11.1617207,10.2 9.5,10.2 C7.83824219,10.2 6.21849219,9.7221375 4.81586914,8.81805 C3.69961914,8.0985 2.75370117,7.13475 2.04316797,6 C2.75366406,4.865175 3.69961914,3.901425 4.81586914,3.18195 C4.88856641,3.135075 4.96200586,3.0896625 5.03589063,3.045075 C4.85112305,3.557475 4.75,4.1104875 4.75,4.6875 C4.75,7.3384125 6.87666406,9.4875 9.5,9.4875 C12.1232988,9.4875 14.25,7.3384125 14.25,4.6875 C14.25,4.1104875 14.148877,3.557475 13.9641465,3.0450375 C14.0379199,3.089625 14.1114336,3.135075 14.1841309,3.18195 Z M9.5,4.0875 C9.5,5.081625 8.70251953,5.8875 7.71875,5.8875 C6.73498047,5.8875 5.9375,5.081625 5.9375,4.0875 C5.9375,3.093375 6.73498047,2.2875 7.71875,2.2875 C8.70251953,2.2875 9.5,3.093375 9.5,4.0875 Z" opacity=".591"/>
</svg>
