<svg xmlns="http://www.w3.org/2000/svg" xmlns:xlink="http://www.w3.org/1999/xlink" width="51" height="51" viewBox="0 0 51 51">
  <defs>
    <linearGradient id="home-c" x1="50%" x2="50%" y1="0%" y2="100%">
      <stop offset="0%" stop-color="#AEAEAE"/>
      <stop offset="100%" stop-color="#788885"/>
    </linearGradient>
    <circle id="home-b" cx="24.5" cy="24.5" r="24.5"/>
    <filter id="home-a" width="108.2%" height="108.2%" x="-4.1%" y="-2%" filterUnits="objectBoundingBox">
      <feOffset dy="1" in="SourceAlpha" result="shadowOffsetOuter1"/>
      <feGaussianBlur in="shadowOffsetOuter1" result="shadowBlurOuter1" stdDeviation=".5"/>
      <feColorMatrix in="shadowBlurOuter1" values="0 0 0 0 0   0 0 0 0 0   0 0 0 0 0  0 0 0 0.5 0"/>
    </filter>
  </defs>
  <g fill="none" fill-rule="evenodd" transform="translate(1)">
    <use fill="#000" filter="url(#home-a)" xlink:href="#home-b"/>
    <use fill="url(#home-c)" xlink:href="#home-b"/>
    <g transform="translate(1 1)">
      <path fill="#FFF" fill-rule="nonzero" d="M13.0001683,37.2537452 C13.0001683,37.2537452 12.9704337,38 13.7014093,38 C14.6107925,38 22.1398413,37.9901158 22.1398413,37.9901158 L22.1522307,31.0946718 C22.1522307,31.0946718 22.0332923,29.9579923 23.1396673,29.9579923 L26.6409165,29.9579923 C27.949239,29.9579923 27.8687078,31.0946718 27.8687078,31.0946718 L27.8538405,37.9678764 C27.8538405,37.9678764 34.9926226,37.9678764 36.1138649,37.9678764 C37.0418322,37.9678764 36.9997082,37.0387645 36.9997082,37.0387645 L36.9997082,24.3264865 L25.3586119,14 L13.0001683,24.3264865 C13.0001683,24.3264865 13.0001683,37.2537452 13.0001683,37.2537452 Z"/>
      <path fill="#FFF" fill-rule="nonzero" d="M8,22.1862657 C8,22.1862657 9.03445596,24.0171678 11.2902295,22.1862657 L24.7711325,11.2336945 L37.4105477,22.1182373 C40.0217246,23.9268543 41,22.1182373 41,22.1182373 L24.7711325,8 L8,22.1862657 Z"/>
      <polygon fill="#FFF" fill-rule="nonzero" points="37 12 33 12 33.017 15.536 37 18"/>
    </g>
  </g>
</svg>
