<svg xmlns="http://www.w3.org/2000/svg" xmlns:xlink="http://www.w3.org/1999/xlink" width="51" height="51" viewBox="0 0 51 51">
  <defs>
    <linearGradient id="inbox-c" x1="50%" x2="50%" y1="0%" y2="100%">
      <stop offset="0%" stop-color="#AEAEAE"/>
      <stop offset="100%" stop-color="#788885"/>
    </linearGradient>
    <circle id="inbox-b" cx="24.5" cy="24.5" r="24.5"/>
    <filter id="inbox-a" width="108.2%" height="108.2%" x="-4.1%" y="-2%" filterUnits="objectBoundingBox">
      <feOffset dy="1" in="SourceAlpha" result="shadowOffsetOuter1"/>
      <feGaussianBlur in="shadowOffsetOuter1" result="shadowBlurOuter1" stdDeviation=".5"/>
      <feColorMatrix in="shadowBlurOuter1" values="0 0 0 0 0   0 0 0 0 0   0 0 0 0 0  0 0 0 0.5 0"/>
    </filter>
    <path id="inbox-d" d="M25.65,5.4 L22.95,5.4 L22.95,17.55 L5.4,17.55 L5.4,20.25 C5.4,20.9925 6.0075,21.6 6.75,21.6 L21.6,21.6 L27,27 L27,6.75 C27,6.0075 26.3925,5.4 25.65,5.4 L25.65,5.4 Z M20.25,13.5 L20.25,1.35 C20.25,0.6075 19.6425,0 18.9,0 L1.35,0 C0.6075,0 0,0.6075 0,1.35 L0,20.25 L5.4,14.85 L18.9,14.85 C19.6425,14.85 20.25,14.2425 20.25,13.5 L20.25,13.5 Z"/>
    <rect id="inbox-f" width="67.821" height="67.821"/>
  </defs>
  <g fill="none" fill-rule="evenodd" transform="translate(1)">
    <use fill="#000" filter="url(#inbox-a)" xlink:href="#inbox-b"/>
    <use fill="url(#inbox-c)" xlink:href="#inbox-b"/>
    <g transform="translate(12 13)">
      <mask id="inbox-e" fill="#fff">
        <use xlink:href="#inbox-d"/>
      </mask>
      <g mask="url(#inbox-e)">
        <use fill="#FFF" transform="translate(-20 -20)" xlink:href="#inbox-f"/>
      </g>
    </g>
  </g>
</svg>
