<svg xmlns="http://www.w3.org/2000/svg" xmlns:xlink="http://www.w3.org/1999/xlink" width="43" height="43" viewBox="0 0 43 43">
  <defs>
    <linearGradient id="settings-c" x1="50%" x2="50%" y1="0%" y2="100%">
      <stop offset="0%" stop-color="#AEAEAE"/>
      <stop offset="100%" stop-color="#788885"/>
    </linearGradient>
    <path id="settings-b" d="M38.4889868,16.3859636 L36.5264971,16.3859636 C35.9954738,16.3859636 35.3763111,15.9054443 35.1744201,15.3364226 C34.987295,14.8090545 34.767448,14.2841473 34.5218064,13.7759198 C34.2601229,13.2354267 34.3564654,12.4617833 34.7319006,12.0863548 L36.1288221,10.6892759 C37.1075603,9.71064624 37.1075603,8.11806016 36.1288221,7.13933931 L33.861354,4.87191161 C33.3871153,4.39777249 32.7569238,4.13673165 32.086263,4.13673165 C31.4158756,4.13673165 30.7855018,4.39777249 30.3113543,4.87191161 L28.9142505,6.26899051 C28.6899374,6.49320855 28.3164163,6.62710135 27.915551,6.62710135 C27.6645317,6.62710135 27.425635,6.57578641 27.2252024,6.4787164 C26.7167835,6.23271458 26.1910467,6.01268924 25.6624843,5.82465598 C25.093726,5.6227686 24.6131981,5.00361692 24.6131981,4.47278527 L24.6131981,2.51014828 C24.6131981,1.12619434 23.487166,0 22.102914,0 L18.8955365,0 C17.5111933,0 16.3852524,1.12619434 16.3852524,2.51014828 L16.3852524,4.47278527 C16.3852524,5.00379921 15.9048157,5.62304204 15.3359662,5.82465598 C14.808133,6.01214236 14.2825784,6.23162083 13.7747064,6.47707578 C13.5775551,6.57241402 13.3329161,6.62491386 13.0858162,6.62491386 C12.6833103,6.62491386 12.3087866,6.49074762 12.0839265,6.2659827 L10.6891015,4.87172932 C10.2149539,4.3975902 9.58458012,4.13654936 8.91382814,4.13654936 C8.24334959,4.13654936 7.6129758,4.3975902 7.13882825,4.87145588 L4.86908155,7.13979503 C4.39466055,7.61366072 4.13361507,8.24393215 4.13334163,8.91448992 C4.13334163,9.58495654 4.39438711,10.2153191 4.86853466,10.6894582 L6.26563841,12.0865371 C6.64134702,12.4622391 6.73787187,13.2364293 6.47627951,13.777287 C6.23109363,14.2846031 6.01161126,14.8092368 5.82448613,15.3368784 C5.62259516,15.9055354 5.00370591,16.3861459 4.47259138,16.3861459 L2.51019292,16.3861459 C1.12594093,16.3861459 0,17.5123402 0,18.8962942 L0,22.1037058 C0,23.4876598 1.12594093,24.6138541 2.51019292,24.6138541 L4.47259138,24.6138541 C5.00370591,24.6138541 5.6228686,25.0941 5.82475957,25.6628482 C6.01161126,26.1890314 6.23109363,26.7139386 6.47709983,27.2224396 C6.7385099,27.7629327 6.64171161,28.5372141 6.26572956,28.9131894 L4.86862581,30.3101772 C3.8899787,31.2888069 3.8899787,32.881393 4.86862581,33.8600227 L7.13928398,36.1309139 C7.61343154,36.605053 8.24380533,36.8660939 8.91428387,36.8660939 C9.58476242,36.8660939 10.2151362,36.605053 10.6892838,36.1309139 L12.0863875,34.7339261 C12.3111564,34.5090701 12.6854978,34.374995 13.0876391,34.374995 C13.338385,34.374995 13.5765525,34.4260365 13.7765294,34.5228331 C14.284766,34.7684703 14.8095002,34.9880399 15.3365131,35.1751617 C15.9050891,35.3770491 16.3857993,35.9962008 16.3857993,36.5273059 L16.3857993,38.4899429 C16.3857993,39.8738968 17.5118313,41 18.895901,41 L22.1034609,41 C23.4876218,41 24.6135627,39.8738968 24.6135627,38.4899429 L24.6135627,36.5273059 C24.6135627,35.9962008 25.0941817,35.3770491 25.6628489,35.1754352 C26.1908644,34.9879488 26.7164189,34.7684703 27.2242909,34.5231065 C27.4213511,34.4276771 27.6659901,34.3752684 27.9130901,34.3752684 C28.3155959,34.3752684 28.6899374,34.5094347 28.9147974,34.7341996 L30.3117189,36.1311873 C30.7859576,36.6053265 31.4159668,36.8663673 32.0864453,36.8663673 C32.7571973,36.8663673 33.3875711,36.605053 33.8617186,36.1306405 L36.1302804,33.8609341 C37.1082895,32.882031 37.1082895,31.2894449 36.1299158,30.3107241 L34.7340882,28.9142832 C34.358653,28.5389458 34.2623104,27.7646644 34.5236293,27.2238068 C34.7690887,26.7162172 34.9882976,26.1910366 35.1756962,25.6633951 C35.3774048,25.094738 35.9963852,24.614401 36.5274086,24.614401 L38.4897159,24.614401 C39.8740591,24.614401 41,23.4882067 41,22.1042527 L41,18.896841 C40.9990885,17.5119756 39.8728742,16.3859636 38.4889868,16.3859636 Z M27.8554851,20.4998177 C27.8554851,24.5559767 24.5553197,27.8559923 20.4990885,27.8559923 C16.4430397,27.8559923 13.1428743,24.5559767 13.1428743,20.4998177 C13.1428743,16.4437499 16.4430397,13.1437343 20.4990885,13.1437343 C24.5553197,13.1437343 27.8554851,16.4434764 27.8554851,20.4998177 Z"/>
    <filter id="settings-a" width="109.8%" height="109.8%" x="-4.9%" y="-2.4%" filterUnits="objectBoundingBox">
      <feOffset dy="1" in="SourceAlpha" result="shadowOffsetOuter1"/>
      <feGaussianBlur in="shadowOffsetOuter1" result="shadowBlurOuter1" stdDeviation=".5"/>
      <feColorMatrix in="shadowBlurOuter1" values="0 0 0 0 0   0 0 0 0 0   0 0 0 0 0  0 0 0 0.5 0"/>
    </filter>
  </defs>
  <g fill="none" opacity=".473" transform="translate(1)">
    <use fill="#000" filter="url(#settings-a)" xlink:href="#settings-b"/>
    <use fill="url(#settings-c)" fill-rule="evenodd" xlink:href="#settings-b"/>
  </g>
</svg>
