<svg xmlns="http://www.w3.org/2000/svg" width="12" height="15" viewBox="0 0 12 15">
  <path fill="#A6A8AB" d="M10.7196623,6.12685867 L10.4408002,6.12685867 L10.4408002,4.85619734 C10.4408002,2.50601206 8.52513726,0.542767595 6.13078646,0.500858787 C6.06536383,0.499713738 5.93463617,0.499713738 5.86924294,0.500858787 C3.47483334,0.542767595 1.5591998,2.50601206 1.5591998,4.85619734 L1.5591998,6.12685867 L1.28030825,6.12685867 C0.850547706,6.12685867 0.5,6.55859955 0.5,7.09182043 L0.5,13.4649364 C0.5,13.9975562 0.850547706,14.4333333 1.28033766,14.4333333 L10.7196623,14.4333333 C11.1494229,14.4333333 11.5,13.9975562 11.5,13.4649364 L11.5,7.09182043 C11.5,6.55862817 11.1494523,6.12685867 10.7196623,6.12685867 Z M6.88433759,10.2719089 L6.88433759,12.1976244 C6.88433759,12.4181323 6.69471487,12.6047467 6.46804382,12.6047467 L5.53201499,12.6047467 C5.30531454,12.6047467 5.11569181,12.4181323 5.11569181,12.1976244 L5.11569181,10.2719089 C4.89584235,10.0612198 4.76784922,9.76989061 4.76784922,9.44761646 C4.76784922,8.83690435 5.2527412,8.31212821 5.86927235,8.28788179 C5.93460677,8.28530543 6.06548144,8.28530543 6.13081587,8.28788179 C6.74734701,8.31212821 7.23223899,8.83690435 7.23223899,9.44761646 C7.23218018,9.76989061 7.10418705,10.0612198 6.88433759,10.2719089 Z M8.60282113,6.12685867 L6.13078646,6.12685867 L5.86924294,6.12685867 L3.39723768,6.12685867 L3.39723768,4.85619734 C3.39723768,3.45623131 4.56584765,2.29867224 6,2.29867224 C7.43415235,2.29867224 8.60282113,3.45623131 8.60282113,4.85619734 L8.60282113,6.12685867 Z"/>
</svg>
