<svg xmlns="http://www.w3.org/2000/svg" width="21" height="24" viewBox="0 0 21 24">
  <defs>
    <filter id="ipcams-a" width="101.5%" height="111.1%" x="-.8%" y="-3.7%" filterUnits="objectBoundingBox">
      <feMorphology in="SourceAlpha" operator="dilate" radius=".5" result="shadowSpreadOuter1"/>
      <feOffset dy="2" in="shadowSpreadOuter1" result="shadowOffsetOuter1"/>
      <feComposite in="shadowOffsetOuter1" in2="SourceAlpha" operator="out" result="shadowOffsetOuter1"/>
      <feColorMatrix in="shadowOffsetOuter1" result="shadowMatrixOuter1" values="0 0 0 0 0   0 0 0 0 0   0 0 0 0 0  0 0 0 0.03 0"/>
      <feMerge>
        <feMergeNode in="shadowMatrixOuter1"/>
        <feMergeNode in="SourceGraphic"/>
      </feMerge>
    </filter>
  </defs>
  <g fill="none" fill-rule="evenodd" stroke="#9B9B9B" stroke-linecap="round" stroke-linejoin="round" stroke-width=".5" filter="url(#ipcams-a)" transform="translate(1 1)">
    <path d="M0,3.93628571 L12.8948571,9.27742857 C13.92,9.702 15.0194286,9.67085714 15.9697143,9.278 L20,7.60857143 L1.63057143,0 L0,3.93628571 Z"/>
    <polygon points="11.807 11.901 1.312 7.554 1.086 4.386 12.895 9.277"/>
    <path d="M15.9697143,9.278 C15.0194286,9.67085714 13.92,9.702 12.8948571,9.27742857 L12.3511429,10.5897143 L16.5137143,12.3128571 L17.6008571,9.68942857 L16.2888571,9.14571429 L15.9697143,9.278 Z"/>
    <rect width="1" height="2.84" x="16.375" y="9.445" transform="rotate(22.452 16.73 10.865)"/>
    <rect width="1" height="1.421" x="3.31" y="5.512" transform="rotate(22.47 3.664 6.222)"/>
    <rect width="1" height="1.42" x="4.95" y="6.192" transform="rotate(22.482 5.305 6.902)"/>
    <circle cx="2.783" cy="2.783" r="1"/>
    <polygon points="1.429 19.285 0 20 0 14.286 1.429 14.999"/>
    <path d="M3.71057143,8.54742857 C3.62485714,8.77885714 3.57171429,9.02514286 3.57171429,9.286 C3.57171429,10.4694286 4.53085714,11.4288571 5.71457143,11.4288571 C6.57685714,11.4288571 7.316,10.916 7.65542857,10.1817143 L3.71057143,8.54742857 Z"/>
    <path d="M5.71428571,11.4285714 C5.52828571,11.4285714 5.35114286,11.3974286 5.17885714,11.3525714 L5.17885714,15.5357143 C5.17885714,16.1277143 4.69942857,16.6071429 4.108,16.6071429 L1.42857143,16.6071429 L1.42857143,17.6785714 L4.108,17.6785714 C5.29114286,17.6785714 6.25,16.72 6.25,15.5357143 L6.25,11.356 C6.07857143,11.4 5.90057143,11.4285714 5.71428571,11.4285714 Z"/>
  </g>
</svg>
