<svg xmlns="http://www.w3.org/2000/svg" width="11" height="19" viewBox="0 0 11 19">
  <defs>
    <filter id="shape-a" width="101.5%" height="111.3%" x="-.8%" y="-3.8%" filterUnits="objectBoundingBox">
      <feMorphology in="SourceAlpha" operator="dilate" radius=".5" result="shadowSpreadOuter1"/>
      <feOffset dy="2" in="shadowSpreadOuter1" result="shadowOffsetOuter1"/>
      <feComposite in="shadowOffsetOuter1" in2="SourceAlpha" operator="out" result="shadowOffsetOuter1"/>
      <feColorMatrix in="shadowOffsetOuter1" result="shadowMatrixOuter1" values="0 0 0 0 0   0 0 0 0 0   0 0 0 0 0  0 0 0 0.03 0"/>
      <feMerge>
        <feMergeNode in="shadowMatrixOuter1"/>
        <feMergeNode in="SourceGraphic"/>
      </feMerge>
    </filter>
  </defs>
  <path fill="#9B9B9B" d="M11,5.39356314 C11,2.41478047 8.53756612,0 5.5,0 C2.46243388,0 0,2.41478047 0,5.39356314 C0,6.89887273 0.849639547,8.38474106 1.51802266,9.57899036 C1.96266735,10.3621957 2.34783728,11.0398628 2.38465499,11.5092305 L2.38465499,13.9449436 C2.38465499,15.6322047 3.77944246,17 5.5,17 C7.22055754,17 8.61534501,15.6322047 8.61534501,13.9449436 L8.61534501,11.5203398 C8.65216272,11.0398628 9.03733265,10.3621957 9.48197734,9.57621304 C10.1588568,8.38474106 11,6.89887273 11,5.39356314 Z M2.66786818,12.4757393 L8.33213182,12.4757393 L8.33213182,13.5866688 L2.66786818,13.5866688 L2.66786818,12.4757393 Z M5.5,16.7222676 C4.45466966,16.722131 3.49441032,16.1573388 3.00205973,15.2530632 L7.99794027,15.2530632 C7.50558968,16.1573388 6.54533034,16.722131 5.5,16.7222676 Z M8.12821833,14.9753308 L2.87178167,14.9753308 C2.73717442,14.6478364 2.66794979,14.2980402 2.66786818,13.9449436 L2.66786818,13.8644012 L8.33213182,13.8644012 L8.33213182,13.9449436 C8.33205021,14.2980402 8.26282558,14.6478364 8.12821833,14.9753308 Z M8.33213182,11.5092305 L8.33213182,12.1980069 L2.66786818,12.1980069 L2.66786818,11.4981212 C2.6253862,10.9593204 2.22605561,10.2566574 1.76725026,9.44290149 C1.10736354,8.27920274 0.283213182,6.83499428 0.283213182,5.39356314 C0.283213182,2.56816784 2.6188482,0.277732397 5.5,0.277732397 C8.3811518,0.277732397 10.7167868,2.56816784 10.7167868,5.39356314 C10.7167868,6.82943963 9.89263646,8.27920274 9.23274974,9.44290149 C8.77394439,10.2566574 8.3746138,10.9593204 8.33213182,11.5092305 Z" filter="url(#shape-a)"/>
</svg>
