<svg xmlns="http://www.w3.org/2000/svg" width="22" height="14" viewBox="0 0 22 14">
  <g fill="#9B9B9B">
    <path d="M0,2.66666667 L0,5.04347826 C0,6.43478261 1.01496259,7.56521739 2.3042394,7.68115942 L2.3042394,7.71014493 C2.3042394,7.88405797 2.41396509,8 2.57855362,8 L19.4214464,8 C19.5860349,8 19.6957606,7.88405797 19.6957606,7.71014493 L19.6957606,7.65217391 C20.9850374,7.53623188 22,6.4057971 22,5.01449275 L22,2.63768116 C22,1.1884058 20.8753117,0 19.5037406,0 L2.49625935,0 C1.12468828,0 0,1.1884058 0,2.66666667 Z M2.85286783,6.84057971 L19.1471322,6.84057971 L19.1471322,7.39130435 L2.85286783,7.39130435 L2.85286783,6.84057971 Z M0.548628429,2.66666667 C0.548628429,1.53623188 1.42643392,0.608695652 2.49625935,0.608695652 L19.4763092,0.608695652 C20.5461347,0.608695652 21.4239401,1.53623188 21.4239401,2.66666667 L21.4239401,5.04347826 C21.4239401,6.11594203 20.6558603,6.98550725 19.6683292,7.10144928 L19.6683292,6.57971014 C19.6683292,6.4057971 19.5586035,6.28985507 19.394015,6.28985507 L2.57855362,6.28985507 C2.41396509,6.28985507 2.3042394,6.4057971 2.3042394,6.57971014 L2.3042394,7.07246377 C1.31670823,6.95652174 0.548628429,6.08695652 0.548628429,5.01449275 L0.548628429,2.66666667 Z"/>
    <path d="M4.27210884 2L19.7278912 2C19.8911565 2 20 2.2 20 2.5 20 2.8 19.8911565 3 19.7278912 3L4.27210884 3C4.10884354 3 4 2.8 4 2.5 4 2.2 4.10884354 2 4.27210884 2zM4.27210884 4L19.7278912 4C19.8911565 4 20 4.2 20 4.5 20 4.8 19.8911565 5 19.7278912 5L4.27210884 5C4.10884354 5 4 4.8 4 4.5 4 4.2 4.10884354 4 4.27210884 4z"/>
    <circle cx="2.5" cy="2.5" r="1"/>
    <circle cx="2.5" cy="4.5" r="1"/>
    <path d="M15.5 9C15.6764706 9 15.7941176 9.10869565 15.7941176 9.27173913 15.7941176 9.43478261 15.6764706 9.54347826 15.5 9.54347826 15 9.54347826 14.5882353 9.92391304 14.5882353 10.3858696 14.5882353 10.8478261 15 11.2282609 15.5 11.2282609 16.3235294 11.2282609 17 11.8532609 17 12.6141304 17 13.375 16.3235294 14 15.5 14 15.3235294 14 15.2058824 13.8913043 15.2058824 13.7282609 15.2058824 13.5652174 15.3235294 13.4565217 15.5 13.4565217 16 13.4565217 16.4117647 13.076087 16.4117647 12.6141304 16.4117647 12.1521739 16 11.7717391 15.5 11.7717391 14.6764706 11.7717391 14 11.1467391 14 10.3858696 14 9.625 14.6764706 9 15.5 9zM11.5 9C11.6764706 9 11.7941176 9.10869565 11.7941176 9.27173913 11.7941176 9.43478261 11.6764706 9.54347826 11.5 9.54347826 11 9.54347826 10.5882353 9.92391304 10.5882353 10.3858696 10.5882353 10.8478261 11 11.2282609 11.5 11.2282609 12.3235294 11.2282609 13 11.8532609 13 12.6141304 13 13.375 12.3235294 14 11.5 14 11.3235294 14 11.2058824 13.8913043 11.2058824 13.7282609 11.2058824 13.5652174 11.3235294 13.4565217 11.5 13.4565217 12 13.4565217 12.4117647 13.076087 12.4117647 12.6141304 12.4117647 12.1521739 12 11.7717391 11.5 11.7717391 10.6764706 11.7717391 10 11.1467391 10 10.3858696 10 9.625 10.6764706 9 11.5 9zM7.5 9C7.67647059 9 7.79411765 9.10869565 7.79411765 9.27173913 7.79411765 9.43478261 7.67647059 9.54347826 7.5 9.54347826 7 9.54347826 6.58823529 9.92391304 6.58823529 10.3858696 6.58823529 10.8478261 7 11.2282609 7.5 11.2282609 8.32352941 11.2282609 9 11.8532609 9 12.6141304 9 13.375 8.32352941 14 7.5 14 7.32352941 14 7.20588235 13.8913043 7.20588235 13.7282609 7.20588235 13.5652174 7.32352941 13.4565217 7.5 13.4565217 8 13.4565217 8.41176471 13.076087 8.41176471 12.6141304 8.41176471 12.1521739 8 11.7717391 7.5 11.7717391 6.67647059 11.7717391 6 11.1467391 6 10.3858696 6 9.625 6.67647059 9 7.5 9z"/>
  </g>
</svg>
