<svg xmlns="http://www.w3.org/2000/svg" xmlns:xlink="http://www.w3.org/1999/xlink" width="55" height="56" viewBox="0 0 55 56">
  <defs>
    <polygon id="group-4-a" points="0 .056 7.633 .056 7.633 16.966 0 16.966"/>
    <polygon id="group-4-c" points="0 .056 7.633 .056 7.633 16.966 0 16.966"/>
    <polygon id="group-4-e" points="0 .14 30.531 .14 30.531 14.296 0 14.296"/>
  </defs>
  <g fill="none" fill-rule="evenodd" transform="translate(1 1)">
    <g transform="translate(10 7)">
      <mask id="group-4-b" fill="#fff">
        <use xlink:href="#group-4-a"/>
      </mask>
      <path fill="#FE7CEF" d="M0,5.21904522 L0,16.9656167 L7.63265306,16.9656167 L7.63265306,0.306367987 C7.63265306,0.144961393 7.48117425,0.0254654068 7.32235636,0.0630254317 C6.24659262,0.316954403 2.60082653,1.42591776 0,5.21904522" mask="url(#group-4-b)"/>
      <g transform="translate(26)">
        <mask id="group-4-d" fill="#fff">
          <use xlink:href="#group-4-c"/>
        </mask>
        <path fill="#EF7F2F" d="M7.63265306,5.21904522 L7.63265306,16.9656167 L0,16.9656167 L0,0.306367987 C0,0.144961393 0.151332025,0.0254654068 0.310296703,0.0630254317 C1.38606044,0.316954403 5.03182653,1.42591776 7.63265306,5.21904522" mask="url(#group-4-d)"/>
      </g>
      <path fill="#FFF200" d="M0,17 L0,27.5317143 C0,28.2557143 0.103854545,28.9751429 0.308945455,29.6705714 C0.574109091,30.5694286 1.02923636,31.8275714 1.74545455,33 L8,28 C8,28 7.63636364,27.3571429 7.56363636,26.5714286 C7.32625455,24.0065714 7.56363636,17 7.56363636,17 L0,17 Z"/>
      <path fill="#4CFF00" d="M34,17 L34,27.5317143 C34,28.2557143 33.8961455,28.9751429 33.6910545,29.6705714 C33.4258909,30.5694286 32.9709091,31.8275714 32.2545455,33 L26,28 C26,28 26.3636364,27.3571429 26.4363636,26.5714286 C26.6737455,24.0065714 26.4363636,17 26.4363636,17 L34,17 Z"/>
      <g transform="translate(2 28)">
        <mask id="group-4-f" fill="#fff">
          <use xlink:href="#group-4-e"/>
        </mask>
        <path fill="#FF0100" d="M5.9945951,0.139935801 C5.9945951,0.139935801 8.50131171,6.72410916 15.1956015,6.93431012 C21.9569472,7.14663431 24.5360171,0.139935801 24.5360171,0.139935801 L30.5306122,5.09416707 C30.5306122,5.09416707 26.0695182,14.1533328 15.1956015,14.2948823 C4.32168484,14.4364318 0.278818377,5.23571654 0,5.09416707" mask="url(#group-4-f)"/>
      </g>
      <path fill="#0FF" d="M10,8 L10,24 L20.1199095,24 C20.1199095,24 22.9705882,23.559633 23.6832579,20.7706422 C24.3959276,17.9816514 23.6832579,10.9357798 23.6832579,10.9357798 C23.6832579,10.9357798 23.1131222,8.58715596 19.6923077,8 L10,8 Z"/>
    </g>
    <ellipse cx="26.5" cy="27" stroke="#979797" rx="26.5" ry="27"/>
  </g>
</svg>
