<svg xmlns="http://www.w3.org/2000/svg" width="698" height="135" viewBox="0 0 698 135">
  <defs>
    <filter id="above-the-footer-hero-assets-a" width="102%" height="111%" x="-1%" y="-3.9%" filterUnits="objectBoundingBox">
      <feOffset dy="2" in="SourceAlpha" result="shadowOffsetOuter1"/>
      <feGaussianBlur in="shadowOffsetOuter1" result="shadowBlurOuter1" stdDeviation="2"/>
      <feColorMatrix in="shadowBlurOuter1" result="shadowMatrixOuter1" values="0 0 0 0 0   0 0 0 0 0   0 0 0 0 0  0 0 0 0.5 0"/>
      <feMerge>
        <feMergeNode in="shadowMatrixOuter1"/>
        <feMergeNode in="SourceGraphic"/>
      </feMerge>
    </filter>
  </defs>
  <g fill="none" fill-rule="evenodd" filter="url(#above-the-footer-hero-assets-a)" transform="translate(4 2)">
    <path fill="#BF8858" d="M23.5806878 114.349375C21.9051525 114.349375 20.2371307 113.680625 19.0199256 112.353125 9.01930853 101.515625 2.12932668 78.041875.904607985 58.564375.41622323 50.838125.0405426497 43.144375 1.82878221 36.071875 6.66754809 42.476875 14.3840272 43.113125 17.1790907 43.091875 13.2344446 55.923125 14.5117586 75.265625 18.9598167 87.784375 19.6135009 89.635625 20.3348076 91.413125 21.1312505 93.108125 23.0998167 97.369375 25.474118 97.338125 28.1339365 100.218125 30.4556425 102.731875 30.2978566 110.395625 27.7732831 112.713125 26.5861325 113.808125 25.0834102 114.349375 23.5806878 114.349375zM66.9959637 112.713125C68.1831143 113.808125 69.6858367 114.349375 71.188559 114.349375 72.8640944 114.349375 74.5321162 113.680625 75.7493212 112.353125 85.7499383 101.515625 92.6399201 78.041875 93.8646388 58.564375 94.3530236 50.838125 94.7287042 43.144375 92.9404646 36.071875 88.1016987 42.476875 80.3852196 43.113125 77.5901561 43.091875 81.5348022 55.923125 80.2574882 75.265625 75.8094301 87.784375 75.1557459 89.635625 74.4344392 91.413125 73.6379964 93.108125 71.6694301 97.369375 69.2951289 97.338125 66.6353103 100.218125 64.3136044 102.731875 64.4713902 110.395625 66.9959637 112.713125"/>
    <path fill="#BF8858" d="M27.9114083 100.40725C27.3153285 100.40725 26.72551 100.151 26.3172704 99.656 25.4532051 98.61225 23.2604828 98.151 20.450392 98.426 19.3108276 98.5385 18.3040036 97.70725 18.193804 96.5735 18.0823521 95.43975 18.9126062 94.431 20.0496661 94.31975 23.093931 94.02475 27.2063811 94.25225 29.504294 97.03225 30.2306098 97.90975 30.1053829 99.20975 29.2250381 99.93475 28.8405917 100.25225 28.3747477 100.40725 27.9114083 100.40725M66.850951 100.40725C67.4470309 100.40725 68.0368494 100.151 68.4463412 99.656 69.3091543 98.61225 71.5018766 98.151 74.3119673 98.426 75.4515318 98.5385 76.4583557 97.70725 76.5685554 96.5735 76.6800073 95.43975 75.8497532 94.431 74.7126933 94.31975 71.6684283 94.02475 67.5559782 94.25225 65.2593176 97.03225 64.5317495 97.90975 64.6569764 99.20975 65.5373212 99.93475 65.9217677 100.25225 66.3876116 100.40725 66.850951 100.40725"/>
    <path fill="#F6CCB8" d="M625.110917,111.869625 C623.952568,112.942125 622.4799,113.467125 621.014746,113.467125 C619.378031,113.467125 617.746325,112.814625 616.560426,111.518375 C606.776452,100.927125 600.044256,77.978375 598.849592,58.934625 C598.415054,52.124625 599.301661,43.500875 600.759301,36.802125 C606.62618,43.815875 615.499755,43.117125 615.83912,43.019625 C612.629555,54.794625 612.337777,72.952125 615.688848,84.908375 C615.936797,85.814625 616.207287,86.678375 616.500318,87.502125 C617.138975,89.309625 617.844002,91.050875 618.617904,92.707125 C620.542641,96.869625 622.863094,96.840875 625.462804,99.659625 C626.215417,100.469625 626.696289,101.827125 626.920445,103.364625 C627.380027,106.484625 626.762659,110.354625 625.110917,111.869625"/>
    <path fill="#F6CCB8" d="M625.249042 99.842C624.666737 99.842 624.089441 99.592 623.689967 99.10825 622.844686 98.08825 620.702054 97.637 617.955829 97.9045 616.84131 98.0145 615.857027 97.20325 615.749332 96.0945 615.640385 94.98575 616.453107 93.9995 617.562617 93.89075 620.538007 93.602 624.559042 93.82575 626.805612 96.542 627.5169 97.40075 627.394178 98.672 626.532617 99.38075 626.156936 99.69075 625.701111 99.842 625.249042 99.842M689.636936 58.935C688.434759 77.9775 681.702563 100.9275 671.927354 111.5175 670.73269 112.815 669.103488 113.4675 667.464269 113.4675 665.999114 113.4675 664.526446 112.9425 663.36935 111.87 661.716356 110.355 661.10024 106.5075 661.551056 103.395 661.776465 101.8425 662.266102 100.4775 663.016211 99.66 665.61592 96.84 667.937626 96.87 669.861111 92.7075 670.642526 91.05 671.342544 89.31 671.979949 87.5025 672.348116 86.46 672.686229 85.3575 672.986773 84.2025 676.127463 72.2475 675.783089 54.57 672.641147 43.02 672.860294 43.1025 681.82278 43.8675 687.722218 36.81 689.187372 43.5075 690.065212 52.125 689.636936 58.935"/>
    <path fill="#F6CCB8" d="M663.232853 99.842C663.815158 99.842 664.392454 99.592 664.791927 99.10825 665.635956 98.08825 667.77984 97.637 670.526065 97.9045 671.639332 98.0145 672.623615 97.20325 672.732563 96.0945 672.84151 94.98575 672.028788 93.9995 670.919278 93.89075 667.942635 93.602 663.921601 93.82575 661.676283 96.542 660.964995 97.40075 661.087717 98.672 661.948025 99.38075 662.323706 99.69075 662.780784 99.842 663.232853 99.842M377.398913 120.353933L378.806463 104.269604 387.787733 105.055855 386.381436 121.138932C386.10218 124.317737 383.86688 126.719056 381.386136 126.501209 378.905392 126.284615 377.119657 123.532738 377.398913 120.353933"/>
    <path fill="#F6CCB8" d="M374.865073 116.265431C375.357214 110.65526 380.586688 107.153441 380.809592 107.005706 381.683675 106.431042 382.84578 106.688952 383.40304 107.581622 383.960299 108.475543 383.706089 109.664935 382.833258 110.24085 382.763131 110.289678 378.931189 112.900079 378.606851 116.593453 378.514183 117.651385 377.602532 118.437636 376.568158 118.347492 375.535036 118.257349 374.772405 117.325868 374.865073 116.265431M315.067368 120.353933L313.659819 104.269604 304.678548 105.055855 306.086098 121.138932C306.364102 124.317737 308.599401 126.719056 311.080145 126.501209 313.560889 126.284615 315.345372 123.532738 315.067368 120.353933"/>
    <path fill="#F6CCB8" d="M317.601334,116.265431 C317.110445,110.65526 311.879719,107.153441 311.656815,107.005706 C310.782731,106.431042 309.620626,106.688952 309.063367,107.581622 C308.506107,108.475543 308.760318,109.664935 309.633149,110.24085 C309.703276,110.289678 313.535218,112.900079 313.858303,116.593453 C313.950971,117.651385 314.863875,118.437636 315.898249,118.347492 C316.93137,118.257349 317.694002,117.325868 317.601334,116.265431"/>
    <path fill="#8E47CD" d="M385.290209,14.7799148 C383.851352,6.36027508 371.708103,5.61158444 357.042786,0.101571917 C357.042786,0.101571917 358.332623,17.2250532 346.233203,17.2250532 C334.135036,17.2250532 335.458684,0.101571917 335.458684,0.101571917 C320.792114,5.61158444 308.650118,6.36027508 307.211261,14.7799148 C304.885799,28.3853013 303.734964,43.8035708 302.241007,60.3398684 C301.731334,81.8966499 304.432477,108.768133 304.432477,108.768133 L315.493766,108.768133 C315.560136,108.656706 315.788049,91.5520048 316.228848,72.4366057 C318.392768,58.5107095 318.66451,52.3559216 318.724619,52.2795501 C318.724619,52.2795501 318.606906,87.1312244 317.655181,101.689376 C317.655181,101.689376 331.740699,106.2003 346.249483,106.2003 C360.759519,106.2003 374.882604,101.689376 374.882604,101.689376 C374.166307,89.6352065 374.52696,52.2795501 374.52696,52.2795501 C374.587069,52.3546696 377.087849,72.1862075 377.087849,72.1862075 C376.146143,88.8815079 377.691443,108.655454 377.759065,108.768133 L388.06774,108.768133 C388.06774,108.768133 391.42382,83.6294055 390.831497,60.6228183 C389.366343,44.6636887 387.523004,27.8456932 385.290209,14.7799148 Z"/>
  </g>
</svg>
