<svg xmlns="http://www.w3.org/2000/svg" xmlns:xlink="http://www.w3.org/1999/xlink" width="686" height="402"><defs><filter id="A" width="104.4%" height="108.5%" x="-2.2%" y="-3%" filterUnits="objectBoundingBox"><feOffset dy="2" in="SourceAlpha" result="A"/><feGaussianBlur in="A" result="B" stdDeviation="2"/><feColorMatrix in="B" result="C" values="0 0 0 0 0 0 0 0 0 0 0 0 0 0 0 0 0 0 0.5 0"/><feMerge><feMergeNode in="C"/><feMergeNode in="SourceGraphic"/></feMerge><filter/></filter><path id="B" d="M0 164h316.991V.738H0z"/><filter id="C" width="104.1%" height="108.5%" x="-2.1%" y="-3%" filterUnits="objectBoundingBox"><feOffset dy="2" in="SourceAlpha" result="A"/><feGaussianBlur in="A" result="B" stdDeviation="2"/><feColorMatrix in="B" result="C" values="0 0 0 0 0 0 0 0 0 0 0 0 0 0 0 0 0 0 0.5 0"/><feMerge><feMergeNode in="C"/><feMergeNode in="SourceGraphic"/></feMerge><filter/></filter><path id="D" d="M0 .243h337.906v14.128H0z"/><path id="E" d="M0 162.633h337.906V.058H0z"/><filter id="F" width="104.8%" height="109.3%" x="-2.4%" y="-3.3%" filterUnits="objectBoundingBox"><feOffset dy="2" in="SourceAlpha" result="A"/><feGaussianBlur in="A" result="B" stdDeviation="2"/><feColorMatrix in="B" result="C" values="0 0 0 0 0 0 0 0 0 0 0 0 0 0 0 0 0 0 0.5 0"/><feMerge><feMergeNode in="C"/><feMergeNode in="SourceGraphic"/></feMerge><filter/></filter><filter id="G" width="108%" height="108.7%" x="-4%" y="-2.9%" filterUnits="objectBoundingBox"><feOffset dy="2" in="SourceAlpha" result="A"/><feGaussianBlur in="A" result="B" stdDeviation="2"/><feColorMatrix in="B" result="C" values="0 0 0 0 0 0 0 0 0 0 0 0 0 0 0 0 0 0 0.5 0"/><feMerge><feMergeNode in="C"/><feMergeNode in="SourceGraphic"/></feMerge><filter/></filter><path id="H" d="M0 172h173.968V.218H0z"/><path id="I" d="M.79.082V161h169.18V84.88l-60.501-26.13V.082z"/><path id="J" d="M17.169 19.702h13.198v-7.77c0-7.52-6.522-11.281-13.198-11.879v19.649zM.222 11.932v7.77h13.2V.054C6.756.648.222 4.412.222 11.932z"/><path id="K" d="M0 169h141.184V.847H0z"/></defs><g transform="translate(4 1)" fill="none" fill-rule="evenodd"><g filter="url(#A)" transform="translate(361 231)"><path d="M0 68h104V36H0z" fill="#698AEC"/><path d="M0 157h281V70H0z" fill="#CBC1B1"/><path d="M165 158h17V70h-17z" fill="#989185"/><path d="M116 51h51V11h-51z" fill="#3D3D3D"/><path d="M111 130h29v-11h-29z" fill="#8F8F8F"/><path d="M141 130h29v-11h-29z" fill="#6B6B6B"/><path d="M130 132v16.514l8.099 8.486H139v-25zm-3 0h-9v4.685l9 9.315z" fill="#A4A8B6"/><path d="M118 136v20h9v-11.096zm12 21h8l-8-8z" fill="#DAE0F3"/><path d="M142 157h9v-25h-9zm13 0h9v-25h-9z" fill="#A4A8B6"/><path d="M116 128v4.602l2.826 2.857v-4.599h45.346V156H167v-28z" fill="#171717"/><path d="M116 133v23h3v-20.191zm14 14v-15h-3v12.414zm-3-2v11h3v-8.237zm12 12h3v-25h-3zm13 0h3v-25h-3z" fill="#2E2E2E"/><path d="M247 140h34v-12h-34z" fill="#3D3D3D"/><path d="M243 140h5v-12h-5z" fill="#F3F3F3"/><path d="M209 140h34v-12h-34z" fill="#3D3D3D"/><path d="M204 140h5v-12h-5z" fill="#F3F3F3"/><path d="M170 140h34v-12h-34z" fill="#3D3D3D"/><path d="M165 140h5v-12h-5z" fill="#F3F3F3"/><path d="M0 140h34v-12H0z" fill="#3D3D3D"/><path d="M34 140h5v-12h-5z" fill="#F3F3F3"/><path d="M39 140h34v-12H39z" fill="#3D3D3D"/><path d="M73 140h5v-12h-5z" fill="#F3F3F3"/><path d="M77 140h34v-12H77z" fill="#3D3D3D"/><path d="M111 140h5v-12h-5z" fill="#F3F3F3"/><path d="M247 106h34V94h-34z" fill="#3D3D3D"/><path d="M243 106h5V94h-5z" fill="#F3F3F3"/><path d="M209 106h34V94h-34z" fill="#3D3D3D"/><path d="M204 106h5V94h-5z" fill="#F3F3F3"/><path d="M0 106h34V94H0z" fill="#3D3D3D"/><path d="M34 106h5V94h-5z" fill="#F3F3F3"/><path d="M39 106h34V94H39z" fill="#3D3D3D"/><path d="M73 106h5V94h-5z" fill="#F3F3F3"/><path d="M77 106h34V94H77z" fill="#3D3D3D"/><path d="M111 106h5V94h-5z" fill="#F3F3F3"/><path d="M143.73 143.335c0 6.726 9.422 12.243 17.49 12.243h104.535c10.109 0 16.679-3.61 16.679-3.61l2.252-1.067-7.613-7.566H143.73z" fill="#2C2C2C"/><path d="M300.588 143.335l-15.903 7.566zm0 0l6.687-3.18-6.687 3.18z" fill="#898989"/><path d="M277.074 143.335l7.613 7.566 15.9-7.566zm-20.414 12.22l-38.913.024v-8.126l27.736-2.997z" fill="#1E1E1E"/><path d="M311.577 125.994H167.37v.027h-.231c-5.308 0-10.328 2.244-14.352 5.199h7.901c.958 0 1.735.776 1.735 1.725s-.776 1.72-1.735 1.72H148.82c-3.156 3.232-5.089 6.617-5.089 8.673h133.344l-5.699-5.651h33.41l2.489 2.468 5.062-2.402 1.563-.944v-10.551a9.68 9.68 0 0 0-2.322-.264" fill="#E0E0E0"/><path d="M162.424 132.943a1.73 1.73 0 0 0-1.735-1.722h-7.901c-1.471 1.08-2.805 2.248-3.969 3.442h11.871c.958 0 1.735-.768 1.735-1.72m154.546-4.02c-.02-.801-.876-2.105-3.071-2.664v10.548c2.772-1.828 3.049-3.064 3.071-4.015v-3.869" fill="#3B3B3B"/><path d="M299.122 94.362l-22.425 31.632h24.854l7.454-31.632z" fill="#698AEC"/><path d="M311.957 97.803h-9.765c-1.976 0-3.576 1.589-3.576 3.546h16.915c0-1.957-1.6-3.546-3.574-3.546" fill="#B1B1B1"/><path d="M217.748 159.859l.774-.106c3.009-.707 5.547-1.707 5.547-4.173h-6.321v4.28z" fill="#2C2C2C"/><path d="M218.521 151.411l-.774-.101v4.27h6.321c0-2.164-2.621-3.417-5.547-4.168" fill="#3B3B3B"/><path d="M246.374 147.452c0-3.145-2.578-5.703-5.746-5.703h-32.517c-3.121 0-5.652 2.466-5.736 5.542-.007 0-.01.002-.01.002v8.285h15.382v-8.127h28.627z" fill="#698AEC"/><path d="M202.366 155.579v8.29c.401.082.831.131 1.316.131l14.066-1.88v-6.54h-15.382z" fill="#4F68B1"/><path d="M202.366 147.293c-3.462.675-3.91 4.126-3.91 8.287h3.91v-8.287z" fill="#3B3B3B"/><path d="M198.456 155.579c0 4.168.45 7.62 3.91 8.29v-8.29h-3.91z" fill="#2C2C2C"/><path d="M298.203 121.423c-.555.549-1.446.549-1.996 0l-6.627-6.58a1.4 1.4 0 0 1 0-1.984 1.42 1.42 0 0 1 1.996 0l6.627 6.58a1.4 1.4 0 0 1 0 1.984m3.687-5.61c-.552.549-1.448.549-2.001 0l-6.625-6.582a1.39 1.39 0 0 1 0-1.982c.557-.549 1.451-.549 2.001 0l6.625 6.577a1.4 1.4 0 0 1 0 1.987" fill="#3B3B3B"/><path d="M305.706 108.382l-7.093-7.035h8.745z" fill="#4F68B1"/><path d="M172.221 139.045c0 .801-.659 1.455-1.468 1.455h-2.914c-.811 0-1.466-.655-1.466-1.455v-6.367c0-.803.655-1.458 1.466-1.458h2.914c.809 0 1.468.655 1.468 1.458v6.367z" fill="#D0D0D0"/><path d="M179.504 133.884c0 .457-.376.838-.844.838h-1.67a.84.84 0 0 1-.839-.838v-1.828c0-.46.373-.835.839-.835h1.67a.84.84 0 0 1 .844.835v1.828zm6.708 0a.84.84 0 0 1-.841.838h-1.672c-.463 0-.841-.381-.841-.838v-1.828a.84.84 0 0 1 .841-.835h1.672c.468 0 .841.376.841.835v1.828zm6.708 0c0 .457-.376.838-.841.838h-1.675c-.46 0-.841-.381-.841-.838v-1.828c0-.46.381-.835.841-.835h1.675a.84.84 0 0 1 .841.835v1.828zm6.708 0c0 .457-.378.838-.841.838h-1.677c-.458 0-.839-.381-.839-.838v-1.828a.84.84 0 0 1 .839-.835h1.677a.84.84 0 0 1 .841.835v1.828zm6.703 0a.84.84 0 0 1-.841.838h-1.672a.84.84 0 0 1-.839-.838v-1.828a.84.84 0 0 1 .839-.835h1.672c.468 0 .841.376.841.835v1.828zm6.713 0c0 .457-.378.838-.844.838h-1.672c-.465 0-.841-.381-.841-.838v-1.828a.84.84 0 0 1 .841-.835h1.672a.84.84 0 0 1 .844.835v1.828zm6.703 0a.84.84 0 0 1-.839.838h-1.672a.84.84 0 0 1-.839-.838v-1.828c0-.46.373-.835.839-.835h1.672c.468 0 .839.376.839.835v1.828zm6.708 0a.84.84 0 0 1-.839.838h-1.672c-.47 0-.839-.381-.839-.838v-1.828c0-.46.368-.835.839-.835h1.672c.465 0 .839.376.839.835v1.828zm6.71 0c0 .457-.376.838-.841.838h-1.677c-.458 0-.839-.381-.839-.838v-1.828a.84.84 0 0 1 .839-.835h1.677a.84.84 0 0 1 .841.835v1.828zm6.708 0c0 .457-.378.838-.839.838h-1.677c-.46 0-.841-.381-.841-.838v-1.828c0-.46.381-.835.841-.835h1.677a.84.84 0 0 1 .839.835v1.828zm6.703 0a.84.84 0 0 1-.836.838h-1.677c-.46 0-.839-.381-.839-.838v-1.828a.84.84 0 0 1 .839-.835h1.677c.463 0 .836.376.836.835v1.828zm6.708 0a.84.84 0 0 1-.841.838h-1.67c-.465 0-.834-.381-.834-.838v-1.828c0-.46.368-.835.834-.835h1.67c.468 0 .841.376.841.835v1.828zm6.708 0a.84.84 0 0 1-.839.838h-1.672c-.465 0-.841-.381-.841-.838v-1.828a.84.84 0 0 1 .841-.835h1.672c.465 0 .839.376.839.835v1.828z" fill="#3B3B3B"/><path d="M301.55 125.994h-24.852l11.774 11.692h-17.097l5.699 5.651h23.513l6.687-3.183 5.734-2.79z" fill="#D0D0D0"/><path d="M299.037 131.982h-21.913c-3.178 0-5.749 2.557-5.749 5.705h33.41c0-3.148-2.573-5.705-5.749-5.705" fill="#698AEC"/><mask id="L" fill="#fff"><use xlink:href="#B"/></mask><path mask="url(#L)" d="M107.519 51.527h33.189V41.369h-33.189z" fill="#CBC1B1"/><path mask="url(#L)" d="M140.705 51.529h33.196V41.372h-33.196zm0-40.633h33.196V.738h-33.196z" fill="#989185"/><path mask="url(#L)" d="M107.519 10.899h33.189V.741h-33.189zm-9.663 20.312h42.852V21.054H97.856z" fill="#CBC1B1"/><path mask="url(#L)" d="M140.708 31.211h42.889V21.054h-42.889z" fill="#989185"/><path mask="url(#L)" d="M138.495 51.528h-23.057l23.057 22.892zm27.477 50.174V51.527h-23.054v27.285z" fill="#666159"/><path mask="url(#L)" d="M142.919 78.812v39.106h23.054v-16.216zm-27.48-27.284v66.389h23.057V74.42z" fill="#989185"/><path mask="url(#L)" d="M138.495 74.42v43.497h4.423V78.811z" fill="#3D3D3D"/><path mask="url(#L)" d="M142.919 78.812V51.529h-4.423v22.892zm27.478 26.802h13.2V93.6h-13.2z" fill="#2E2E2E"/><path mask="url(#L)" d="M183.597 105.614h20.855V93.6h-20.855z" fill="#3D3D3D"/><path mask="url(#L)" d="M165.973 105.614h4.424V93.6h-4.424z" fill="#B6B6B6"/><path d="M25.102 55.956l-1.876-6.773-1.961 6.773h3.837zm-3.611-10.182l.898-.101a12.41 12.41 0 0 1 .953-.035c.299 0-.294-1.71-.012-1.685l1.837 1.821L30.253 61.9c-.62.086-1.219.133-1.809.133-.572 0-1.13-.047-1.672-.133l-1.834-1.823.933-1.406h-5.375l-.928 3.229c-.54.086-1.058.133-1.558.133-.557 0-1.107-.047-1.65-.133l-1.834-1.823 6.966-14.304zm10.749 2.579l-1.837-1.821c0-.479 1.75-.66 1.837-1.184a8.03 8.03 0 0 1 .826-.101c.291-.022.333-1.744.632-1.722l1.837 1.823c.052.254.08.504.092.749a9.49 9.49 0 0 1 .025.754l-.025.741c-.012.254-.04.507-.092.761a6.64 6.64 0 0 1-.819.089l-.829.022a16.43 16.43 0 0 1-.809-.022c-.301-.015-.582-.044-.839-.089zm.473 4.373h-1.511c-.045-.193-1.814-1.606-1.837-1.823 0 0 1.745-.21 1.837-.598l2.685-1.841 1.969 1.841V61.9a10.1 10.1 0 0 1-1.588.133 10 10 0 0 1-1.555-.133l-1.988-1.69 1.988-7.484zm6.305-2.421a7.95 7.95 0 0 1 .642-.101 6.86 6.86 0 0 1 .667-.037 5.29 5.29 0 0 1 .664.047l.647.114c.045.074.087.183.127.326l.097.447c.027.156.871-.015 1.354-.383s.727-2.293.923-2.278l1.837 1.821c.032.148.05.321.065.514l.025.605a12.85 12.85 0 0 1-.037.83c-.02.301-.06.583-.122.855-.167-.032-.348-.047-.552-.047h-.373a5.11 5.11 0 0 0-.859.079c-.314.052-.615.19-.906.413s-.518.563-.707 1.011-.286 1.077-.286 1.883v5.52a8.14 8.14 0 0 1-.811.089l-.786.022c-.259 0-.52-.007-.786-.022-.259-.015-.54-.047-.821-.089l-1.837-1.826 1.837-9.792zm12.217 9.126c.411.121.878.183 1.401.183.933 0 1.655-.299 2.148-.899s.747-1.502.747-2.713a7.17 7.17 0 0 0-.114-1.29c-.077-.395-.199-.736-.381-1.02a2.06 2.06 0 0 0-.692-.672c-.279-.166-.622-.247-1.028-.247-.378 0-.699.072-.961.215a1.77 1.77 0 0 0-.645.581c-.167.245-.281.534-.361.862-.072.329-.114.682-.114 1.055v3.946zm-3.203-9.15a4.8 4.8 0 0 1 .62-.089l.687-.025c.426 0 .856.047 1.287.138.05.072.09.183.124.324s1.19.19 1.471.01.59-.324.941-.435c.343-.114.724-.168 1.15-.168.645 0 .002.047.572.287.56.24-.01-1.208.59-.971 1.224.484 2.884 3.224 3.116 3.958s.353 1.599.353 2.599c0 .974-.147 1.846-.428 2.617-.289.768-.704 1.421-1.244 1.962a5.47 5.47 0 0 1-1.993 1.243c-.776.292-1.67.437-2.663.437a7.56 7.56 0 0 1-.754-.035 6.31 6.31 0 0 1-.625-.079v5.162c-.281.042-.56.074-.821.086l-.781.027a12.23 12.23 0 0 1-.784-.027 8.44 8.44 0 0 1-.816-.086l-1.837-1.823 1.837-15.112zm18.363 9.463c.841 0 1.448-.309 1.819-.929s.552-1.515.552-2.678-.184-2.058-.552-2.678-.978-.934-1.819-.934c-.829 0-1.424.311-1.797.934s-.555 1.51-.555 2.678.187 2.058.555 2.678.968.929 1.797.929m0 2.424c-.948 0-1.774-.156-2.471-.46s-2.969-1.89-3.248-2.753c-.224-.677.699.289.468-.445s-.351-1.525-.351-2.374a7.92 7.92 0 0 1 .351-2.402c.231-.746.58-1.394 1.04-1.94a4.75 4.75 0 0 1 1.74-1.29c.697-.314 1.523-.469 2.471-.469s.841-1.156 1.553-.843c.704.314 1.563.974 2.695 2.602.408.588.809 1.193 1.038 1.94s.343 1.547.343 2.402-.114 1.643-.343 2.374-.567 1.374-1.038 1.922c-.463.544-1.058.969-1.762 1.275-.712.304-1.535.46-2.486.46m8.156-11.863c.224-.044.44-.079.645-.101a6.75 6.75 0 0 1 .662-.037c.229 0 .448.02.667.047l.645.114c.05.074.09.183.124.326s2.183-2.229 2.382-2.214 1.745 1.791 1.837 1.821l.065.514c.017.198.02.398.02.605 0 .254-.01.531-.035.83a5.71 5.71 0 0 1-.119.855 2.96 2.96 0 0 0-.56-.047h-.368c-.256 0-.545.025-.859.079s-.615.19-.906.413c-.284.225-.523.563-.712 1.011s-.281 1.077-.281 1.883v5.52c-.266.042-.538.074-.814.089l-.789.022a13.95 13.95 0 0 1-.781-.022c-.261-.015-.538-.047-.821-.089l-1.842-1.826 1.842-9.792zm9.396 2.421h-1.468l-.11-.447 2.907-7.183 1.834 1.821v3.388l.893-1.823 1.842 1.823c.045.222.075.425.087.605s.022.368.022.561c0 .21-.005.41-.022.605s-.042.413-.087.65H87.11v4.554c0 .465.035.838.114 1.119s.789-.84 1.008-.88 1.67 1.856 1.837 1.821a4.11 4.11 0 0 1 .226.887 5.46 5.46 0 0 1 .07.82l-.01.415-.04.326c-.692.163-1.409.245-2.148.245-1.366 0-4.066-1.038-4.97-2.775-.443-.855.749.151.749-1.282v-5.251z" mask="url(#L)" fill="#4F68B1"/><path d="M23.267 54.133L21.39 47.36l-1.964 6.773h3.84zM19.651 43.95l.906-.101c.284-.022.597-.035.948-.035a11.35 11.35 0 0 1 .878.035l.946.101 5.089 16.127a13.09 13.09 0 0 1-1.812.131c-.572 0-1.127-.044-1.67-.131l-.901-3.229h-5.383l-.921 3.229c-.543.086-1.06.131-1.558.131a10.42 10.42 0 0 1-1.65-.131l5.127-16.127zm10.751 2.58a8.92 8.92 0 0 1-.134-1.505c0-.477.047-.978.134-1.502a8.83 8.83 0 0 1 .829-.101c.289-.022.56-.032.796-.032a11.59 11.59 0 0 1 .839.032 8.31 8.31 0 0 1 .831.101c.052.257.08.507.095.751l.02.751-.02.741c-.015.254-.042.507-.095.763-.246.044-.528.074-.819.089l-.826.02c-.241 0-.51-.005-.811-.02s-.58-.044-.839-.089zm.475 4.373h-1.513c-.042-.193-.08-.4-.105-.618s-.032-.423-.032-.618a5.14 5.14 0 0 1 .137-1.188h4.649v11.596a9.7 9.7 0 0 1-1.58.133 9.59 9.59 0 0 1-1.555-.133v-9.172zm6.303-2.424l.642-.099c.204-.022.428-.035.667-.035.226 0 .445.015.667.044s.433.069.642.114a1.08 1.08 0 0 1 .124.326l.102.447.082.469.052.393c.331-.462.737-.88 1.222-1.245s1.08-.549 1.807-.549c.154 0 .329.007.518.022.199.015.343.037.433.069a4.31 4.31 0 0 1 .065.514l.027.605a12.85 12.85 0 0 1-.037.83c-.02.301-.062.583-.122.852-.167-.032-.356-.044-.552-.044h-.381c-.251 0-.533.025-.854.077-.314.054-.615.193-.903.415s-.523.561-.714 1.011-.281 1.077-.281 1.883v5.515c-.269.049-.543.077-.809.094l-.789.02a14.04 14.04 0 0 1-.786-.02 7.83 7.83 0 0 1-.821-.094V48.48zm12.217 9.127c.408.121.876.183 1.399.183.933 0 1.655-.299 2.15-.899s.747-1.5.747-2.713c0-.465-.042-.894-.112-1.287-.077-.398-.202-.739-.386-1.02a2.03 2.03 0 0 0-.687-.675c-.281-.166-.622-.247-1.033-.247-.373 0-.694.072-.958.215a1.83 1.83 0 0 0-.645.581c-.164.247-.286.536-.361.865a5.04 5.04 0 0 0-.114 1.055v3.943zm-3.203-9.147a4.2 4.2 0 0 1 .622-.091c.197-.015.436-.022.684-.022a6.41 6.41 0 0 1 1.287.133c.05.074.092.185.124.326l.114.46c.04.163.067.324.095.482l.05.393c.137-.24.306-.474.498-.707s.436-.435.714-.618a3.96 3.96 0 0 1 .936-.435c.351-.114.732-.168 1.155-.168.647 0 1.252.119 1.819.356.56.24 1.058.603 1.481 1.09s.747 1.095.983 1.828.346 1.599.346 2.602c0 .971-.142 1.843-.426 2.614s-.702 1.421-1.244 1.962-1.205.951-1.991 1.243c-.779.294-1.67.437-2.663.437a7.66 7.66 0 0 1-.759-.035c-.249-.022-.458-.047-.622-.079v5.162a10.21 10.21 0 0 1-.819.089l-.781.022a14.17 14.17 0 0 1-.784-.022 10.46 10.46 0 0 1-.819-.089V48.46zm18.363 9.462c.844 0 1.451-.309 1.817-.929s.555-1.515.555-2.681-.184-2.058-.555-2.678-.973-.932-1.817-.932c-.826 0-1.428.311-1.797.932s-.552 1.512-.552 2.678.182 2.061.552 2.681.971.929 1.797.929m0 2.421c-.951 0-1.772-.153-2.471-.46s-1.284-.731-1.74-1.277c-.465-.544-.809-1.186-1.043-1.917s-.346-1.525-.346-2.377.112-1.651.346-2.402c.234-.744.577-1.394 1.043-1.937a4.75 4.75 0 0 1 1.74-1.29c.699-.316 1.521-.469 2.471-.469s1.777.153 2.489.469c.704.314 1.294.744 1.762 1.29s.809 1.193 1.038 1.937c.226.751.341 1.549.341 2.402s-.114 1.646-.341 2.377-.57 1.374-1.038 1.917-1.058.974-1.762 1.277c-.712.306-1.538.46-2.489.46m8.151-11.863l.65-.099a6.09 6.09 0 0 1 .662-.035c.229 0 .45.015.669.044a9.5 9.5 0 0 1 .645.114c.047.074.087.18.122.326s.072.289.105.447.05.311.072.469c.03.158.042.289.06.393a5.8 5.8 0 0 1 1.222-1.245c.483-.366 1.085-.549 1.804-.549.157 0 .326.007.52.022s.343.037.436.069l.065.514c.017.195.02.395.02.605a11.13 11.13 0 0 1-.032.83 6.76 6.76 0 0 1-.122.852c-.167-.032-.351-.044-.56-.044h-.366c-.259 0-.548.025-.861.077a2 2 0 0 0-.903.415c-.286.225-.525.561-.714 1.011s-.281 1.077-.281 1.883v5.515c-.266.049-.538.077-.814.094l-.789.02c-.254 0-.513-.005-.779-.02s-.538-.044-.829-.094V48.48zm9.403 2.423h-1.473l-.11-.45 4.226-5.359h.52v3.388h2.728a4.16 4.16 0 0 1 .095.605l.022.561a9.42 9.42 0 0 1-.022.605 4.75 4.75 0 0 1-.095.65h-2.728v4.554c0 .465.032.838.112 1.122s.182.507.326.672a1.09 1.09 0 0 0 .528.336c.217.062.465.089.747.089.229 0 .455-.017.672-.057l.572-.099c.102.284.177.581.226.887s.07.578.07.815l-.01.418c-.007.111-.027.22-.037.324-.694.166-1.411.247-2.148.247-1.369 0-2.414-.316-3.133-.954s-1.088-1.67-1.088-3.106v-5.248z" mask="url(#L)" fill="#FFF"/></g><g filter="url(#C)" transform="translate(0 226)"><path d="M31 111h137V78H31z" fill="#B27272"/><path d="M31 78h137V0H31z" fill="#F4F4F4"/><path d="M89 111h22V89H89z" fill="#1D1D1D"/><path d="M99 111h3V89h-3z" fill="#754D4D"/><path d="M37 34v12h7.06L56 34z" fill="#698AEC"/><path d="M63 34h-7.059L44 46h19z" fill="#4F68B1"/><path d="M37 57v12h7.06L56 57z" fill="#698AEC"/><path d="M63 57h-7.059L44 69h19z" fill="#4F68B1"/><path d="M71 34v12h7.055L90 34z" fill="#698AEC"/><path d="M97 34h-7.053L78 46h19z" fill="#4F68B1"/><path d="M71 57v12h7.055L90 57z" fill="#698AEC"/><path d="M97 57h-7.053L78 69h19z" fill="#4F68B1"/><path d="M105 34v12h7.059L124 34z" fill="#698AEC"/><path d="M131 34h-7.06L112 46h19z" fill="#4F68B1"/><path d="M105 57v12h7.059L124 57z" fill="#698AEC"/><path d="M131 57h-7.06L112 69h19z" fill="#4F68B1"/><path d="M138 34v12h7.06L157 34z" fill="#698AEC"/><path d="M164 34h-7.059L145 46h19z" fill="#4F68B1"/><path d="M138 57v12h7.06L157 57z" fill="#698AEC"/><path d="M164 57h-7.059L145 69h19z" fill="#4F68B1"/><path d="M0 149h209v-38H0z" fill="#9D9D9D"/><path d="M0 163h338v-14H0z" fill="#4F68B1"/><g transform="translate(0 148.261)"><mask id="M" fill="#fff"><use xlink:href="#D"/></mask><path d="M326.288 5.402c-3.344-2.416-7.124-5.16-14.396-5.16-7.266 0-11.054 2.744-14.39 5.16-3.157 2.287-5.885 4.26-11.617 4.26s-8.453-1.973-11.61-4.26c-3.333-2.416-7.116-5.16-14.38-5.16-7.269 0-11.052 2.744-14.393 5.16-3.154 2.287-5.874 4.26-11.607 4.26s-8.461-1.973-11.61-4.26c-3.336-2.416-7.121-5.16-14.385-5.16s-11.044 2.744-14.38 5.16c-3.152 2.287-5.88 4.26-11.607 4.26s-8.45-1.973-11.604-4.26c-3.336-2.416-7.116-5.16-14.377-5.16-7.266 0-11.047 2.744-14.382 5.16-3.154 2.287-5.88 4.26-11.607 4.26-5.732 0-8.458-1.973-11.61-4.26-3.336-2.416-7.119-5.16-14.385-5.16-7.261 0-11.044 2.744-14.385 5.16-3.154 2.287-5.874 4.26-11.607 4.26-5.722 0-8.45-1.973-11.602-4.26-3.338-2.416-7.121-5.16-14.38-5.16-7.269 0-11.052 2.744-14.388 5.16-3.152 2.287-5.877 4.26-11.599 4.26-5.727 0-8.453-1.973-11.61-4.26C11.046 2.986 7.263.243 0 .243v4.711c5.73 0 8.458 1.975 11.607 4.26 3.333 2.419 7.114 5.157 14.382 5.157 7.256 0 11.044-2.739 14.377-5.157 3.152-2.285 5.88-4.26 11.61-4.26 5.722 0 8.447 1.975 11.602 4.26 3.336 2.419 7.119 5.157 14.38 5.157 7.266 0 11.049-2.739 14.388-5.157 3.149-2.285 5.877-4.26 11.604-4.26s8.455 1.975 11.604 4.257c3.341 2.421 7.124 5.16 14.39 5.16s11.041-2.739 14.382-5.16c3.154-2.282 5.877-4.257 11.607-4.257s8.447 1.975 11.599 4.257c3.336 2.421 7.124 5.16 14.382 5.16 7.266 0 11.047-2.739 14.382-5.16 3.154-2.282 5.877-4.257 11.604-4.257s8.455 1.975 11.61 4.26c3.338 2.419 7.116 5.157 14.385 5.157s11.049-2.739 14.39-5.16c3.152-2.282 5.877-4.257 11.61-4.257 5.727 0 8.453 1.975 11.607 4.26 3.333 2.419 7.116 5.157 14.382 5.157s11.052-2.739 14.393-5.157c3.154-2.285 5.88-4.26 11.615-4.26s8.466 1.975 11.615 4.26c3.344 2.419 7.124 5.157 14.401 5.157V9.662c-5.74 0-8.466-1.973-11.62-4.26" mask="url(#M)" fill="#698AEC"/></g><mask id="N" fill="#fff"><use xlink:href="#E"/></mask><path mask="url(#N)" d="M10.915 110.428h8.55v-6.991h-8.55z" fill="#E3E3E3"/><path mask="url(#N)" d="M19.465 110.428h8.542v-6.991h-8.542z" fill="#AAA"/><path mask="url(#N)" d="M14.828 88.955l1.284 14.483h6.692l1.287-14.483z" fill="#C4C4C4"/><path mask="url(#N)" d="M45.104 110.428h8.55v-6.991h-8.55z" fill="#E3E3E3"/><path mask="url(#N)" d="M53.654 110.428h8.55v-6.991h-8.55z" fill="#AAA"/><path mask="url(#N)" d="M49.02 88.955l1.289 14.483h6.687l1.287-14.483z" fill="#C4C4C4"/><path mask="url(#N)" d="M79.302 110.428h8.55v-6.991h-8.55z" fill="#E3E3E3"/><path mask="url(#N)" d="M87.852 110.428h8.544v-6.991h-8.544z" fill="#AAA"/><path mask="url(#N)" d="M83.217 88.955l1.284 14.483h6.695l1.284-14.483z" fill="#C4C4C4"/><path mask="url(#N)" d="M113.494 110.428h8.55v-6.991h-8.55z" fill="#E3E3E3"/><path mask="url(#N)" d="M122.044 110.428h8.547v-6.991h-8.547z" fill="#AAA"/><path mask="url(#N)" d="M117.409 88.955l1.289 14.483h6.69l1.287-14.483z" fill="#C4C4C4"/><path mask="url(#N)" d="M147.691 110.428h8.55v-6.991h-8.55z" fill="#E3E3E3"/><path mask="url(#N)" d="M156.241 110.428h8.545v-6.991h-8.545z" fill="#AAA"/><path mask="url(#N)" d="M151.607 88.955l1.289 14.483h6.687l1.287-14.483z" fill="#C4C4C4"/><path mask="url(#N)" d="M181.883 110.428h8.547v-6.991h-8.547z" fill="#E3E3E3"/><path mask="url(#N)" d="M190.43 110.428h8.55v-6.991h-8.55z" fill="#AAA"/><path mask="url(#N)" d="M185.796 88.955l1.289 14.483h6.69l1.284-14.483z" fill="#C4C4C4"/><path mask="url(#N)" d="M150.89 106.142h5.506V74.229h-5.506z" fill="#2B2B2B"/><path mask="url(#N)" d="M307.765 116.912h-24.256L258.74 102.02H146.951v14.892h-28.088v19.82l196.981 2.865z" fill="#E75151"/><path mask="url(#N)" d="M202.511 130.474L91.809 119.289l28.922 29.217h217.178v-18.032z" fill="#2B2B2B"/><path mask="url(#N)" d="M169.132 102.013h15.942V90.141h-15.942z" fill="#9D9D9D"/><path mask="url(#N)" d="M169.131 82.193v7.948h15.942l-7.971-7.948z" fill="#2B2B2B"/><path mask="url(#N)" d="M230.834 102.013h15.942V90.141h-15.942z" fill="#9D9D9D"/><path mask="url(#N)" d="M230.833 82.193v7.948h15.942l-7.974-7.948z" fill="#2B2B2B"/><path mask="url(#N)" d="M125.095 135.904h9.058v-4.011h-9.058zm13.588 0h9.045v-4.011h-9.045zm13.575 0h9.052v-4.011h-9.052z" fill="#E75151"/><path mask="url(#N)" d="M168.995 120.385h105.636v-4.013H168.995zm0-7.935h90.535v-4.013h-90.535z" fill="#FFF"/><path mask="url(#N)" d="M31.614 27.118h137.518V.38H31.614z" fill="#E75151"/><g fill="#AD3D3D"><path d="M83.073 14.777a3.31 3.31 0 0 0 .539.047h.621c.4 0 .794-.05 1.186-.157a2.82 2.82 0 0 0 1.029-.519c.297-.241.537-.556.716-.955.174-.393.263-.881.263-1.461 0-.595-.089-1.096-.263-1.508-.179-.409-.418-.74-.716-.986-.303-.252-.645-.428-1.029-.535-.392-.102-.787-.155-1.186-.155l-.497.01a12.46 12.46 0 0 0-.663.06v6.159zm-3.536-8.934l2.247-.157 2.302-.06c.808 0 1.628.081 2.455.241.834.16.018-1.026.721-.627 1.173.672 2.749 2.592 3.17 3.379s.623 1.813.623 3.069-.205 2.272-.623 3.051c-.421.784-.958 1.398-1.623 1.849-.66.451-1.405.758-2.215.915-.816.163-1.618.244-2.41.244-.21 0-.405-.005-.592-.013s-.36-.018-.518-.037v5.579c-.308.047-.61.081-.897.094l-.847.024a16.78 16.78 0 0 1-.852-.024c-.305-.013-.618-.047-.939-.094l-1.539-1.535 1.539-15.899zm19.056 15.113c.902 0 1.55-.333 1.952-1.002.389-.666.587-1.629.587-2.885s-.197-2.214-.587-2.885c-.403-.666-1.05-.999-1.952-.999-.892 0-1.534.333-1.923.999-.397.672-.595 1.632-.595 2.885s.197 2.219.595 2.885c.389.669 1.031 1.002 1.923 1.002m0 2.607c-1.018 0-1.905-.165-2.649-.493-.755-.331-2.915-2.324-3.409-2.912s.676.26.426-.527c-.25-.792-.371-1.642-.371-2.563a8.68 8.68 0 0 1 .371-2.584c.25-.803.623-1.5 1.115-2.088s1.113-1.049 1.868-1.388c.745-.336 1.631-.506 2.649-.506 1.013 0 1.484-.7 2.244-.365.763.341 1.805 1.671 2.307 2.259a5.74 5.74 0 0 1 1.115 2.088c.242.808.363 1.666.363 2.584s-.121 1.771-.363 2.563c-.239.787-.618 1.474-1.115 2.062-.502.588-1.129 1.047-1.886 1.377s-1.652.493-2.665.493m8.74-12.772c.242-.047.45 1.104.666 1.081s.923-.333 1.176-.333.166-.509.397-.477c.237.031.339-.291.568-.247.053.081.095.197.129.351.047.152.079.312.11.483l.087.509.061.42a6.32 6.32 0 0 1 1.31-1.34c.516-.393 1.205-2.041 1.415-2.028l1.536 1.535.074.553.024.653c0 .273-.013.572-.034.894s-.068.627-.132.918c-.179-.034-.374-.05-.595-.05h-.4c-.276 0-.584.029-.923.084s-.666.207-.965.449c-.305.239-.566.601-.763 1.086-.203.483-.303 1.157-.303 2.025V23.3c-.287.047-.579.076-.873.094a13.28 13.28 0 0 1-.844.024c-.276 0-.552-.005-.842-.024-.276-.018-.574-.047-.879-.094l-1.536-1.537 1.536-10.973z" mask="url(#N)"/><path d="M117.407 13.398h-1.581l-1.536-1.532 4.97-6.256 1.542 1.535v3.646l1.384-1.535 1.539 1.535c.053.241.084.459.097.653a7.35 7.35 0 0 1 .024.601 8.66 8.66 0 0 1-.024.653c-.013.21-.045.443-.097.7H120.8v4.903c0 .498.037.902.113 1.207s.2.548.353.724 1.163-1.243 1.163-1.243l1.539 1.535s.192.624.242.955.076.622.076.879a5.15 5.15 0 0 1-.018.446c-.003.123-.018.239-.032.351a9.85 9.85 0 0 1-2.302.265c-1.471 0-3.978-1.099-4.904-2.563-.555-.871.376-.262.376-1.805v-5.653z" mask="url(#N)"/></g><path d="M81.532 13.242a3.45 3.45 0 0 0 .545.047h.621c.4 0 .794-.052 1.181-.157a2.65 2.65 0 0 0 1.029-.519 2.54 2.54 0 0 0 .713-.952c.182-.393.271-.881.271-1.461 0-.595-.089-1.099-.271-1.511-.176-.409-.416-.74-.713-.986s-.637-.425-1.029-.532c-.387-.105-.781-.157-1.181-.157l-.5.01-.666.06v6.159zm-3.533-8.934l2.249-.157 2.302-.06c.808 0 1.628.081 2.455.241a6.19 6.19 0 0 1 2.257.908c.671.443 1.21 1.057 1.634 1.844.416.792.623 1.813.623 3.069s-.208 2.272-.623 3.051c-.424.787-.96 1.401-1.623 1.849s-1.405.758-2.212.918a12.6 12.6 0 0 1-2.412.241 10.7 10.7 0 0 1-.595-.013 6.24 6.24 0 0 1-.521-.037v5.579c-.308.047-.605.081-.894.094l-.85.026c-.258 0-.539-.01-.844-.026a9.21 9.21 0 0 1-.944-.094V4.308zm19.053 15.114c.908 0 1.555-.333 1.949-1.002s.592-1.629.592-2.885-.195-2.217-.592-2.885-1.042-.999-1.949-.999c-.889 0-1.528.333-1.92.999s-.595 1.632-.595 2.885.2 2.219.595 2.885 1.031 1.002 1.92 1.002m0 2.607c-1.018 0-1.899-.165-2.647-.493-.752-.331-1.376-.79-1.87-1.377s-.866-1.277-1.108-2.064c-.253-.79-.381-1.642-.381-2.56s.129-1.778.381-2.584c.242-.803.616-1.503 1.108-2.088s1.118-1.049 1.87-1.388c.747-.338 1.628-.506 2.647-.506s1.907.168 2.668.506a5.28 5.28 0 0 1 1.886 1.388c.5.585.873 1.285 1.113 2.088a8.84 8.84 0 0 1 .363 2.584c0 .918-.118 1.771-.363 2.56a5.72 5.72 0 0 1-1.113 2.064c-.502.588-1.131 1.047-1.886 1.377-.76.328-1.649.493-2.668.493m8.745-12.772c.239-.047.474-.084.689-.11.213-.021.452-.037.71-.037a4.97 4.97 0 0 1 .716.052c.234.031.46.071.692.118.045.081.089.197.129.351.047.152.079.312.11.483l.079.506.068.422a6.32 6.32 0 0 1 1.31-1.34c.516-.393 1.16-.593 1.931-.593a7.54 7.54 0 0 1 .558.026c.213.016.363.039.463.073.032.16.053.346.074.553l.024.653a11.01 11.01 0 0 1-.037.894c-.026.32-.068.624-.129.915a3.51 3.51 0 0 0-.6-.05h-.397c-.276 0-.581.031-.921.087s-.668.205-.965.446c-.308.241-.568.603-.766 1.086s-.303 1.159-.303 2.028v5.941a9.02 9.02 0 0 1-.871.097l-.847.024a15.22 15.22 0 0 1-.839-.024 9.99 9.99 0 0 1-.879-.097V9.258zm10.073 2.608h-1.581l-.118-.483 4.528-5.771h.56v3.646h2.925c.055.241.087.459.1.653l.021.601-.021.653a4.76 4.76 0 0 1-.1.7h-2.925v4.903c0 .498.037.9.121 1.207.076.304.197.548.35.724a1.18 1.18 0 0 0 .568.362c.232.066.495.094.8.094.242 0 .484-.018.716-.06l.616-.108a4.88 4.88 0 0 1 .239.955c.053.331.076.624.076.881l-.013.446-.037.351a9.96 9.96 0 0 1-2.302.265c-1.465 0-2.591-.344-3.362-1.028-.776-.682-1.16-1.797-1.16-3.342v-5.65z" mask="url(#N)" fill="#FFF"/></g><g filter="url(#F)"><path d="M286.5 51h32v-8h-32zm38 0h34v-8h-34zm82 0h32v-8h-32z" fill="#AAA"/><path d="M202.5 52h6v-5h-6zm-13 0h6v-5h-6z" fill="#DDD"/><path d="M177.5 171h276V60h-276z" fill="#E3E3E3"/><path d="M288.5 171h27V60h-27z" fill="#AAA"/><path d="M316.5 171h26V60h-26z" fill="gray"/><path d="M172.5 61h289v-7h-289z" fill="#E75151"/><path d="M305.5 171h21v-21h-21z" fill="#1D1D1D"/><path d="M315.5 171h2v-21h-2z" fill="#D8D8D8"/><path d="M277.5 42h77V21h-77z" fill="#9CCE7C"/><path d="M288.5 51h4v-8h-4zm52 0h4v-8h-4z" fill="#575757"/><path d="M184.5 171h25v-25h-25zm37 0h25v-25h-25zm34 0h25v-25h-25z" fill="#9CCE7C"/><path d="M177.5 171h113v-15h-113z" fill="#F4F4F4"/><path d="M246.5 146v13h11v-.829zm-36 0v13h11v-.829zm71 0v13h5v-6.173z" fill="#AAA"/><path d="M296.5 75v17h9.66l16.34-17z" fill="#698AEC"/><path d="M333.5 75h-10.03L306.5 92h27z" fill="#4F68B1"/><path d="M296.5 111v17h9.66l16.34-17z" fill="#698AEC"/><path d="M333.5 111h-10.03l-16.97 17h27z" fill="#4F68B1"/><path d="M358.009 60H343.5v111h14.509V67.206H456.5V60z" fill="#AAA"/><path d="M190.5 95h8V75h-8zm175 0h9V75h-9zm-93 0h8V75h-8zm80 0h8V75h-8zm-150 0h9V75h-9zm23 0h8V75h-8zm24 0h8V75h-8zm-36 0h9V75h-9zm47 0h9V75h-9zm150 0h9V75h-9zm-11 0h9V75h-9zm36 0h8V75h-8zm-13 0h9V75h-9zm-185 0h8V75h-8zm138 0h8V75h-8zm12 0h9V75h-9z" fill="#6982CF"/><path d="M271.976 94.334h8.543V75.666h-8.543v18.668zm-11.527 0h8.546V75.666h-8.546v18.668zm-11.527 0h8.546V75.666h-8.546v18.668zm-11.527 0h8.546V75.666h-8.546v18.668zm-11.527 0h8.546V75.666h-8.546v18.668zm-11.529 0h8.546V75.666h-8.546v18.668zm-11.527 0h8.546V75.666h-8.546v18.668zm-11.371 0h8.39V75.666h-8.39v18.668zM280.519 72H188.5v26h95V72h-2.981zm152.359 22.334h8.656V75.666h-8.656v18.668zm-11.627 0h8.618V75.666h-8.618v18.668zm-11.627 0h8.618V75.666h-8.618v18.668zm-11.622 0h8.621V75.666h-8.621v18.668zm-11.624 0h8.616V75.666h-8.616v18.668zm-11.622 0h8.616V75.666h-8.616v18.668zm-11.627 0h8.618V75.666h-8.618v18.668zm-11.627 0h8.621V75.666h-8.621v18.668zM432.878 72H348.5v26h96V72h-11.622z" fill="#5A5A5A"/><path d="M190.5 130h8v-20h-8zm175 0h9v-20h-9zm-93 0h8v-20h-8zm80 0h8v-20h-8zm-150 0h9v-20h-9zm23 0h8v-20h-8zm24 0h8v-20h-8zm-36 0h9v-20h-9zm47 0h9v-20h-9zm150 0h9v-20h-9zm-11 0h9v-20h-9zm36 0h8v-20h-8zm-13 0h9v-20h-9zm-185 0h8v-20h-8zm138 0h8v-20h-8zm12 0h9v-20h-9z" fill="#6982CF"/><path d="M271.976 130.334h8.543v-18.669h-8.543v18.669zm-11.527 0h8.546v-18.669h-8.546v18.669zm-11.527 0h8.546v-18.669h-8.546v18.669zm-11.527 0h8.546v-18.669h-8.546v18.669zm-11.527 0h8.546v-18.669h-8.546v18.669zm-11.529 0h8.546v-18.669h-8.546v18.669zm-11.527 0h8.546v-18.669h-8.546v18.669zm-11.371 0h8.39v-18.669h-8.39v18.669zM280.519 108H188.5v26h95v-26h-2.981zm152.359 22.334h8.656v-18.669h-8.656v18.669zm-11.627 0h8.618v-18.669h-8.618v18.669zm-11.627 0h8.618v-18.669h-8.618v18.669zm-11.622 0h8.621v-18.669h-8.621v18.669zm-11.624 0h8.616v-18.669h-8.616v18.669zm-11.622 0h8.616v-18.669h-8.616v18.669zm-11.627 0h8.618v-18.669h-8.618v18.669zm-11.627 0h8.621v-18.669h-8.621v18.669zM432.878 108H348.5v26h96v-26h-11.622z" fill="#5A5A5A"/><path d="M348.5 171h25v-25h-25zm38 0h25v-25h-25zm37 0h25v-25h-25z" fill="#9CCE7C"/><path d="M343.5 171h113v-15h-113z" fill="#F4F4F4"/><path d="M412.5 146v13h11v-.829zm-37 0v13h11v-.829zm73 0v13h5v-6.173zm-158-86h-113l7.302 7H290.5z" fill="#AAA"/><text fill="#080808" font-family="LucidaGrande-Bold, Lucida Grande" font-size="18" font-weight="bold" transform="translate(172.5 21)"><tspan x="113.735" y="17">School</tspan></text></g><g filter="url(#G)" transform="translate(478.5)"><path d="M5 12v161h169V96.842l-60.436-26.144V12z" fill="#999"/><g transform="translate(0 1)"><path d="M156.93 110.416c.002-.108.023-.209.023-.319 0-7.101-7.687-12.859-17.16-12.859s-17.157 5.758-17.157 12.859c0 .11.018.211.018.319h-.028v47.828h34.337l-.033-47.828z" fill="#313335"/><mask id="O" fill="#fff"><use xlink:href="#H"/></mask><path d="M87.592 108.192h11.571V97.891H87.592v10.301zm-34.47 0h11.571V97.891H53.122v10.301zm-34.473 0h11.57V97.891h-11.57v10.301zm68.943-16.636h11.571V81.253H87.592v10.302zm-34.47 0h11.571V81.253H53.122v10.302zm-34.473 0h11.57V81.253h-11.57v10.302zm68.943-16.639h11.571V64.616H87.592v10.301zm-34.47 0h11.571V64.616H53.122v10.301zm-34.473 0h11.57V64.616h-11.57v10.301z" mask="url(#O)" fill="#FFF"/><path mask="url(#O)" d="M54.267 82.401h10.427v-1.149H53.122v10.303h1.145zm0-16.637h10.427v-1.149H53.122v10.302h1.145zm34.469 0h10.427v-1.149H87.592v10.302h1.144zm0 16.637h10.427v-1.149H87.592v10.303h1.144zM19.794 65.764H30.22v-1.149H18.649v10.302h1.145zM88.736 99.04h10.427v-1.15H87.592v10.302h1.144zm-34.469 0h10.427v-1.15H53.122v10.302h1.145zM19.794 82.401H30.22v-1.149H18.649v10.303h1.145zm0 16.639H30.22v-1.15H18.649v10.302h1.145z" fill="#666"/><path mask="url(#O)" d="M17.175 126.048h16.593v-8.433H17.175zm22.288 0H56.06v-8.433H39.463zm22.288 0h16.597v-8.433H61.751zm22.292 0h16.595v-8.433H84.043zm-66.868 16.095h16.593v-8.432H17.175zm22.288 0H56.06v-8.432H39.463zm22.288 0h16.597v-8.432H61.751zm22.292 0h16.595v-8.432H84.043zm-66.868 16.095h16.593v-8.432H17.175zm22.288 0H56.06v-8.432H39.463zm22.288 0h16.597v-8.432H61.751zm22.292 0h16.595v-8.432H84.043z" fill="#313335"/></g><g transform="translate(4 12)"><mask id="P" fill="#fff"><use xlink:href="#I"/></mask><path mask="url(#P)" d="M-3.664 43.84h117.585V.089H-3.664z" fill="#9F5E1A"/></g><path d="M0 53.945h118.111V1.225H0z" fill="#666"/><path d="M107.758 27.384c0-.038.007-.075.007-.114 0-2.538-2.752-4.596-6.15-4.596s-6.151 2.058-6.151 4.596c0 .04.006.076.007.114h-.011V42h12.309V27.384h-.011zm-28.365-.114c0-2.538-2.755-4.596-6.151-4.596s-6.15 2.058-6.15 4.596c0 .04.005.076.005.114h-.007V42h12.307V27.384h-.012c.002-.038.009-.075.009-.114zm-28.372 0c0-2.538-2.755-4.596-6.151-4.596s-6.15 2.058-6.15 4.596c0 .04.005.076.006.114h-.012V42h12.312V27.384h-.011c0-.038.006-.075.006-.114zm-28.374 0c0-2.538-2.752-4.596-6.152-4.596-3.395 0-6.149 2.058-6.149 4.596 0 .04.009.076.009.114h-.011V42H22.65V27.384h-.011l.007-.114z" fill="#DF9A4B"/><path d="M11.377 28.418h.012c0-.037-.009-.075-.009-.114 0-2.539 2.754-4.596 6.15-4.596 1.706 0 3.25.519 4.365 1.36-1.044-1.428-3.072-2.395-5.4-2.395-3.396 0-6.15 2.058-6.15 4.596 0 .041.009.076.01.114h-.012V42h1.034V28.418zm28.37 0h.014c0-.037-.006-.075-.006-.114 0-2.539 2.754-4.596 6.15-4.596 1.705 0 3.25.52 4.364 1.36-1.043-1.428-3.071-2.395-5.398-2.395-3.396 0-6.151 2.058-6.151 4.596 0 .041.006.076.007.114h-.013V42h1.034V28.418zm56.748 0h.011c0-.037-.009-.075-.009-.114 0-2.539 2.755-4.596 6.151-4.596 1.706 0 3.25.519 4.364 1.359-1.043-1.427-3.071-2.394-5.397-2.394-3.398 0-6.152 2.058-6.152 4.596 0 .041.007.076.009.114h-.012V42h1.035V28.418zm-28.372 0h.01c0-.037-.006-.075-.006-.114 0-2.539 2.754-4.596 6.149-4.596 1.705 0 3.251.52 4.364 1.36-1.043-1.428-3.069-2.395-5.397-2.395-3.397 0-6.151 2.058-6.151 4.596 0 .041.006.076.006.114h-.009V42h1.034V28.418z" fill="#9F5E1A"/><g transform="translate(125 100)"><mask id="Q" fill="#fff"><use xlink:href="#J"/></mask><path d="M17.169 19.702h13.198v-7.77c0-7.52-6.522-11.281-13.198-11.879v19.649zM.222 11.932v7.77h13.2V.054C6.756.648.222 4.412.222 11.932z" mask="url(#Q)"/></g><text fill="#FFF" font-family="LucidaGrande-Bold, Lucida Grande" font-size="18" font-weight="bold"><tspan x="18.043" y="17.5">Business</tspan></text></g><g transform="translate(16 3.5)"><g fill="#F2D9AC"><path d="M5.592 165.27h130V31.224h-130z"/><path d="M5.592 165.27h130v-26.885h-130z"/></g><g fill="#8CF0FB"><path d="M11.424 64.872H35.92V39.203H11.424z"/><path d="M35.92 64.872H11.424L35.92 39.203z"/></g><path d="M11.424 39.203H35.92v-.734H11.424zm0 26.402H35.92v-.734H11.424z" fill="#E6E6E6"/><g transform="translate(0 .153)"><path d="M36.965 68.05a.64.64 0 0 1-.64.639H11.018a.64.64 0 0 1-.639-.639v-1.958a.64.64 0 0 1 .639-.64h25.307a.64.64 0 0 1 .64.64v1.958z" fill="#603813"/><mask id="R" fill="#fff"><use xlink:href="#K"/></mask><path mask="url(#R)" d="M11.424 38.316H35.92v-1.094H11.424z" fill="#8C6239"/><g fill="#8CF0FB"><path mask="url(#R)" d="M42.704 64.719H67.2V39.05H42.704z"/><path mask="url(#R)" d="M67.2 64.719H42.704L67.2 39.05z"/></g><path mask="url(#R)" d="M42.704 39.049H67.2v-.734H42.704zm0 26.403H67.2v-.733H42.704z" fill="#E6E6E6"/><path d="M68.245 68.05a.64.64 0 0 1-.639.639H42.299a.64.64 0 0 1-.639-.639v-1.958a.64.64 0 0 1 .639-.64h25.307a.64.64 0 0 1 .639.64v1.958z" mask="url(#R)" fill="#603813"/><path mask="url(#R)" d="M42.704 38.316H67.2v-1.094H42.704z" fill="#8C6239"/><g fill="#8CF0FB"><path mask="url(#R)" d="M73.985 64.719h24.496V39.05H73.985z"/><path mask="url(#R)" d="M98.481 64.719H73.985L98.481 39.05z"/></g><path mask="url(#R)" d="M73.985 39.049h24.496v-.734H73.985zm0 26.403h24.496v-.733H73.985z" fill="#E6E6E6"/><path d="M99.526 68.05a.64.64 0 0 1-.639.639H73.579a.64.64 0 0 1-.639-.639v-1.958a.64.64 0 0 1 .639-.64h25.308a.64.64 0 0 1 .639.64v1.958z" mask="url(#R)" fill="#603813"/><path mask="url(#R)" d="M73.985 38.316h24.496v-1.094H73.985z" fill="#8C6239"/><g fill="#8CF0FB"><path mask="url(#R)" d="M105.266 64.719h24.496V39.05h-24.496z"/><path mask="url(#R)" d="M129.762 64.719h-24.496l24.496-25.669z"/></g><path mask="url(#R)" d="M105.266 39.049h24.496v-.734h-24.496zm0 26.403h24.496v-.733h-24.496z" fill="#E6E6E6"/><path d="M130.807 68.05a.64.64 0 0 1-.641.639H104.86a.64.64 0 0 1-.639-.639v-1.958a.64.64 0 0 1 .639-.64h25.306a.64.64 0 0 1 .641.64v1.958z" mask="url(#R)" fill="#603813"/><path mask="url(#R)" d="M105.266 38.316h24.496v-1.094h-24.496z" fill="#8C6239"/><g fill="#8CF0FB"><path mask="url(#R)" d="M11.424 105.677H35.92V80.008H11.424z"/><path mask="url(#R)" d="M35.92 105.677H11.424L35.92 80.008z"/></g><path mask="url(#R)" d="M11.424 80.007H35.92v-.734H11.424zm0 26.403H35.92v-.733H11.424z" fill="#E6E6E6"/><path d="M36.965 109.008a.64.64 0 0 1-.64.639H11.018a.64.64 0 0 1-.639-.639v-1.958a.64.64 0 0 1 .639-.64h25.307a.64.64 0 0 1 .64.64v1.958z" mask="url(#R)" fill="#603813"/><path mask="url(#R)" d="M11.424 79.274H35.92V78.18H11.424z" fill="#8C6239"/><g fill="#8CF0FB"><path mask="url(#R)" d="M42.704 105.677H67.2V80.008H42.704z"/><path mask="url(#R)" d="M67.2 105.677H42.704L67.2 80.008z"/></g><path mask="url(#R)" d="M42.704 80.007H67.2v-.734H42.704zm0 26.403H67.2v-.733H42.704z" fill="#E6E6E6"/><path d="M68.245 109.008a.64.64 0 0 1-.639.639H42.299a.64.64 0 0 1-.639-.639v-1.958a.64.64 0 0 1 .639-.64h25.307a.64.64 0 0 1 .639.64v1.958z" mask="url(#R)" fill="#603813"/><path mask="url(#R)" d="M42.704 79.274H67.2V78.18H42.704z" fill="#8C6239"/><g fill="#8CF0FB"><path mask="url(#R)" d="M73.985 105.677h24.496V80.008H73.985z"/><path mask="url(#R)" d="M98.481 105.677H73.985l24.496-25.669z"/></g><path mask="url(#R)" d="M73.985 80.007h24.496v-.734H73.985zm0 26.403h24.496v-.733H73.985z" fill="#E6E6E6"/><path d="M99.526 109.008a.64.64 0 0 1-.639.639H73.579a.64.64 0 0 1-.639-.639v-1.958a.64.64 0 0 1 .639-.64h25.308a.64.64 0 0 1 .639.64v1.958z" mask="url(#R)" fill="#603813"/><path mask="url(#R)" d="M73.985 79.274h24.496V78.18H73.985z" fill="#8C6239"/><g fill="#8CF0FB"><path mask="url(#R)" d="M105.266 105.677h24.496V80.008h-24.496z"/><path mask="url(#R)" d="M129.762 105.677h-24.496l24.496-25.669z"/></g><path mask="url(#R)" d="M105.266 80.007h24.496v-.734h-24.496zm0 26.403h24.496v-.733h-24.496z" fill="#E6E6E6"/><path d="M130.807 109.008a.64.64 0 0 1-.641.639H104.86a.64.64 0 0 1-.639-.639v-1.958a.64.64 0 0 1 .639-.64h25.306a.64.64 0 0 1 .641.64v1.958z" mask="url(#R)" fill="#603813"/><path mask="url(#R)" d="M105.266 79.274h24.496V78.18h-24.496z" fill="#8C6239"/><g fill="#8CF0FB"><path mask="url(#R)" d="M11.424 146.635H35.92v-25.669H11.424z"/><path mask="url(#R)" d="M35.92 146.635H11.424l24.496-25.669z"/></g><path mask="url(#R)" d="M11.424 120.965H35.92v-.734H11.424zm0 26.403H35.92v-.733H11.424z" fill="#E6E6E6"/><path d="M36.965 149.966a.64.64 0 0 1-.64.639H11.018a.64.64 0 0 1-.639-.639v-1.958a.64.64 0 0 1 .639-.64h25.307a.64.64 0 0 1 .64.64v1.958z" mask="url(#R)" fill="#603813"/><path mask="url(#R)" d="M11.424 120.232H35.92v-1.094H11.424z" fill="#8C6239"/><g fill="#8CF0FB"><path mask="url(#R)" d="M73.985 146.635h24.496v-25.669H73.985z"/><path mask="url(#R)" d="M98.481 146.635H73.985l24.496-25.669z"/></g><path mask="url(#R)" d="M73.985 120.965h24.496v-.734H73.985zm0 26.403h24.496v-.733H73.985z" fill="#E6E6E6"/><path d="M99.526 149.966a.64.64 0 0 1-.639.639H73.579a.64.64 0 0 1-.639-.639v-1.958a.64.64 0 0 1 .639-.64h25.308a.64.64 0 0 1 .639.64v1.958z" mask="url(#R)" fill="#603813"/><path mask="url(#R)" d="M73.985 120.232h24.496v-1.094H73.985z" fill="#8C6239"/><g fill="#8CF0FB"><path mask="url(#R)" d="M105.266 146.635h24.496v-25.669h-24.496z"/><path mask="url(#R)" d="M129.762 146.635h-24.496l24.496-25.669z"/></g><path mask="url(#R)" d="M105.266 120.965h24.496v-.734h-24.496zm0 26.403h24.496v-.733h-24.496z" fill="#E6E6E6"/><path d="M130.807 149.966a.64.64 0 0 1-.641.639H104.86a.64.64 0 0 1-.639-.639v-1.958a.64.64 0 0 1 .639-.64h25.306a.64.64 0 0 1 .641.64v1.958z" mask="url(#R)" fill="#603813"/><path mask="url(#R)" d="M105.266 120.232h24.496v-1.094h-24.496z" fill="#8C6239"/><path d="M141.184 168a1 1 0 0 1-1 1H1a1 1 0 0 1-1-1v-5.766a1 1 0 0 1 1-1h139.184a1 1 0 0 1 1 1V168z" mask="url(#R)" fill="#42210B"/><path d="M43.274 167.218a.7.7 0 0 0 .704.702h21.947c.39 0 .706-.313.706-.702v-47.376c0-.389-.316-.704-.706-.704H43.978c-.389 0-.704.315-.704.704v47.376z" mask="url(#R)" fill="#603813"/><path d="M43.787 166.464c0 .369.301.673.672.673h20.986c.371 0 .673-.304.673-.673v-45.866c0-.372-.302-.674-.673-.674H44.459c-.371 0-.672.302-.672.674v45.866z" mask="url(#R)" fill="#E6E6E6"/><path d="M45.695 165.117v-42.5c0-.372.3-.674.672-.674h17.169c.372 0 .675.302.675.674v42.5H45.695z" mask="url(#R)" fill="#8C6239"/><path d="M47.209 143.531c0 .772.629 1.4 1.402 1.4a1.4 1.4 0 0 0 1.403-1.4c0-.776-.627-1.405-1.403-1.405s-1.402.629-1.402 1.405" mask="url(#R)" fill="#F2E7EB"/><path d="M68.251 165.117H41.654c-.372 0-.673.451-.673 1.012V169h27.944v-2.871c0-.561-.301-1.012-.674-1.012" mask="url(#R)" fill="#603813"/><path mask="url(#R)" d="M5.41 31.071h130.364v-5.13H5.41z" fill="#8C6239"/><path mask="url(#R)" d="M141.184 27.374H0L10 .847h121.184z" fill="#42210B"/></g><text fill="#FFF" font-family="LucidaGrande-Bold, Lucida Grande" font-size="18" font-weight="bold"><tspan x="25.701" y="20">Company</tspan></text></g></g></svg>