<svg xmlns="http://www.w3.org/2000/svg" xmlns:xlink="http://www.w3.org/1999/xlink" width="633" height="431"><defs><filter id="A" width="105.6%" height="106.7%" x="-2.8%" y="-2.4%" filterUnits="objectBoundingBox"><feOffset dy="2" in="SourceAlpha" result="A"/><feGaussianBlur in="A" result="B" stdDeviation="2"/><feColorMatrix in="B" result="C" values="0 0 0 0 0 0 0 0 0 0 0 0 0 0 0 0 0 0 0.5 0"/><feMerge><feMergeNode in="C"/><feMergeNode in="SourceGraphic"/></feMerge><filter/></filter><filter id="B" width="104.7%" height="106.7%" x="-2.4%" y="-2.4%" filterUnits="objectBoundingBox"><feOffset dy="2" in="SourceAlpha" result="A"/><feGaussianBlur in="A" result="B" stdDeviation="2"/><feColorMatrix in="B" result="C" values="0 0 0 0 0 0 0 0 0 0 0 0 0 0 0 0 0 0 0.5 0"/><feMerge><feMergeNode in="C"/><feMergeNode in="SourceGraphic"/></feMerge><filter/></filter><path id="C" d="M0 207.5h296.408V.791H0z"/><filter id="D" width="108.7%" height="106.6%" x="-4.3%" y="-2.3%" filterUnits="objectBoundingBox"><feOffset dy="2" in="SourceAlpha" result="A"/><feGaussianBlur in="A" result="B" stdDeviation="2"/><feColorMatrix in="B" result="C" values="0 0 0 0 0 0 0 0 0 0 0 0 0 0 0 0 0 0 0.5 0"/><feMerge><feMergeNode in="C"/><feMergeNode in="SourceGraphic"/></feMerge><filter/></filter><path id="E" d="M0 212h160.665V.187H0z"/><path id="F" d="M86.201 59.974l2.383-4.728h.251l2.383 4.728h-5.017zm-11.343 0h-5.015l2.382-4.728h.251l2.382 4.728zm16.648-.065l-2.351-4.663h2.168v-1.891h-9.765v-7.659h-2.119v7.659h-9.766v1.891h2.231l-2.349 4.663c-.035.072-.007.158.063.191.019.011.04.014.059.016.027 1.453 1.21 2.625 2.673 2.625s2.646-1.172 2.673-2.625a.15.15 0 0 0 .061-.016c.069-.033.098-.12.062-.191l-2.349-4.663h6.642v17.305h2.119V55.247h6.706l-2.351 4.663c-.035.072-.007.158.064.191.018.011.039.014.058.016.027 1.453 1.211 2.625 2.674 2.625a2.67 2.67 0 0 0 2.672-2.625c.021-.002.041-.005.061-.016.07-.033.098-.12.064-.191z"/><filter id="G" width="118.2%" height="114.9%" x="-9.1%" y="-3.7%" filterUnits="objectBoundingBox"><feOffset dy="1" in="SourceAlpha" result="A"/><feGaussianBlur in="A" result="B" stdDeviation=".5"/><feColorMatrix in="B" values="0 0 0 0 0 0 0 0 0 0 0 0 0 0 0 0 0 0 0.5 0"/><filter/></filter><filter id="H" width="106.9%" height="109.5%" x="-3.5%" y="-3.4%" filterUnits="objectBoundingBox"><feOffset dy="2" in="SourceAlpha" result="A"/><feGaussianBlur in="A" result="B" stdDeviation="2"/><feColorMatrix in="B" result="C" values="0 0 0 0 0 0 0 0 0 0 0 0 0 0 0 0 0 0 0.5 0"/><feMerge><feMergeNode in="C"/><feMergeNode in="SourceGraphic"/></feMerge><filter/></filter><path id="I" d="M0 148h201.11V.237H0z"/><filter id="J" width="106.5%" height="108.5%" x="-3.3%" y="-3%" filterUnits="objectBoundingBox"><feOffset dy="2" in="SourceAlpha" result="A"/><feGaussianBlur in="A" result="B" stdDeviation="2"/><feColorMatrix in="B" result="C" values="0 0 0 0 0 0 0 0 0 0 0 0 0 0 0 0 0 0 0.5 0"/><feMerge><feMergeNode in="C"/><feMergeNode in="SourceGraphic"/></feMerge><filter/></filter><path id="K" d="M0 165h213.971V.981H0z"/><path id="L" d="M119.991 29.684c0 7.165-5.821 12.972-13.006 12.972S93.98 36.849 93.98 29.684s5.824-12.972 13.005-12.972 13.006 5.807 13.006 12.972z"/><filter id="M" width="157.7%" height="157.8%" x="-28.8%" y="-21.2%" filterUnits="objectBoundingBox"><feMorphology in="SourceAlpha" operator="dilate" radius=".5" result="A"/><feOffset dy="2" in="A" result="A"/><feMorphology in="SourceAlpha" radius="1" result="B"/><feOffset dy="2" in="B" result="B"/><feComposite in="A" in2="B" operator="out" result="A"/><feGaussianBlur in="A" result="B" stdDeviation="2"/><feColorMatrix in="B" values="0 0 0 0 0 0 0 0 0 0 0 0 0 0 0 0 0 0 0.5 0"/><filter/></filter><path id="N" d="M0 165h213.971V.981H0z"/></defs><g transform="translate(4 2)" fill="none" fill-rule="evenodd"><g filter="url(#A)"><path d="M522 427h103v-84H522z" fill="#AAA"/><path d="M385 427h136V252H385z" fill="#E3E3E3"/><path d="M385 427h36l-36-34z" fill="#979487"/><path d="M385 388v5.251L421.805 427H532l-42.532-39z" fill="#716F65"/><path d="M490 388l42.746 39H625v-39z" fill="#979487"/><path d="M599.695 313h-.395l-2.3 27h5z" fill="#9D9D9D"/><path d="M593 343h6v-4h-6z" fill="#E3E3E3"/><path d="M599 343h6v-4h-6z" fill="#AAA"/><path d="M456 429h22v-27h-22zm83-1h68v-34h-68z" fill="#3A3A3A"/><path d="M546.267 394H539v33h7.267v-26.336H607V394z" fill="#2C2C2C"/><path d="M534 374h5v-6h-5zm7 0h5v-6h-5zm-7-9h5v-6h-5zm7 0h5v-6h-5z" fill="#747474"/><path d="M540.462 375.097h4.613v-6.645h-4.613v6.645zm-6.541 0h4.616v-6.645h-4.616v6.645zm-.002-8.547h4.616v-6.648h-4.616v6.648zm6.542 0h4.613v-6.648h-4.613v6.648zM532 358v19h15v-19h-15z" fill="#FFF"/><path d="M549.79 371H530v5.59l4.916 4.41H557v-3.534z" fill="#727272"/><path d="M530 376h20v-5h-20z" fill="#F4F4F4"/><path d="M597 374h5v-6h-5zm6 0h5v-6h-5zm-6-9h5v-6h-5zm6 0h5v-6h-5z" fill="#747474"/><path d="M602.461 375.097h4.619v-6.645h-4.619v6.645zm-6.541 0h4.619v-6.645h-4.619v6.645zm0-8.547h4.619v-6.648h-4.619v6.648zm6.541 0h4.619v-6.648h-4.619v6.648zM594 358v19h15v-19h-15z" fill="#FFF"/><path d="M611.791 371H592v5.59l4.918 4.41H619v-3.534z" fill="#727272"/><path d="M592 376h20v-5h-20z" fill="#F4F4F4"/><path d="M565 374h5v-6h-5zm7 0h5v-6h-5zm-7-9h5v-6h-5zm7 0h5v-6h-5z" fill="#747474"/><path d="M571.459 375.097h4.62v-6.645h-4.62v6.645zm-6.538 0h4.62v-6.645h-4.62v6.645zm0-8.547h4.62v-6.648h-4.62v6.648zm6.538 0h4.62v-6.648h-4.62v6.648zM563 358v19h15v-19h-15z" fill="#FFF"/><path d="M581.789 371H562v5.59l4.913 4.41H589v-3.534z" fill="#727272"/><path d="M562 376h20v-5h-20z" fill="#F4F4F4"/><path d="M402 305h5v-6h-5zm7 0h5v-6h-5zm-7-10h5v-6h-5zm7 0h5v-6h-5z" fill="#747474"/><path d="M408.462 304.1h4.613v-6.647h-4.613v6.647zm-6.539 0h4.615v-6.647h-4.615v6.647zm0-8.548h4.615V288.9h-4.615v6.651zm6.539 0h4.613V288.9h-4.613v6.651zM400 287v19h15v-19h-15z" fill="#FFF"/><path d="M417.791 301H398v5.589l4.914 4.411H425v-3.535z" fill="#AAA"/><path d="M398 306h20v-5h-20z" fill="#F4F4F4"/><path d="M464 305h5v-6h-5zm7 0h5v-6h-5zm-7-10h5v-6h-5zm7 0h5v-6h-5z" fill="#747474"/><path d="M470.463 304.1h4.618v-6.647h-4.618v6.647zm-6.54 0h4.618v-6.647h-4.618v6.647zm0-8.548h4.618V288.9h-4.618v6.651zm6.54 0h4.618V288.9h-4.618v6.651zM462 287v19h15v-19h-15z" fill="#FFF"/><path d="M479.791 301H460v5.589l4.92 4.411H487v-3.535z" fill="#AAA"/><path d="M460 306h20v-5h-20z" fill="#F4F4F4"/><path d="M433 305h5v-6h-5zm6 0h5v-6h-5zm-6-10h5v-6h-5zm6 0h5v-6h-5z" fill="#747474"/><path d="M439.458 304.1h4.617v-6.647h-4.617v6.647zm-6.536 0h4.619v-6.647h-4.619v6.647zm0-8.548h4.619V288.9h-4.619v6.651zm6.536 0h4.617V288.9h-4.617v6.651zM431 287v19h15v-19h-15z" fill="#FFF"/><path d="M448.791 301H429v5.589l4.92 4.411H456v-3.535z" fill="#AAA"/><path d="M429 306h20v-5h-20z" fill="#F4F4F4"/><path d="M495 305h5v-6h-5zm7 0h5v-6h-5zm-7-10h5v-6h-5zm7 0h5v-6h-5z" fill="#747474"/><path d="M502.466 304.1h4.616v-6.647h-4.616v6.647zm-6.539 0h4.613v-6.647h-4.613v6.647zm-.002-8.548h4.613V288.9h-4.613v6.651zm6.541 0h4.616V288.9h-4.616v6.651zM494 287v19h15v-19h-15z" fill="#FFF"/><path d="M510.791 301H491v5.589l4.914 4.411H518v-3.535z" fill="#AAA"/><path d="M491 306h20v-5h-20z" fill="#F4F4F4"/><path d="M402 339h5v-6h-5zm7 0h5v-6h-5zm-7-10h5v-6h-5zm7 0h5v-6h-5z" fill="#747474"/><path d="M408.462 338.096h4.613v-6.646h-4.613v6.646zm-6.539 0h4.615v-6.646h-4.615v6.646zm0-8.545h4.615v-6.65h-4.615v6.65zm6.539 0h4.613v-6.65h-4.613v6.65zM400 321v19h15v-19h-15z" fill="#FFF"/><path d="M417.791 335H398v5.588l4.914 4.412H425v-3.534z" fill="#AAA"/><path d="M398 340h20v-5h-20z" fill="#F4F4F4"/><path d="M495 339h5v-6h-5zm7 0h5v-6h-5zm-7-10h5v-6h-5zm7 0h5v-6h-5z" fill="#747474"/><path d="M502.466 338.096h4.616v-6.646h-4.616v6.646zm-6.539 0h4.613v-6.646h-4.613v6.646zm-.002-8.545h4.613v-6.65h-4.613v6.65zm6.541 0h4.616v-6.65h-4.616v6.65zM494 321v19h15v-19h-15z" fill="#FFF"/><path d="M510.791 335H491v5.588l4.914 4.412H518v-3.534z" fill="#AAA"/><path d="M491 340h20v-5h-20z" fill="#F4F4F4"/><path d="M464 339h5v-6h-5zm7 0h5v-6h-5zm-7-10h5v-6h-5zm7 0h5v-6h-5z" fill="#747474"/><path d="M470.463 338.096h4.618v-6.646h-4.618v6.646zm-6.54 0h4.618v-6.646h-4.618v6.646zm0-8.545h4.618v-6.65h-4.618v6.65zm6.54 0h4.618v-6.65h-4.618v6.65zM462 321v19h15v-19h-15z" fill="#FFF"/><path d="M479.791 335H460v5.588l4.92 4.412H487v-3.534z" fill="#AAA"/><path d="M460 340h20v-5h-20z" fill="#F4F4F4"/><path d="M433 339h5v-6h-5zm6 0h5v-6h-5zm-6-10h5v-6h-5zm6 0h5v-6h-5z" fill="#747474"/><path d="M439.458 338.096h4.617v-6.646h-4.617v6.646zm-6.536 0h4.619v-6.646h-4.619v6.646zm0-8.545h4.619v-6.65h-4.619v6.65zm6.536 0h4.617v-6.65h-4.617v6.65zM431 321v19h15v-19h-15z" fill="#FFF"/><path d="M448.791 335H429v5.588l4.92 4.412H456v-3.534z" fill="#AAA"/><path d="M429 340h20v-5h-20z" fill="#F4F4F4"/><path d="M402 374h5v-6h-5zm7 0h5v-6h-5zm-7-9h5v-6h-5zm7 0h5v-6h-5z" fill="#747474"/><path d="M408.462 375.097h4.613v-6.645h-4.613v6.645zm-6.539 0h4.615v-6.645h-4.615v6.645zm0-8.547h4.615v-6.648h-4.615v6.648zm6.539 0h4.613v-6.648h-4.613v6.648zM400 358v19h15v-19h-15z" fill="#FFF"/><path d="M417.791 371H398v5.591l4.914 4.409H425v-3.533z" fill="#AAA"/><path d="M398 376h20v-5h-20z" fill="#F4F4F4"/><path d="M495 374h5v-6h-5zm7 0h5v-6h-5zm-7-9h5v-6h-5zm7 0h5v-6h-5z" fill="#747474"/><path d="M502.466 375.097h4.616v-6.645h-4.616v6.645zm-6.539 0h4.613v-6.645h-4.613v6.645zm-.002-8.547h4.613v-6.648h-4.613v6.648zm6.541 0h4.616v-6.648h-4.616v6.648zM494 358v19h15v-19h-15z" fill="#FFF"/><path d="M510.791 371H491v5.591l4.914 4.409H518v-3.533z" fill="#AAA"/><path d="M491 376h20v-5h-20z" fill="#F4F4F4"/><path d="M464 374h5v-6h-5zm7 0h5v-6h-5zm-7-9h5v-6h-5zm7 0h5v-6h-5z" fill="#747474"/><path d="M470.463 375.097h4.618v-6.645h-4.618v6.645zm-6.54 0h4.618v-6.645h-4.618v6.645zm0-8.547h4.618v-6.648h-4.618v6.648zm6.54 0h4.618v-6.648h-4.618v6.648zM462 358v19h15v-19h-15z" fill="#FFF"/><path d="M479.791 371H460v5.591l4.92 4.409H487v-3.533z" fill="#AAA"/><path d="M460 376h20v-5h-20z" fill="#F4F4F4"/><path d="M433 374h5v-6h-5zm6 0h5v-6h-5zm-6-9h5v-6h-5zm6 0h5v-6h-5z" fill="#747474"/><path d="M439.458 375.097h4.617v-6.645h-4.617v6.645zm-6.536 0h4.619v-6.645h-4.619v6.645zm0-8.547h4.619v-6.648h-4.619v6.648zm6.536 0h4.617v-6.648h-4.617v6.648zM431 358v19h15v-19h-15z" fill="#FFF"/><path d="M448.791 371H429v5.591l4.92 4.409H456v-3.533z" fill="#AAA"/><path d="M429 376h20v-5h-20z" fill="#F4F4F4"/><path d="M385 393h104v-5H385z" fill="#9CCE7C"/><path d="M391 399v29h2.871v-26.249H394L391.126 399z" fill="#FFF"/><path d="M447.037 399H391l2.967 2.751h53.07V428H450v-29z" fill="#BFBFBF"/><g fill="#C3D0F7"><path d="M424 427l.008.006L449 427zm-15.992 0l-.008.006 14.992-.006z"/><path d="M408 427.5h15l-7.498-6z"/></g><path d="M434.299 402L414 421.666l7.569 7.334H446v-27z" fill="#B1C0E8"/><path d="M395 427v.006l12-.006z" fill="#DBE3FA"/><path d="M395 402l20.499 19L436 402z" fill="#C3D0F7"/><path d="M394 401.5v27h13.846l8.154-7.334-21.858-19.666z" fill="#DBE3FA"/><path d="M446 428h9v-12h-9z" fill="#E7E7E7"/><path d="M521 281H390.719L385 276h136z" fill="#AAA"/><path d="M407 252h11v-33h-11z" fill="#9CCE7C"/><path d="M419 252h11v-33h-11z" fill="#759B5D"/><path d="M468.924 231L447 243.114V253h18.554v-11l11.513 11H488v-22z" fill="#E3E3E3"/><path d="M467 253h11l-11-11z" fill="#AAA"/><path d="M473 253h11v-17h-11z" fill="#747474"/><path d="M460 253h7v-11h-7z" fill="#F4F4F4"/><path d="M419 254h26v-9h-26zm67 0h26v-9h-26zm-34 0h26v-9h-26z" fill="#CCC"/><path d="M488 259l8.843 9H531v-9z" fill="#FFF"/><path d="M497 268l-8.897-9H456v9z" fill="#BFBFBF"/><path d="M376 268h80v-9h-80z" fill="#FFF"/><path d="M505.797 278H531v-9h-34zM376 278h80v-9h-80z" fill="#9CCE7C"/><path d="M456 269v9h51l-9.088-9z" fill="#759B5D"/><path d="M424 278h62v-22h-62z" fill="#5C5C5C"/><path d="M427.24 263.598c.377-.059.764-1.067 1.13-1.067l1.124 1.067v4.109h3.693v-4.109c.376-.059.759-1.067 1.125-1.067l1.124 1.067v10.479a7.23 7.23 0 0 1-1.117.09c-.377 0-.756-.029-1.132-.09l-1.228-.98 1.228-3.552h-3.693v4.532a7.28 7.28 0 0 1-1.119.09 7.14 7.14 0 0 1-1.135-.09l-1.122-1.066 1.122-9.413zm13.699 9.08c.573 0 .987-.202 1.233-.606s.376-.979.376-1.74-.124-1.338-.376-1.742-.66-.604-1.233-.604c-.564 0-.967.202-1.217.604s-.376.983-.376 1.742.126 1.341.376 1.74.653.606 1.217.606m0 1.579c-.642 0-1.202-.103-1.674-.303s-1.831-1.184-2.305-1.897c-.263-.39.577.297.413-.177-.155-.476-.235-.99-.235-1.548s.08-1.072.235-1.558c.163-.486.4-.908.709-1.262s.706-.634 1.183-.837 1.032-.306 1.674-.306.586-.707 1.068-.503 1.498 1.292 1.811 1.647c.32.354.554.775.707 1.262s.23 1.005.23 1.558-.078 1.072-.23 1.548-.387.89-.707 1.244c-.314.356-.714.631-1.192.83s-1.044.303-1.687.303m7.065-3.456c-1.197-.452-2.143-1.456-2.463-1.763s.305-.54.305-1.151c0-.738.612-.476 1.171-.892.552-.419 1.313-.626 2.272-.626.402 0 .853-.729 1.24-.661l1.122 1.067c-.02.255-.074.516-.15.79a4.04 4.04 0 0 1-.297.713c-.24-.098-.511-.184-.81-.256a4.03 4.03 0 0 0-.934-.109c-.345 0-.616.053-.81.154a.51.51 0 0 0-.292.489c0 .211.069.362.206.451s.335.169.593.249l.871.247a4.38 4.38 0 0 1 .776.284 2.15 2.15 0 0 1 .591.414c.163.167.287.371.382.614s.136.539.136.889c0 .36-.077.696-.237 1.008s-.387.58-.689.81-.666.409-1.096.536-.913.2-1.455.2c-.245 0-.469-.009-.675-.023a5.91 5.91 0 0 1-.591-.074 7.33 7.33 0 0 1-.559-.123c-.185-.05-.382-.108-.595-.189l-1.122-1.07c.077-.266 1.444-.252 1.566-.507.335.129.653.224.954.285a4.39 4.39 0 0 0 .944.096c.14 0 .296-.009.464-.036s.327-.067.469-.132.265-.146.363-.247.144-.234.144-.402c0-.231-.074-.401-.224-.5-.145-.104-.35-.196-.616-.272l-.952-.26zm7.645 1.672a3.41 3.41 0 0 0 .951.12c.635 0 1.119-.194 1.457-.584s.505-.977.505-1.765c0-.302-.023-.58-.077-.836s-.137-.48-.258-.664-.279-.331-.469-.438-.418-.16-.696-.16c-.256 0-.47.045-.652.14a1.14 1.14 0 0 0-.436.379c-.116.157-.193.345-.245.559a2.89 2.89 0 0 0-.08.687v2.562zm-2.174-5.943a3.37 3.37 0 0 1 .421-.061c.14-.008.253.283.425.283.286 0 .617-.267.918-.208.028.048.056.12.082.211s.809.121.998.006.399-.209.635-.284.497-.109.782-.109c.436 0 .278-.708.653-.538.653.291 1.299 1.163 1.583 1.476.284.319.508.712.668 1.189.154.475.238 1.038.238 1.69 0 .634-.1 1.199-.296 1.701s-.472.924-.84 1.272-.817.62-1.349.81-1.135.286-1.808.286a6.17 6.17 0 0 1-.516-.022l-.421-.053v3.352a6.89 6.89 0 0 1-.559.061l-.528.012a9.95 9.95 0 0 1-.526-.012 6.81 6.81 0 0 1-.562-.061l-1.122-1.067 1.122-9.935zm9.21-1.256l-1.124-1.069c0-.311 1.063-.545 1.124-.882.17-.029.361-.053.56-.068s-.059-.291.105-.291c.173 0 .247-.726.451-.708l1.12 1.067c.031.168.049.328.064.488l.013.49-.013.479a4.97 4.97 0 0 1-.064.496 4.03 4.03 0 0 1-.559.061l-.557.014c-.168 0-.35-.004-.554-.014s-.397-.028-.567-.061zm.319 2.843h-1.026c-.028-.126.216-.291.203-.435-.02-.138.211-.214.211-.339 0-.261-.47-.548-.413-.8l2.034-1.067 1.124 1.067v7.534a6.52 6.52 0 0 1-1.068.09 6.57 6.57 0 0 1-1.063-.09l-1.122-1.067 1.122-4.893zm4.492 0h-.998l-.077-.291 2.097-4.554 1.12 1.069v2.202l.732-1.067 1.122 1.067c.033.145.052.277.064.394a3.78 3.78 0 0 1 .015.365 4.42 4.42 0 0 1-.015.395c-.011.124-.031.266-.064.421h-1.854v2.958c0 .303.028.545.08.729s.124.331.221.438.438-.865.585-.892l1.124 1.069c.073.184.122.377.152.575s.051.376.051.532c0 .107-.005.197-.011.269s-.013.145-.021.213c-.47.105-.957.16-1.455.16-1.744 0-2.919-1.423-3.409-1.836s.542.129.542-.803v-3.411zm9.604 2.508a4.59 4.59 0 0 0-.395-.05c-.142-.017-.268-.026-.382-.026-.503 0-.897.087-1.186.256-.297.172-.439.444-.439.823 0 .256.056.451.168.584a1.03 1.03 0 0 0 .405.3 1.83 1.83 0 0 0 .508.115c.178.016.335.023.469.023.149 0 .305-.011.457-.037l.395-.065v-1.923zm0-1.504c0-.231-.034-.419-.118-.565s-.196-.261-.338-.343a1.41 1.41 0 0 0-.528-.165c-.212-.034-.446-.047-.699-.047-.552 0-1.142.103-1.762.306l-1.122-1.069c-.073-.221.694-.138.694-.448.448-.146.898-.251 1.346-.321s.869-.1 1.261-.1c1.058 0 .859-.69 1.478-.239 1.183.864 1.904 2.231 1.904 3.297v4.375a13.34 13.34 0 0 1-1.302.308 9.53 9.53 0 0 1-1.735.146c-.519 0-.995-.043-1.429-.132s-.809-.233-1.117-.438-1.408-1.142-1.573-1.462.599-.039.599-.505.105-.861.315-1.175a2.37 2.37 0 0 1 .809-.758c.333-.189.701-.323 1.111-.408s.817-.123 1.225-.123a11.98 11.98 0 0 1 .98.043v-.177zm3.988-5.697c.367-.059.679-1.067 1.039-1.067l1.119 1.067v7.652c0 .301.02.544.054.729s.26-.42.358-.428 1.031 1.088 1.124 1.069c.111.396.167.786.167 1.168v.209c0 .063-.01.132-.029.211-.165.046-.359.083-.591.103l-.634.028c-1.075 0-2.475-.766-3.108-1.776-.327-.523.222-1.456.222-2.391l.281-6.576z" fill="#454545"/><path d="M426.117 262.529a7.28 7.28 0 0 1 1.119-.088 7.54 7.54 0 0 1 1.135.088v4.11h3.693v-4.11c.376-.059.75-.088 1.117-.088a7.48 7.48 0 0 1 1.132.088v10.48a7.37 7.37 0 0 1-1.119.087 7.3 7.3 0 0 1-1.13-.087v-4.532h-3.693v4.532c-.389.059-.763.087-1.119.087-.379 0-.756-.028-1.135-.087v-10.48zm13.699 9.08c.573 0 .987-.202 1.233-.606.252-.397.374-.98.374-1.74s-.122-1.338-.374-1.74-.66-.608-1.233-.608c-.564 0-.969.204-1.217.608s-.376.982-.376 1.74.126 1.342.376 1.74c.248.404.653.606 1.217.606m0 1.575c-.642 0-1.204-.101-1.674-.3s-.872-.474-1.181-.83a3.67 3.67 0 0 1-.709-1.248c-.157-.473-.238-.99-.238-1.544a5.04 5.04 0 0 1 .238-1.559 3.62 3.62 0 0 1 .709-1.263c.309-.353.706-.632 1.181-.837s1.032-.306 1.674-.306 1.205.101 1.687.306.879.485 1.192.837a3.31 3.31 0 0 1 .707 1.263 5.19 5.19 0 0 1 .232 1.559c0 .555-.08 1.072-.232 1.544s-.387.892-.707 1.248c-.314.355-.714.629-1.192.83s-1.04.3-1.687.3m7.065-3.454c-.573-.158-1.019-.387-1.339-.693s-.483-.764-.483-1.379c0-.737.278-1.315.836-1.734s1.313-.626 2.274-.626a7.04 7.04 0 0 1 1.179.101 8.69 8.69 0 0 1 1.181.308 3.97 3.97 0 0 1-.154.788c-.083.275-.18.51-.292.715a6.09 6.09 0 0 0-.81-.256c-.297-.072-.609-.11-.936-.11-.346 0-.616.054-.809.154a.51.51 0 0 0-.292.491c0 .213.069.362.204.449s.333.172.591.25l.872.247a4.27 4.27 0 0 1 .776.288c.23.109.423.244.59.412s.289.372.384.612.136.536.136.889c0 .359-.077.696-.237 1.007a2.36 2.36 0 0 1-.689.81c-.301.227-.666.407-1.096.538a4.94 4.94 0 0 1-1.455.197c-.245 0-.469-.006-.675-.021s-.402-.039-.591-.073-.374-.075-.559-.125a5.71 5.71 0 0 1-.595-.189c.018-.264.069-.528.144-.794a4.83 4.83 0 0 1 .301-.78c.335.127.653.222.956.284a4.53 4.53 0 0 0 .944.093 3.15 3.15 0 0 0 .466-.034 1.82 1.82 0 0 0 .467-.132c.142-.062.263-.145.361-.249s.145-.236.145-.401c0-.229-.075-.402-.222-.503s-.354-.189-.619-.27l-.952-.26zm7.648 1.674c.274.079.593.12.949.12.632 0 1.121-.194 1.455-.584s.505-.978.505-1.765c0-.3-.023-.58-.077-.839s-.136-.477-.258-.661-.279-.333-.467-.438-.423-.159-.697-.159c-.258 0-.474.043-.652.137s-.322.219-.436.379a1.6 1.6 0 0 0-.245.559c-.054.214-.077.444-.077.688v2.562zm-2.176-5.944a3.22 3.22 0 0 1 .42-.061l.47-.012c.281 0 .573.029.872.088.029.047.056.12.083.21l.075.3a3.88 3.88 0 0 1 .062.313l.039.255c.093-.156.203-.31.338-.458s.294-.286.482-.402.397-.21.635-.283a2.61 2.61 0 0 1 .782-.11c.436 0 .851.078 1.233.234s.715.39 1.005.706a3.32 3.32 0 0 1 .666 1.188c.157.477.235 1.038.235 1.692 0 .632-.096 1.2-.289 1.698a3.49 3.49 0 0 1-.843 1.272c-.372.354-.817.62-1.348.811s-1.137.285-1.81.285c-.172 0-.346-.006-.516-.022l-.418-.051v3.353a6.88 6.88 0 0 1-.562.059l-.526.014c-.176 0-.353-.006-.529-.014s-.364-.031-.559-.059V265.46zm9.207-1.257a5.37 5.37 0 0 1-.09-.976 5.56 5.56 0 0 1 .09-.975c.171-.028.363-.054.564-.066l.541-.022c.175 0 .361.008.565.022a5.74 5.74 0 0 1 .57.066c.029.165.049.328.062.488l.013.486-.013.481a4.93 4.93 0 0 1-.062.494c-.173.034-.363.051-.56.061l-.557.014a12.33 12.33 0 0 1-.554-.014c-.204-.009-.397-.026-.568-.061zm.32 2.843h-1.026c-.028-.125-.054-.258-.065-.402-.016-.137-.025-.272-.025-.399 0-.261.029-.519.09-.771h3.157v7.536c-.364.059-.722.087-1.068.087-.338 0-.693-.028-1.063-.087v-5.963zm4.492 0h-.995l-.08-.291 2.87-3.485h.35v2.203h1.852a3.2 3.2 0 0 1 .064.393 3.76 3.76 0 0 1 .015.364 4.39 4.39 0 0 1-.015.395c-.011.126-.031.267-.064.421h-1.852v2.96c0 .303.026.545.075.732s.127.33.224.435a.73.73 0 0 0 .361.217c.142.041.312.061.503.061a2.96 2.96 0 0 0 .457-.038l.387-.063c.073.183.122.376.155.575s.044.376.044.53l-.008.269-.021.213c-.47.105-.957.16-1.455.16-.928 0-1.642-.207-2.132-.62s-.735-1.086-.735-2.019v-3.412zm9.604 2.508a4.74 4.74 0 0 0-.395-.048c-.144-.017-.271-.026-.382-.026-.501 0-.897.085-1.189.256s-.436.444-.436.824c0 .253.056.45.168.584s.248.235.408.298a1.7 1.7 0 0 0 .505.117c.178.016.335.021.466.021a2.87 2.87 0 0 0 .461-.036l.395-.068v-1.922zm0-1.501c0-.235-.034-.421-.118-.567a.91.91 0 0 0-.34-.347c-.142-.079-.32-.137-.526-.163-.211-.033-.444-.045-.699-.045-.552 0-1.142.101-1.761.306a3.72 3.72 0 0 1-.322-.714c-.075-.224-.108-.493-.108-.803.448-.143.898-.25 1.348-.322a8.78 8.78 0 0 1 1.259-.1c1.058 0 1.89.244 2.489.727s.893 1.265.893 2.333v4.375c-.356.106-.791.208-1.302.306s-1.088.145-1.733.145a7.31 7.31 0 0 1-1.431-.129c-.431-.09-.805-.236-1.117-.439a2.09 2.09 0 0 1-.72-.787c-.17-.32-.255-.714-.255-1.182s.105-.859.317-1.173a2.32 2.32 0 0 1 .81-.753c.332-.192.701-.328 1.112-.41.405-.084.818-.125 1.222-.125.299 0 .626.016.98.042v-.174zm3.988-5.699c.368-.061.732-.09 1.086-.09s.709.03 1.075.09v7.652c0 .302.016.544.054.732.031.184.091.325.168.426a.57.57 0 0 0 .299.213c.122.041.278.059.462.059.08 0 .168-.005.265-.014s.191-.028.284-.045c.111.398.167 1.313.167 1.376s-.01.132-.029.211c-.163.05-.359.085-.591.104l-.634.026c-.787 0-1.419-.207-1.891-.618s-.714-1.087-.714-2.019v-8.104z" fill="#F9FFFE"/></g><g filter="url(#B)" transform="translate(11 220)"><path d="M0 127v81h136l-63.035-60.009L97.203 127z" fill="#767676"/><path d="M97.303 127L73 147.991 136.205 208H296v-81z" fill="#595959"/><path d="M147.219 1L144 39h7l-3.226-38z" fill="#9D9D9D"/><path d="M140 50h8V39h-8z" fill="#E3E3E3"/><path d="M148 50h8V39h-8z" fill="#AAA"/><path d="M0 126h148V75H0z" fill="#D1D1D1"/><path d="M148 126h148V75H148z" fill="#9D9D9D"/><path d="M0 127l4.68 4H148v-4z" fill="#696969"/><path d="M148 131h148v-4H148z" fill="#4F4F4F"/><path d="M78 115v32.805L218 148v-32.934z" fill="#D1D1D1"/><path d="M80 193h5v-46h-5z" fill="#FFF"/><path d="M85.219 154.027v31.785c-.108-.009-.215-.009-.323-.009-3.943 0-7.14 3.045-7.14 6.802h14.281c0-1.863-.786-3.554-2.063-4.779V152.3c1.462-1.245 2.389-3.056 2.389-5.074H78.081c0 3.759 3.198 6.802 7.138 6.802" fill="#D1D1D1"/><mask id="O" fill="#fff"><use xlink:href="#C"/></mask><path mask="url(#O)" d="M103.555 192.606h4.754v-45.379h-4.754z" fill="#FFF"/><path d="M108.309 154.027v31.785c-.108-.009-.215-.009-.323-.009-3.943 0-7.14 3.045-7.14 6.802h14.281c0-1.863-.789-3.554-2.063-4.779V152.3c1.462-1.245 2.389-3.056 2.389-5.074h-14.281c0 3.759 3.198 6.802 7.138 6.802" mask="url(#O)" fill="#D1D1D1"/><path mask="url(#O)" d="M183.209 192.606h4.754v-45.379h-4.754z" fill="#FFF"/><path d="M187.963 154.027v31.785c-.108-.009-.213-.009-.323-.009-3.943 0-7.143 3.045-7.143 6.802h14.285c0-1.863-.791-3.554-2.065-4.779V152.3c1.462-1.245 2.386-3.056 2.386-5.074h-14.279c0 3.759 3.198 6.802 7.138 6.802" mask="url(#O)" fill="#D1D1D1"/><path mask="url(#O)" d="M206.297 192.606h4.754v-45.379h-4.754z" fill="#FFF"/><path d="M211.052 154.027v31.785c-.103-.009-.213-.009-.323-.009-3.94 0-7.14 3.045-7.14 6.802h14.285c0-1.863-.789-3.554-2.068-4.779V152.3c1.467-1.245 2.389-3.056 2.389-5.074h-14.279c0 3.759 3.198 6.802 7.136 6.802" mask="url(#O)" fill="#D1D1D1"/><path mask="url(#O)" d="M73.222 118.349h149.767v-8.247H73.222zm0 28.876h149.767v-8.25H73.222z" fill="#9D9D9D"/><path mask="url(#O)" d="M77.756 207.5h37.371v-14.894H77.756zm102.741 0h37.376v-14.894h-37.376z" fill="#E3E3E3"/><path mask="url(#O)" d="M0 207.5h77.756v-14.894H0z" fill="#D1D1D1"/><path mask="url(#O)" d="M217.873 207.5h15.634l-15.634-14.894z" fill="#9D9D9D"/><path mask="url(#O)" d="M296.407 192.605h-78.533l15.633 14.894h62.9z" fill="#D1D1D1"/><path mask="url(#O)" d="M115.127 200.054v7.446h15.633l-7.814-7.446z" fill="#8F8F8F"/><path mask="url(#O)" d="M130.761 207.5h49.737v-7.446h-57.554z" fill="#BFBFBF"/><path mask="url(#O)" d="M115.127 192.605l7.819 7.448h57.552v-7.448z" fill="#FFF"/><path mask="url(#O)" d="M115.127 192.605v7.448h7.819z" fill="#BFBFBF"/><path d="M148.079 45.698c-19.851.026-63.017 31.241-63.017 64.401h30.256c0-33.161 22.441-64.375 32.761-64.401" mask="url(#O)" fill="#F8F8F8"/><path mask="url(#O)" d="M148.104 45.696h-.007l.005.002z" fill="#EDEDED"/><path d="M148.106 45.696h-.002v.002c10.485.022 32.761 31.241 32.761 64.401h30.281c0-33.176-42.877-64.404-63.04-64.404" mask="url(#O)" fill="#BFBFBF"/><path d="M148.093 45.696c-.005 0-.009.002-.014.002h.014v-.002zm-.013.002c-10.32.026-32.761 31.241-32.761 64.401h32.775l-.014-64.401z" mask="url(#O)" fill="#EDEDED"/><g fill="#D1D1D1"><path d="M148.096 45.696h-.002v.002c.002 0 .002-.002.002-.002" mask="url(#O)"/><path d="M148.096 45.696s0 .002-.002.002l.009 64.401-.007-64.404zm.008.002v64.401h32.761c0-33.161-22.276-64.38-32.761-64.401" mask="url(#O)"/></g><path mask="url(#O)" d="M278.932 185.127h7.619v-12.716h-7.619zm-10.274 0h7.617v-12.716h-7.617zm-40.965 0h7.482v-12.716h-7.482zm30.689 0h7.619v-12.716h-7.619zm-20.553 0h7.622v-12.716h-7.622zm10.279 0h7.617v-12.716h-7.617z" fill="#1D1D1D"/><path d="M278.932 185.127h7.619v-12.716h-7.619v12.716zm-10.274 0h7.617v-12.716h-7.617v12.716zm-10.276 0h7.619v-12.716h-7.619v12.716zm-10.274 0h7.617v-12.716h-7.617v12.716zm-10.279 0h7.622v-12.716h-7.622v12.716zm-10.139 0h7.482v-12.716h-7.482v12.716zm61.515-12.716v-2.494H225.07v17.707h64.135v-15.213z" mask="url(#O)" fill="#DDD"/><path mask="url(#O)" d="M278.932 162.438h7.619v-12.715h-7.619zm-10.274 0h7.617v-12.715h-7.617zm-40.965 0h7.482v-12.715h-7.482zm30.689 0h7.619v-12.715h-7.619zm-20.553 0h7.622v-12.715h-7.622zm10.279 0h7.617v-12.715h-7.617z" fill="#1D1D1D"/><path d="M278.932 162.438h7.619v-12.714h-7.619v12.714zm-10.274 0h7.617v-12.714h-7.617v12.714zm-10.276 0h7.619v-12.714h-7.619v12.714zm-10.274 0h7.617v-12.714h-7.617v12.714zm-10.279 0h7.622v-12.714h-7.622v12.714zm-10.139 0h7.482v-12.714h-7.482v12.714zm61.515-12.714v-2.499H225.07v17.71h64.135v-15.211z" mask="url(#O)" fill="#DDD"/><path mask="url(#O)" d="M60.374 185.127h7.619v-12.716h-7.619zm-10.274 0h7.617v-12.716H50.1zm-40.965 0h7.482v-12.716H9.135zm30.691 0h7.619v-12.716h-7.619zm-20.553 0h7.62v-12.716h-7.62zm10.279 0h7.617v-12.716h-7.617z" fill="#1D1D1D"/><path d="M60.374 185.127h7.619v-12.716h-7.619v12.716zm-10.272 0h7.617v-12.716h-7.617v12.716zm-10.276 0h7.619v-12.716h-7.619v12.716zm-10.274 0h7.617v-12.716h-7.617v12.716zm-10.279 0h7.619v-12.716h-7.619v12.716zm-10.139 0h7.482v-12.716H9.135v12.716zm61.515-12.716v-2.494H6.515v17.707H70.65v-15.213z" mask="url(#O)" fill="#DDD"/><path mask="url(#O)" d="M60.374 162.438h7.619v-12.715h-7.619zm-10.274 0h7.617v-12.715H50.1zm-40.965 0h7.482v-12.715H9.135zm30.691 0h7.619v-12.715h-7.619zm-20.553 0h7.62v-12.715h-7.62zm10.279 0h7.617v-12.715h-7.617z" fill="#1D1D1D"/><path d="M60.374 162.438h7.619v-12.714h-7.619v12.714zm-10.272 0h7.617v-12.714h-7.617v12.714zm-10.276 0h7.619v-12.714h-7.619v12.714zm-10.274 0h7.617v-12.714h-7.617v12.714zm-10.279 0h7.619v-12.714h-7.619v12.714zm-10.139 0h7.482v-12.714H9.135v12.714zm61.515-12.714v-2.499H6.515v17.71H70.65v-15.211z" mask="url(#O)" fill="#DDD"/><path d="M157.01 174.976h-.028c-.128-4.521-4-8.154-8.777-8.154v25.782h8.805v-17.629z" mask="url(#O)" fill="#1D1D1D"/><path d="M139.423 174.976h-.025v17.629h8.807v-25.782c-4.779 0-8.649 3.632-8.782 8.154" mask="url(#O)" fill="#4A4A4A"/></g><g filter="url(#D)" transform="translate(464)"><path d="M79 76h2V0h-2z" fill="gray"/><path d="M24 196h112V95H24z" fill="#B3B3B3"/><path d="M147 76H13V63.91L80.001 38 147 63.91z" fill="#CCC"/><path d="M147 66L80.001 39.738 13 66v-3.761L80.001 36 147 62.239zM10 71h24v-4H10z" fill="#F2F2F2"/><path d="M30.075 75H13.926L10 71h24z" fill="#E6E6E6"/><path d="M127 71h24v-4h-24z" fill="#F2F2F2"/><path d="M147.074 75h-16.147L127 71h24z" fill="#E6E6E6"/><path d="M19 102h38v-4H19z" fill="#F2F2F2"/><path d="M53.144 106H22.858L19 102h38z" fill="#E6E6E6"/><path d="M19 193h38v-4H19z" fill="#F2F2F2"/><path d="M22.858 185h30.286L57 189H19z" fill="#E6E6E6"/><path d="M23 185h31v-78H23z" fill="#CCC"/><path d="M25.892 183.635c0 .712-.58 1.294-1.296 1.294h-.763c-.716 0-1.295-.581-1.295-1.294v-75.595c0-.715.579-1.294 1.295-1.294h.763c.716 0 1.296.579 1.296 1.294v75.595zm5.474 0c0 .712-.58 1.294-1.296 1.294h-.763c-.716 0-1.296-.581-1.296-1.294v-75.595c0-.715.58-1.294 1.296-1.294h.763c.716 0 1.296.579 1.296 1.294v75.595zm5.475 0a1.3 1.3 0 0 1-1.296 1.294h-.765c-.714 0-1.294-.581-1.294-1.294v-75.595c0-.715.58-1.294 1.294-1.294h.765c.714 0 1.296.579 1.296 1.294v75.595zm5.473 0c0 .712-.58 1.294-1.296 1.294h-.764c-.715 0-1.295-.581-1.295-1.294v-75.595c0-.715.58-1.294 1.295-1.294h.764c.716 0 1.296.579 1.296 1.294v75.595zm5.473 0c0 .712-.579 1.294-1.295 1.294h-.763c-.716 0-1.295-.581-1.295-1.294v-75.595c0-.715.579-1.294 1.295-1.294h.763c.716 0 1.295.579 1.295 1.294v75.595zm5.475 0c0 .712-.58 1.294-1.296 1.294h-.763c-.716 0-1.296-.581-1.296-1.294v-75.595c0-.715.58-1.294 1.296-1.294h.763c.716 0 1.296.579 1.296 1.294v75.595z" fill="#E6E6E6"/><mask id="P" fill="#fff"><use xlink:href="#E"/></mask><path mask="url(#P)" d="M61.356 102.336h38.285v-4.408H61.356z" fill="#F2F2F2"/><path mask="url(#P)" d="M95.755 106.746H65.242l-3.887-4.41H99.64z" fill="#E6E6E6"/><path mask="url(#P)" d="M61.355 193.745H99.64v-4.41H61.355z" fill="#F2F2F2"/><path mask="url(#P)" d="M65.242 184.928h30.514l3.884 4.407H61.356z" fill="#E6E6E6"/><path mask="url(#P)" d="M65.138 184.928H95.86v-78.183H65.138z" fill="#CCC"/><path d="M68.491 183.635c0 .712-.579 1.294-1.295 1.294h-.764c-.716 0-1.295-.581-1.295-1.294v-75.595c0-.715.579-1.294 1.295-1.294h.764c.716 0 1.295.579 1.295 1.294v75.595zm5.474 0c0 .712-.58 1.294-1.296 1.294h-.763c-.716 0-1.296-.581-1.296-1.294v-75.595c0-.715.58-1.294 1.296-1.294h.763c.716 0 1.296.579 1.296 1.294v75.595zm5.475 0c0 .712-.581 1.294-1.296 1.294h-.765c-.714 0-1.294-.581-1.294-1.294v-75.595c0-.715.58-1.294 1.294-1.294h.765c.715 0 1.296.579 1.296 1.294v75.595zm5.473 0c0 .712-.58 1.294-1.296 1.294h-.763c-.716 0-1.296-.581-1.296-1.294v-75.595c0-.715.58-1.294 1.296-1.294h.763c.716 0 1.296.579 1.296 1.294v75.595zm5.474 0c0 .712-.579 1.294-1.295 1.294h-.764c-.716 0-1.295-.581-1.295-1.294v-75.595c0-.715.579-1.294 1.295-1.294h.764c.716 0 1.295.579 1.295 1.294v75.595zm5.474 0c0 .712-.58 1.294-1.296 1.294h-.763c-.716 0-1.296-.581-1.296-1.294v-75.595c0-.715.58-1.294 1.296-1.294h.763c.716 0 1.296.579 1.296 1.294v75.595z" mask="url(#P)" fill="#E6E6E6"/><path mask="url(#P)" d="M103.482 102.336h38.286v-4.408h-38.286z" fill="#F2F2F2"/><path mask="url(#P)" d="M137.882 106.746h-30.515l-3.885-4.41h38.286z" fill="#E6E6E6"/><path mask="url(#P)" d="M103.482 193.745h38.286v-4.41h-38.286z" fill="#F2F2F2"/><path mask="url(#P)" d="M107.368 184.928h30.515l3.885 4.407h-38.286z" fill="#E6E6E6"/><path mask="url(#P)" d="M107.264 184.928h30.724v-78.183h-30.724z" fill="#CCC"/><path d="M110.617 183.635c0 .712-.58 1.294-1.295 1.294h-.764c-.715 0-1.296-.581-1.296-1.294v-75.595c0-.715.581-1.294 1.296-1.294h.764c.715 0 1.295.579 1.295 1.294v75.595zm5.475 0a1.3 1.3 0 0 1-1.296 1.294h-.765c-.714 0-1.294-.581-1.294-1.294v-75.595c0-.715.58-1.294 1.294-1.294h.765c.714 0 1.296.579 1.296 1.294v75.595zm5.473 0c0 .712-.58 1.294-1.296 1.294h-.763c-.716 0-1.296-.581-1.296-1.294v-75.595c0-.715.58-1.294 1.296-1.294h.763c.716 0 1.296.579 1.296 1.294v75.595zm5.473 0c0 .712-.579 1.294-1.295 1.294h-.763c-.716 0-1.295-.581-1.295-1.294v-75.595c0-.715.579-1.294 1.295-1.294h.763c.716 0 1.295.579 1.295 1.294v75.595zm5.475 0c0 .712-.58 1.294-1.295 1.294h-.764c-.715 0-1.296-.581-1.296-1.294v-75.595c0-.715.581-1.294 1.296-1.294h.764c.715 0 1.295.579 1.295 1.294v75.595zm5.475 0a1.3 1.3 0 0 1-1.296 1.294h-.765c-.714 0-1.294-.581-1.294-1.294v-75.595c0-.715.58-1.294 1.294-1.294h.765c.714 0 1.296.579 1.296 1.294v75.595zM17.076 97.928h126.513v-4.724H17.076z" mask="url(#P)" fill="#E6E6E6"/><path mask="url(#P)" d="M147.043 87.815H13.62l3.457 5.39H143.59z" fill="#CCC"/><path mask="url(#P)" d="M13.62 87.815h133.422V75.749H13.62z" fill="#F2F2F2"/><path mask="url(#P)" d="M13.62 199.829h133.422v-6.084H13.62z" fill="#CCC"/><path mask="url(#P)" d="M7.35 205.916h145.964v-6.087H7.35z" fill="#E6E6E6"/><path mask="url(#P)" d="M0 212h160.665v-6.084H0z" fill="#F2F2F2"/><g fill="#000" mask="url(#P)"><use filter="url(#G)" xlink:href="#F"/><use xlink:href="#F"/></g><path mask="url(#P)" d="M81.557 18.82h30.093V1.191H81.557z" fill="#C1272D"/></g><g font-weight="bold" font-family="SFProText-Bold, SF Pro Text" fill="#000"><text letter-spacing="2.3" font-size="11.73"><tspan x="517.5" y="67">COUR</tspan><tspan x="561.684" y="67">T</tspan></text><text letter-spacing="1.905" font-size="18.73"><tspan x="128.5" y="340.5">BANK</tspan></text></g><g filter="url(#H)" transform="translate(239 62)"><path d="M0 94v54h95L41.948 94z" fill="#E3E3E3"/><path d="M42 94l53.345 54H199V94z" fill="#AAA"/><path d="M0 72v22h42L19.429 72z" fill="#F4F4F4"/><path d="M19 72l22.581 22H198V72z" fill="#E3E3E3"/><path d="M43 22h115V0H43z" fill="#9CCE7C"/><path d="M76 30h4v-7h-4zm46 0h4v-7h-4z" fill="#575757"/><path d="M21 143h8V54h-8zm147 0h8V54h-8z" fill="#606060"/><path d="M126 129l.007.002L141 129zm-8.996 0l-.004.002 7.994-.002z" fill="#C3D0F7"/><path d="M133.903 112L117 129h24v-17z" fill="#B1C0E8"/><g fill="#DBE3FA"><path d="M109 129v.002l7-.002z"/><path d="M109.076 112H109v17h7.579L133 112z"/></g><path d="M108.804 129.181v-17.36h32.392v17.36h-32.392zM141.196 110H107v21h36v-21h-1.804z" fill="#606060"/><path d="M72 141h23v-31H72z" fill="#727272"/><path d="M56 143h13v-19H56z" fill="#F5F5F5"/><path d="M21 148h155v-6H21z" fill="#759B5D"/><path d="M52 143h23v-37H52z" fill="#9CCE7C"/><path d="M51.27 136.992a1.94 1.94 0 1 1-3.884 0v-24.486a1.94 1.94 0 1 1 3.884 0v24.486z" fill="#555"/><path d="M53.938 109.675v10.476h3.745l10.498-10.476z" fill="#FFF"/><path d="M57.682 120.15h14.497v-10.476h-3.996z" fill="#F5F5F5"/><mask id="Q" fill="#fff"><use xlink:href="#I"/></mask><path mask="url(#Q)" d="M51.27 133.692h23.577v-7.922H51.27z" fill="#DBE3FA"/><path mask="url(#Q)" d="M127.023 141.868H150.6v-36.203h-23.577z" fill="#9CCE7C"/><path d="M127.023 136.992a1.94 1.94 0 1 1-3.882 0v-24.486a1.94 1.94 0 1 1 3.882 0v24.486z" mask="url(#Q)" fill="#555"/><path mask="url(#Q)" d="M129.691 109.675v10.476h3.745l10.498-10.476z" fill="#FFF"/><path mask="url(#Q)" d="M133.435 120.15h14.497v-10.476h-3.996z" fill="#F5F5F5"/><path mask="url(#Q)" d="M127.023 133.692H150.6v-7.922h-23.577z" fill="#DBE3FA"/><path mask="url(#Q)" d="M99.808 138.683h67.564v-9.509H99.808z" fill="#2C2C2C"/><path d="M146.95 140.494c0 4.146 3.366 7.505 7.524 7.505s7.52-3.358 7.52-7.505-3.366-7.505-7.52-7.505-7.524 3.363-7.524 7.505m-41.142-.027c0 4.144 3.369 7.502 7.522 7.502s7.524-3.358 7.524-7.502-3.369-7.505-7.524-7.505-7.522 3.358-7.522 7.505m10.101-21.342c3.111-2.261 5.105-3.32 8.129-3.32h27.667c3.022 0 5.014 1.059 8.129 3.32l11.5 8.227h-66.928l11.502-8.227" mask="url(#Q)" fill="#3B3B3B"/><path d="M149.807 118.589c2.075 0 3.442.669 5.578 2.104l5.448 3.937h-25.278l6.052-6.041h8.2z" mask="url(#Q)" fill="#B1B1B1"/><path d="M120.348 120.694c2.136-1.434 3.503-2.104 5.578-2.104h15.681l-6.052 6.041h-20.647l5.441-3.937" mask="url(#Q)" fill="#FFF"/><path d="M158.835 140.494a4.36 4.36 0 0 1-4.361 4.353v-8.705a4.36 4.36 0 0 1 4.361 4.351" mask="url(#Q)" fill="#B1B1B1"/><path d="M154.474 136.144v8.702a4.36 4.36 0 0 1-4.361-4.351c0-2.404 1.954-4.351 4.361-4.351" mask="url(#Q)" fill="#FFF"/><path d="M117.692 140.467c0 2.4-1.954 4.349-4.361 4.349v-8.7c2.408 0 4.361 1.947 4.361 4.351" mask="url(#Q)" fill="#B1B1B1"/><path d="M113.33 136.116v8.7c-2.41 0-4.361-1.949-4.361-4.349s1.951-4.351 4.361-4.351" mask="url(#Q)" fill="#FFF"/><path d="M171.333 140.467h-7.408a9.4 9.4 0 0 0-3.195-7.038h10.603v7.038z" mask="url(#Q)" fill="#3B3B3B"/><path d="M98.502 127.352h72.832v6.077h-10.603a9.42 9.42 0 0 0-6.258-2.366 9.41 9.41 0 0 0-6.258 2.366c-1.954 1.721-3.188 4.235-3.195 7.038h-22.238c0-2.798-1.221-5.312-3.161-7.038-1.673-1.489-3.873-2.393-6.292-2.393a9.41 9.41 0 0 0-6.287 2.393H95.533v-2.894s0-3.183 2.969-3.183" mask="url(#Q)" fill="#698AEC"/><path d="M107.042 133.43c-1.942 1.724-3.165 4.24-3.165 7.038h-8.341v-7.038h11.507z" mask="url(#Q)" fill="#3B3B3B"/><g fill="#759B5D"><path mask="url(#Q)" d="M100.554 53.075H201.11V30.85H100.554z"/><path mask="url(#Q)" d="M0 53.075h100.556V30.85H0zm58.186-40.076c.511-.084 1.356-1.648 1.356-1.648l1.652 1.648v7.305a9.7 9.7 0 0 1-2.25.528 18.6 18.6 0 0 1-2.045.134c-1.216 0-2.266-.23-3.195-.567-1.381-.503-2.971-2.197-3.581-2.88s.233-.208-.071-1.146-.456-1.96-.456-3.064.16-2.131.479-3.074a7.15 7.15 0 0 1 1.378-2.452c.603-.692 1.342-1.229 2.221-1.614s1.878-.581 2.997-.581c.664 0 1.999-1.006 1.999-1.006l1.652 1.646s-.11.82-.249 1.214l-.456 1.19a9.33 9.33 0 0 0-1.287-.353c-.372-.071-.815-.105-1.328-.105-1.326 0-2.346.433-3.058 1.296s-1.068 2.143-1.068 3.839.351 2.962 1.059 3.798 1.741 1.252 3.111 1.252a4.37 4.37 0 0 0 .632-.041l.509-.084v-5.235zm11.016 2.814c-.167-.03-.345-.05-.536-.073a5.14 5.14 0 0 0-.52-.032c-.68 0-1.214.123-1.609.364s-.589.631-.589 1.17c0 .357.073.635.226.827a1.34 1.34 0 0 0 .55.423 2.25 2.25 0 0 0 .685.166l.63.032c.212 0 .415-.019.628-.052l.536-.094v-2.732zm0-2.131c0-.333-.055-.601-.167-.809a1.26 1.26 0 0 0-.454-.485 1.89 1.89 0 0 0-.717-.239c-.285-.041-.598-.062-.943-.062-.749 0-2.387.435-2.387.435l-1.652-1.648s1.07-.063 1.07-.505c.609-.205 1.214-.357 1.828-.453.607-.1 1.175-.146 1.703-.146 1.433 0 .817-1.184 1.716-.615 1.883 1.19 2.864 3.442 2.864 4.959v6.214c-.484.15-1.07.293-1.762.433s-1.474.205-2.344.205c-.705 0-1.353-.059-1.942-.184s-1.091-.333-1.513-.622-2.205-1.99-2.435-2.445 1.118.314 1.118-.348.144-1.221.427-1.667.552-1.539 1.002-1.808.803-.521 1.358-.64 1.346.617 1.901.617a15.04 15.04 0 0 1 1.328.062v-.248zm7.552 2.38c-.774-.221-3.143-1.787-3.467-2.632-.221-.574 1 .56 1-.308 0-1.047.374-1.872 1.13-2.463s1.78-.891 3.081-.891c.541 0 1.543-1.068 1.543-1.068l1.655 1.646s-.098.733-.21 1.118-.244.724-.395 1.016a8.19 8.19 0 0 0-1.1-.362 5.09 5.09 0 0 0-1.267-.155c-.468 0-.833.073-1.098.216s-.393.375-.393.694c0 .303.091.517.278.64s.454.244.799.355l1.184.351c.386.109-.571-1.195-.258-1.036s1.881 1.794 2.102 2.029.395.523.518.868.187.767.187 1.264c0 .512-.105.988-.322 1.427s-.525.827-.931 1.152-.904.578-1.486.765-1.237.278-1.97.278a14.12 14.12 0 0 1-.915-.03c-.276-.023-.541-.057-.796-.104a8.62 8.62 0 0 1-.758-.178c-.249-.068-.808-.269-.808-.269l-1.652-1.649s2.088-.228 2.255-.585c.454.18.885.314 1.294.405a6.15 6.15 0 0 0 1.278.132c.192 0 .404-.016.63-.05a2.27 2.27 0 0 0 .634-.189c.194-.086.356-.205.488-.349s.196-.337.196-.569c0-.333-.1-.572-.301-.715s-.479-.273-.842-.382l-1.285-.374zm14.751-2.235c-.472-.18-.867-.426-1.269-.59-1.034-.421-2.342-2.118-2.604-2.416s.573.045.429-.369.395.043.395-.538c0-.704.119-1.325.363-1.862a3.65 3.65 0 0 1 1.027-1.355c.44-.367.975-.644 1.595-.831s1.321-.278 2.097-.278c.705 0 2.269-.922 2.269-.922l1.652 1.648s-.306 1.584-.666 2.356l-.63-.248a5.14 5.14 0 0 0-.687-.205 7.01 7.01 0 0 0-.817-.134c-.306-.037-.65-.055-1.041-.055a4.58 4.58 0 0 0-.714.062 2.01 2.01 0 0 0-.653.23c-.194.109-.354.273-.477.485s-.187.494-.187.84c0 .275.048.505.146.692s.228.346.393.476.354.244.561.333l.623.257 1.242.478c.527.205-.146-.924.283-.704s1.942 1.837 2.239 2.161a3.41 3.41 0 0 1 .696 1.182c.164.46.249 1.029.249 1.708 0 .701-.13 1.343-.383 1.924a4.14 4.14 0 0 1-1.109 1.489c-.486.415-1.084.738-1.794.975s-1.536.351-2.46.351c-.456 0-.865-.014-1.223-.041s-.703-.073-1.027-.134-.648-.141-.965-.237-.995-.353-.995-.353l-1.652-1.648s2.12-.478 2.275-.917a11.06 11.06 0 0 0 1.636.526c.511.119 1.059.175 1.641.175.872 0 1.556-.159 2.054-.485s.746-.817.746-1.478c0-.333-.059-.608-.176-.831s-.272-.408-.459-.558-.395-.28-.63-.382l-.728-.301-1.264-.476zm8.982-1.573h-1.349l-1.652-1.648 4.254-5.362 1.652 1.651v3.126l.856-1.651 1.655 1.651a4.93 4.93 0 0 1 .082.558c.016.164.021.339.021.517a6.31 6.31 0 0 1-.021.558 5.69 5.69 0 0 1-.082.601h-2.51v4.201c0 .428.034.776.103 1.036s.169.469.301.622.294.255.488.31.171-1.71.171-1.71 1.499 1.676 1.652 1.646c.098.264.169.537.208.819a5.06 5.06 0 0 1 .064.756l-.009.38-.034.303c-.634.15-1.292.228-1.97.228-1.258 0-3.962-1.277-4.537-2.53-.37-.804.657.107.657-1.218v-4.843zm13.008 3.56c-.164-.03-.345-.05-.539-.073s-.365-.032-.518-.032c-.68 0-1.214.123-1.609.364s-.591.631-.591 1.17c0 .357.075.635.228.827s.335.334.552.423.44.146.685.166l.63.032c.208 0 .415-.019.623-.052l.539-.094v-2.732zm0-2.131c0-.333-.052-.601-.164-.809s-.262-.366-.456-.485-.434-.198-.714-.239-.6-.062-.947-.062c-.746 0-1.54.143-2.383.435l-1.655-1.648s1.073-.063 1.073-.505c.609-.205 1.216-.357 1.823-.453s1.178-.146 1.705-.146c1.436 0 .466-1.257 1.438-.824 2.237.997 3.145 3.652 3.145 5.168v6.214c-.486.15-1.07.293-1.764.433s-1.474.205-2.344.205c-.705 0-1.351-.059-1.942-.184-.584-.128-1.091-.333-1.513-.622s-2.04-1.764-2.268-2.217.952.086.952-.576.144-1.221.427-1.667.354-1.562.803-1.831 1.365-.36 1.922-.478.984.478 1.536.478a14.96 14.96 0 0 1 1.328.062v-.248zm5.767-1.429h-1.349l-1.652-1.648 4.256-5.362 1.652 1.651v3.126l.856-1.651 1.652 1.651a4.97 4.97 0 0 1 .084.558 6.25 6.25 0 0 1 .021.517c0 .194-.007.378-.021.558s-.041.38-.084.601h-2.508v4.201c0 .428.032.776.103 1.036s.961-.779.961-.779l1.652 1.646a4.15 4.15 0 0 1 .208.819 5.38 5.38 0 0 1 .064.756l-.011.38c-.007.105-.018.205-.032.303-.634.15-1.292.228-1.97.228-2.435 0-4.138-1.648-4.537-2.53-.367-.806.655.107.655-1.218v-4.843z"/><path d="M127.062 8.217l-1.652-1.651s1.568-.64 1.652-1.123a8.58 8.58 0 0 1 .758-.096c.269-.018.618-1.555.618-1.555l1.652 1.651.082.692c.016.228.023.46.023.694l-.023.681c-.014.237-.039.471-.082.706-.235.041-.488.068-.758.082l-.758.02c-.221 0-.468-.007-.746-.02s-.767-.082-.767-.082zm.436 4.035h-1.39c-.043-.178-1.632-1.446-1.652-1.648s4.272-2.236 4.272-2.236l1.655 1.651V20.72c-.5.082-.986.123-1.454.123a8.83 8.83 0 0 1-1.431-.123l-1.652-1.651 1.652-6.817zm10.331 6.478c.774 0 1.331-.285 1.668-.856s.509-1.398.509-2.475-.169-1.901-.509-2.47-.895-.861-1.668-.861c-.76 0-1.312.287-1.65.861s-.509 1.396-.509 2.47.171 1.901.509 2.475.89.856 1.65.856m0 2.236c-.872 0-1.627-.141-2.273-.424s-2.289-1.79-2.709-2.293.372.018.157-.656a7.23 7.23 0 0 1-.32-2.195 7.43 7.43 0 0 1 .32-2.215c.215-.688.534-1.286.959-1.79.418-.503.952-.899 1.593-1.191s1.401-.435 2.273-.435.808-1.031 1.458-.742 2.013 1.865 2.442 2.368.746 1.102.954 1.79.31 1.428.31 2.215a7.45 7.45 0 0 1-.31 2.195c-.208.674-.527 1.266-.954 1.767s-.968.899-1.618 1.182-1.413.424-2.282.424m7.488-10.948c.194-.043.388-.073.582-.093s.409-.032.644-.032.44.011.623.032.365.05.559.093a1.11 1.11 0 0 1 .112.298c.037.132 1.137.178 1.39.011s.545-.301.86-.403c.322-.102.673-.155 1.059-.155 1.216 0 .502-.915 1.271-.442 1.287.795 2.403 3.14 2.403 4.558v6.833c-.5.082-.99.123-1.474.123s-.975-.041-1.474-.123l-1.652-1.651 1.652-4.394c0-.745-.112-1.316-.342-1.717s-.623-.601-1.191-.601c-.235 0-.477.034-.726.102s-.475.205-.676.405-.363.478-.486.838-.187.827-.187 1.407v5.61c-.498.082-.99.123-1.472.123s-.974-.041-1.474-.123l-1.652-1.651 1.652-9.051z" mask="url(#Q)"/></g><path d="M56.532 11.35c.513-.084 1.009-.125 1.495-.125s.988.041 1.513.125v7.304a9.76 9.76 0 0 1-2.25.528c-.781.091-1.463.134-2.045.134-1.216 0-2.28-.189-3.193-.567s-1.673-.911-2.282-1.596-1.066-1.491-1.369-2.429-.456-1.96-.456-3.065.157-2.129.477-3.074.778-1.762 1.378-2.455 1.342-1.227 2.221-1.612 1.878-.581 2.997-.581a13.48 13.48 0 0 1 1.858.123c.575.084 1.173.257 1.796.519a4.58 4.58 0 0 1-.251 1.211l-.456 1.191c-.484-.166-.913-.285-1.287-.353s-.812-.105-1.326-.105c-1.326 0-2.348.433-3.06 1.296s-1.068 2.14-1.068 3.839.351 2.962 1.059 3.798 1.744 1.252 3.111 1.252c.237 0 .447-.014.632-.041l.509-.084V11.35zm11.016 2.813l-.536-.071a4.5 4.5 0 0 0-.52-.032c-.678 0-1.212.121-1.607.362s-.591.631-.591 1.17c0 .36.073.635.226.827s.338.337.552.424.438.146.682.166a6.89 6.89 0 0 0 .632.034c.21 0 .415-.018.625-.055l.536-.091v-2.735zm0-2.131c0-.332-.052-.599-.167-.808a1.24 1.24 0 0 0-.454-.485c-.192-.116-.431-.196-.717-.237s-.598-.064-.943-.064c-.749 0-1.543.146-2.385.435a5.55 5.55 0 0 1-.436-1.013c-.098-.319-.146-.697-.146-1.138.607-.207 1.214-.36 1.826-.455a10.74 10.74 0 0 1 1.705-.143c1.433 0 2.556.344 3.369 1.034s1.212 1.792 1.212 3.311v6.211c-.484.15-1.07.296-1.764.433s-1.472.207-2.342.207a9.34 9.34 0 0 1-1.942-.187c-.587-.125-1.093-.33-1.513-.619s-.744-.665-.977-1.118-.342-1.013-.342-1.676.144-1.22.429-1.669a3.25 3.25 0 0 1 1.095-1.075c.45-.271.954-.462 1.506-.578a7.9 7.9 0 0 1 1.657-.178c.404 0 .847.02 1.328.061v-.248zm7.554 2.38c-.776-.221-1.378-.546-1.814-.981s-.653-1.088-.653-1.958c0-1.045.374-1.869 1.127-2.464s1.782-.888 3.083-.888a8.88 8.88 0 0 1 1.595.143c.527.098 1.059.241 1.6.435-.03.36-.098.731-.208 1.116a5.3 5.3 0 0 1-.397 1.016c-.329-.134-.696-.257-1.098-.36a5 5 0 0 0-1.267-.155c-.468 0-.833.071-1.1.214s-.393.376-.393.694c0 .305.094.517.278.642s.454.241.801.353l1.182.351a5.6 5.6 0 0 1 1.048.405c.31.157.577.353.799.587s.393.526.518.87.187.767.187 1.261a3.22 3.22 0 0 1-.322 1.43c-.215.442-.525.827-.933 1.15s-.904.578-1.483.765-1.239.278-1.972.278c-.333 0-.634-.009-.913-.03a7.35 7.35 0 0 1-.799-.102c-.253-.048-.507-.107-.755-.178s-.52-.157-.81-.271c.027-.369.094-.745.199-1.125s.24-.749.404-1.109c.456.18.888.316 1.296.405a5.97 5.97 0 0 0 1.276.134 4.32 4.32 0 0 0 .632-.052 2.28 2.28 0 0 0 .634-.187 1.54 1.54 0 0 0 .488-.351c.13-.146.196-.335.196-.569 0-.332-.1-.569-.304-.715s-.479-.273-.84-.383l-1.285-.373zm14.749-2.235c-.47-.18-.89-.376-1.267-.59s-.689-.469-.954-.767-.466-.651-.612-1.066-.215-.908-.215-1.489c0-.704.119-1.325.361-1.863s.584-.99 1.027-1.357.975-.642 1.598-.829 1.319-.28 2.095-.28c.705 0 1.365.066 1.981.189s1.262.303 1.94.54a7.38 7.38 0 0 1-.664 2.357l-.632-.248c-.217-.082-.443-.15-.685-.207s-.516-.098-.819-.132a8.87 8.87 0 0 0-1.038-.052c-.233 0-.472.02-.717.059a2.02 2.02 0 0 0-.653.23c-.194.109-.354.271-.475.485-.128.216-.187.494-.187.84 0 .276.048.508.144.694s.228.344.395.474.351.244.559.332l.623.257 1.244.478c.525.205 1.004.421 1.431.64s.794.494 1.091.817.529.72.694 1.179.249 1.034.249 1.71c0 .701-.128 1.343-.383 1.922a4.11 4.11 0 0 1-1.109 1.491c-.484.417-1.082.738-1.794.975s-1.534.351-2.458.351a16.29 16.29 0 0 1-1.226-.041 9.84 9.84 0 0 1-1.027-.134c-.324-.061-.648-.141-.963-.237s-.65-.216-.997-.353c.041-.401.119-.82.228-1.255s.24-.872.397-1.312c.58.232 1.123.412 1.636.526s1.059.175 1.639.175c.872 0 1.556-.159 2.056-.485s.744-.817.744-1.478c0-.335-.059-.61-.176-.831a1.88 1.88 0 0 0-.456-.558c-.187-.153-.397-.28-.63-.383l-.73-.303-1.264-.474zm8.983-1.573h-1.349l-.105-.417 3.882-4.943h.477v3.124h2.508a4.66 4.66 0 0 1 .084.56c.016.164.021.339.021.517 0 .194-.005.38-.021.558s-.041.378-.084.601h-2.508v4.201c0 .428.034.774.103 1.036s.169.469.301.622a.98.98 0 0 0 .488.31 2.53 2.53 0 0 0 .682.084 3.44 3.44 0 0 0 .614-.055l.527-.091c.096.262.169.535.208.82s.064.533.064.754l-.011.383a4.18 4.18 0 0 1-.032.301 8.4 8.4 0 0 1-1.97.228c-1.257 0-2.221-.294-2.885-.881s-.995-1.541-.995-2.867v-4.843zm13.008 3.559l-.539-.071a4.43 4.43 0 0 0-.518-.032c-.678 0-1.214.121-1.609.362s-.591.631-.591 1.17c0 .36.078.635.228.827s.335.337.552.424.44.146.685.166.452.034.63.034a3.6 3.6 0 0 0 .623-.055l.539-.091v-2.735zm0-2.131c0-.332-.052-.599-.167-.808a1.24 1.24 0 0 0-.454-.485 1.91 1.91 0 0 0-.717-.237c-.283-.043-.6-.064-.945-.064-.746 0-1.54.146-2.383.435a5.25 5.25 0 0 1-.436-1.013c-.1-.319-.146-.697-.146-1.138a10.84 10.84 0 0 1 1.823-.455 10.74 10.74 0 0 1 1.705-.143c1.436 0 2.561.344 3.369 1.034s1.214 1.792 1.214 3.311v6.211c-.486.15-1.073.296-1.762.433s-1.477.207-2.346.207c-.705 0-1.351-.061-1.94-.187s-1.093-.33-1.515-.619-.744-.665-.972-1.118-.345-1.013-.345-1.676.144-1.22.427-1.669.648-.806 1.098-1.075.952-.462 1.506-.578a7.89 7.89 0 0 1 1.659-.178c.399 0 .844.02 1.326.061v-.248zm5.768-1.428h-1.349l-.103-.417 3.88-4.943h.477v3.124h2.51c.041.209.068.394.082.56s.021.339.021.517c0 .194-.005.38-.021.558a5.75 5.75 0 0 1-.082.601h-2.51v4.201c0 .428.034.774.103 1.036s.169.469.301.622a1 1 0 0 0 .488.31c.194.055.42.084.682.084a3.42 3.42 0 0 0 .614-.055l.527-.091a3.79 3.79 0 0 1 .208.82c.043.282.064.533.064.754l-.011.383c-.005.102-.018.203-.032.301-.632.153-1.292.228-1.97.228-1.257 0-2.221-.294-2.882-.881s-.997-1.541-.997-2.867v-4.843zm7.801-4.037c-.084-.469-.126-.931-.126-1.384a8.09 8.09 0 0 1 .126-1.389 7.83 7.83 0 0 1 .758-.093 9.7 9.7 0 0 1 .735-.03c.235 0 .493.009.769.03a7.94 7.94 0 0 1 .767.093c.043.235.071.467.082.694l.023.694-.023.681c-.011.235-.039.469-.082.704-.235.043-.488.068-.755.084l-.76.018c-.221 0-.468-.007-.746-.018s-.532-.041-.767-.084zm.436 4.037h-1.39a4.27 4.27 0 0 1-.094-.572 5.48 5.48 0 0 1-.032-.567 4.76 4.76 0 0 1 .126-1.097h4.272V19.07c-.498.082-.984.125-1.451.125-.456 0-.933-.043-1.431-.125v-8.466zm10.33 6.478c.776 0 1.333-.287 1.671-.858s.509-1.396.509-2.473-.171-1.901-.509-2.473-.895-.861-1.671-.861c-.76 0-1.31.287-1.65.861s-.507 1.396-.507 2.473.171 1.901.507 2.473.89.858 1.65.858m0 2.234c-.872 0-1.627-.141-2.271-.421s-1.178-.676-1.595-1.182-.744-1.093-.956-1.767a7.18 7.18 0 0 1-.322-2.195c0-.788.105-1.526.322-2.218.212-.685.534-1.284.956-1.787s.952-.902 1.595-1.191 1.399-.435 2.271-.435 1.632.143 2.282.435a4.46 4.46 0 0 1 1.618 1.191c.427.503.749 1.102.956 1.787.208.692.31 1.43.31 2.218s-.103 1.516-.31 2.195a4.96 4.96 0 0 1-.956 1.767c-.429.505-.968.897-1.618 1.182s-1.41.421-2.282.421m7.491-10.948c.194-.041.386-.073.58-.093s.409-.032.644-.032.443.011.623.032a6.09 6.09 0 0 1 .559.093 1.22 1.22 0 0 1 .114.298c.037.134.066.271.094.417l.073.424.052.353a4.76 4.76 0 0 1 .495-.622c.194-.207.42-.394.676-.56s.543-.301.86-.403.671-.153 1.059-.153c1.216 0 2.134.328 2.75.99s.924 1.705.924 3.126v6.831a9.12 9.12 0 0 1-1.474.125c-.484 0-.977-.043-1.474-.125v-6.045c0-.745-.112-1.314-.342-1.717s-.625-.601-1.194-.601c-.235 0-.475.034-.726.105s-.472.203-.673.403-.363.478-.488.838-.185.829-.185 1.409v5.608c-.5.082-.99.125-1.472.125s-.977-.043-1.474-.125V8.368z" mask="url(#Q)" fill="#FFF"/></g><g filter="url(#J)" transform="translate(0 46)"><path d="M21 152h172V66H21z" fill="#B3B3B3"/><path d="M192 52H23V36.409L107.499 3 192 36.409z" fill="#CCC"/><path d="M107.498 1L23 34.238V39l84.498-33.265L192 39v-4.762zM8 46h20v-4H8z" fill="#F2F2F2"/><path d="M24.728 50H11.272L8 46h20z" fill="#E6E6E6"/><path d="M185 46h20v-4h-20z" fill="#F2F2F2"/><path d="M201.728 50h-13.456L185 46h20z" fill="#E6E6E6"/><path d="M16 72h32v-4H16z" fill="#F2F2F2"/><path d="M44.752 76H19.248L16 72h32z" fill="#E6E6E6"/><path d="M16 149h32v-4H16z" fill="#F2F2F2"/><path d="M19.248 142h25.504L48 146H16z" fill="#E6E6E6"/><path d="M19 142h26V76H19z" fill="#CCC"/><path d="M22.042 140.868a1.1 1.1 0 0 1-1.103 1.1h-.648a1.1 1.1 0 0 1-1.103-1.1V76.556a1.1 1.1 0 0 1 1.103-1.1h.648a1.1 1.1 0 0 1 1.103 1.1v64.311zm4.661 0a1.1 1.1 0 0 1-1.103 1.1h-.651a1.1 1.1 0 0 1-1.103-1.1V76.556a1.1 1.1 0 0 1 1.103-1.1h.651a1.1 1.1 0 0 1 1.103 1.1v64.311zm4.661 0a1.1 1.1 0 0 1-1.103 1.1h-.651a1.1 1.1 0 0 1-1.103-1.1V76.556a1.1 1.1 0 0 1 1.103-1.1h.651c.608 0 1.103.493 1.103 1.1v64.311zm4.659 0a1.1 1.1 0 0 1-1.103 1.1h-.651a1.1 1.1 0 0 1-1.103-1.1V76.556c0-.607.495-1.1 1.103-1.1h.651a1.1 1.1 0 0 1 1.103 1.1v64.311zm4.661 0a1.1 1.1 0 0 1-1.103 1.1h-.651a1.1 1.1 0 0 1-1.103-1.1V76.556a1.1 1.1 0 0 1 1.103-1.1h.651a1.1 1.1 0 0 1 1.103 1.1v64.311zm4.659 0a1.1 1.1 0 0 1-1.103 1.1h-.648a1.1 1.1 0 0 1-1.103-1.1V76.556a1.1 1.1 0 0 1 1.103-1.1h.648a1.1 1.1 0 0 1 1.103 1.1v64.311z" fill="#E6E6E6"/><mask id="R" fill="#fff"><use xlink:href="#K"/></mask><path mask="url(#R)" d="M52.235 71.706h32.592v-3.751H52.235z" fill="#F2F2F2"/><path mask="url(#R)" d="M81.518 75.456H55.543l-3.309-3.751h32.593z" fill="#E6E6E6"/><path mask="url(#R)" d="M52.235 149.47h32.592v-3.751H52.235z" fill="#F2F2F2"/><path mask="url(#R)" d="M55.543 141.968h25.976l3.308 3.751H52.235z" fill="#E6E6E6"/><path mask="url(#R)" d="M55.452 141.968h26.157V75.457H55.452z" fill="#CCC"/><path d="M58.309 140.868a1.1 1.1 0 0 1-1.103 1.1h-.651a1.1 1.1 0 0 1-1.103-1.1V76.556a1.1 1.1 0 0 1 1.103-1.1h.651a1.1 1.1 0 0 1 1.103 1.1v64.311zm4.659 0a1.1 1.1 0 0 1-1.103 1.1h-.648a1.1 1.1 0 0 1-1.103-1.1V76.556a1.1 1.1 0 0 1 1.103-1.1h.648a1.1 1.1 0 0 1 1.103 1.1v64.311zm4.661 0a1.1 1.1 0 0 1-1.103 1.1h-.651a1.1 1.1 0 0 1-1.103-1.1V76.556c0-.607.495-1.1 1.103-1.1h.651a1.1 1.1 0 0 1 1.103 1.1v64.311zm4.661 0a1.1 1.1 0 0 1-1.103 1.1h-.651a1.1 1.1 0 0 1-1.103-1.1V76.556a1.1 1.1 0 0 1 1.103-1.1h.651c.608 0 1.103.493 1.103 1.1v64.311zm4.659 0a1.1 1.1 0 0 1-1.103 1.1h-.648a1.1 1.1 0 0 1-1.103-1.1V76.556a1.1 1.1 0 0 1 1.103-1.1h.648a1.1 1.1 0 0 1 1.103 1.1v64.311zm4.661 0a1.1 1.1 0 0 1-1.103 1.1h-.651a1.1 1.1 0 0 1-1.103-1.1V76.556a1.1 1.1 0 0 1 1.103-1.1h.651a1.1 1.1 0 0 1 1.103 1.1v64.311z" mask="url(#R)" fill="#E6E6E6"/><path mask="url(#R)" d="M129.145 71.706h32.594v-3.751h-32.594z" fill="#F2F2F2"/><path mask="url(#R)" d="M158.431 75.456h-25.978l-3.308-3.751h32.594z" fill="#E6E6E6"/><path mask="url(#R)" d="M129.145 149.47h32.594v-3.751h-32.594z" fill="#F2F2F2"/><path mask="url(#R)" d="M132.453 141.968h25.978l3.308 3.751h-32.594z" fill="#E6E6E6"/><path mask="url(#R)" d="M132.362 141.968h26.157V75.457h-26.157z" fill="#CCC"/><path d="M135.219 140.868a1.1 1.1 0 0 1-1.103 1.1h-.651a1.1 1.1 0 0 1-1.103-1.1V76.556c0-.607.495-1.1 1.103-1.1h.651a1.1 1.1 0 0 1 1.103 1.1v64.311zm4.661 0a1.1 1.1 0 0 1-1.103 1.1h-.651a1.1 1.1 0 0 1-1.103-1.1V76.556a1.1 1.1 0 0 1 1.103-1.1h.651c.608 0 1.103.493 1.103 1.1v64.311zm4.659 0a1.1 1.1 0 0 1-1.103 1.1h-.648a1.1 1.1 0 0 1-1.103-1.1V76.556a1.1 1.1 0 0 1 1.103-1.1h.648a1.1 1.1 0 0 1 1.103 1.1v64.311zm4.661 0a1.1 1.1 0 0 1-1.103 1.1h-.651a1.1 1.1 0 0 1-1.103-1.1V76.556a1.1 1.1 0 0 1 1.103-1.1h.651a1.1 1.1 0 0 1 1.103 1.1v64.311zm4.661 0a1.1 1.1 0 0 1-1.103 1.1h-.651a1.1 1.1 0 0 1-1.103-1.1V76.556a1.1 1.1 0 0 1 1.103-1.1h.651c.608 0 1.103.493 1.103 1.1v64.311zm4.659 0a1.1 1.1 0 0 1-1.103 1.1h-.651a1.1 1.1 0 0 1-1.103-1.1V76.556c0-.607.495-1.1 1.103-1.1h.651a1.1 1.1 0 0 1 1.103 1.1v64.311z" mask="url(#R)" fill="#E6E6E6"/><path mask="url(#R)" d="M165.409 71.706h32.594v-3.751h-32.594z" fill="#F2F2F2"/><path mask="url(#R)" d="M194.695 75.456h-25.978l-3.308-3.751h32.594z" fill="#E6E6E6"/><path mask="url(#R)" d="M165.409 149.47h32.594v-3.751h-32.594z" fill="#F2F2F2"/><path mask="url(#R)" d="M168.717 141.968h25.978l3.308 3.751h-32.594z" fill="#E6E6E6"/><path mask="url(#R)" d="M168.629 141.968h26.156V75.457h-26.156z" fill="#CCC"/><path d="M171.485 140.868a1.1 1.1 0 0 1-1.103 1.1h-.651a1.1 1.1 0 0 1-1.103-1.1V76.556a1.1 1.1 0 0 1 1.103-1.1h.651c.608 0 1.103.493 1.103 1.1v64.311zm4.659 0a1.1 1.1 0 0 1-1.103 1.1h-.651a1.1 1.1 0 0 1-1.103-1.1V76.556c0-.607.495-1.1 1.103-1.1h.651a1.1 1.1 0 0 1 1.103 1.1v64.311zm4.661 0a1.1 1.1 0 0 1-1.103 1.1h-.651a1.1 1.1 0 0 1-1.103-1.1V76.556a1.1 1.1 0 0 1 1.103-1.1h.651a1.1 1.1 0 0 1 1.103 1.1v64.311zm4.659 0a1.1 1.1 0 0 1-1.103 1.1h-.648a1.1 1.1 0 0 1-1.103-1.1V76.556a1.1 1.1 0 0 1 1.103-1.1h.648a1.1 1.1 0 0 1 1.103 1.1v64.311zm4.661 0a1.1 1.1 0 0 1-1.103 1.1h-.651a1.1 1.1 0 0 1-1.103-1.1V76.556c0-.607.495-1.1 1.103-1.1h.651a1.1 1.1 0 0 1 1.103 1.1v64.311zm4.661 0a1.1 1.1 0 0 1-1.103 1.1h-.651a1.1 1.1 0 0 1-1.103-1.1V76.556a1.1 1.1 0 0 1 1.103-1.1h.651c.608 0 1.103.493 1.103 1.1v64.311zM14.539 67.954h184.897v-4.018H14.539z" mask="url(#R)" fill="#E6E6E6"/><path mask="url(#R)" d="M202.375 59.354H11.596l2.942 4.582h184.897z" fill="#CCC"/><path mask="url(#R)" d="M11.597 59.354h190.779V49.086H11.597z" fill="#F2F2F2"/><g fill="#000"><text font-family="SFProText-Bold, SF Pro Text" font-size="17.73" font-weight="bold"><tspan x="100.5" y="35.5">$</tspan></text><use filter="url(#M)" xlink:href="#L"/></g><use xlink:href="#L" stroke="#000"/><mask id="S" fill="#fff"><use xlink:href="#N"/></mask><path mask="url(#S)" d="M11.597 154.647h190.779v-5.177H11.597z" fill="#CCC"/><path mask="url(#S)" d="M6.256 159.823h201.458v-5.176H6.256z" fill="#E6E6E6"/><path mask="url(#S)" d="M0 165h213.971v-5.177H0z" fill="#F2F2F2"/><path d="M123.782 149.47V98.106a1.1 1.1 0 0 0-1.103-1.1H91.292a1.1 1.1 0 0 0-1.103 1.1v51.364h33.592z" mask="url(#S)" fill="gray"/></g></g></svg>