<svg xmlns="http://www.w3.org/2000/svg" width="21" height="17" viewBox="0 0 21 17">
  <path fill="#FFF" d="M107.367847,4 L89.6320878,4 C89.0067957,4 88.5,4.50735819 88.5,5.13334424 L88.5,16.0888853 C88.5,16.7148386 89.0067957,17.2221968 89.6320878,17.2221968 L90.7954827,17.2221968 L92.8392669,21 L94.883051,17.2221968 L107.367912,17.2221968 C107.993204,17.2221968 108.5,16.7148386 108.5,16.0888853 L108.5,5.13334424 C108.499935,4.50735819 107.993139,4 107.367847,4 Z M107.745199,15.3332788 C107.745199,15.9592976 107.238403,16.4666558 106.613111,16.4666558 L94.3565822,16.4666558 L92.8648877,19.0528804 L91.3735854,16.4666558 L90.3867912,16.4666558 C89.7614991,16.4666558 89.2547034,15.9592976 89.2547034,15.3332788 L89.2547034,5.88888525 C89.2547034,5.26289921 89.7614991,4.75554102 90.3867912,4.75554102 L106.613143,4.75554102 C107.238435,4.75554102 107.745231,5.26289921 107.745231,5.88888525 L107.745231,15.3332788 L107.745199,15.3332788 Z" transform="translate(-88 -4)"/>
</svg>
