<svg xmlns="http://www.w3.org/2000/svg" width="21" height="16" viewBox="0 0 21 16">
  <path fill="#FFF" d="M14.8449795 14.9975164L11.987725 11.8522276C11.8659116 11.7181193 11.6883819 11.6409991 11.5015731 11.6409991L6.88393524 11.6409991 6.88393524 7.52727512 8.52140359 7.52727512C8.77231796 7.52727512 9.00009838 7.38875537 9.10445537 7.17279449 9.20876999 6.95687371 9.17050999 6.70313471 9.00641149 6.5235082L5.06626783 2.20994526C4.94449682 2.07663904 4.76747551 2 4.58125993 2 4.39508672 2 4.2180654 2.07659894 4.09625203 2.20994526L.156150738 6.5235082C-.00794776761 6.70317482-.0462501298 6.95687371.0581068592 7.17279449.162421478 7.38875537.390244268 7.52727512.641158636 7.52727512L2.27866936 7.52727512 2.27866936 13.8204995C2.27866936 15.0222607 3.31164678 16 4.5813023 16L14.35887 16C14.6094454 16 14.837014 15.8618412 14.9415828 15.6462813 15.0460669 15.4307616 15.0083154 15.1773033 14.8449795 14.9975164zM4.5813023 14.7862878C4.0186728 14.7862878 3.5609511 14.3530426 3.5609511 13.8204995L3.5609511 6.92041903C3.5609511 6.5852686 3.27389523 6.31356294 2.91981023 6.31356294L2.04300814 6.31356294 4.58121756 3.53470585 7.11946934 6.31356294 6.242752 6.31356294C5.888667 6.31356294 5.60161113 6.5852686 5.60161113 6.92041903L5.60161113 12.2478551C5.60161113 12.5830056 5.888667 12.8547112 6.242752 12.8547112L11.207272 12.8547112 12.9619778 14.7862878 4.5813023 14.7862878zM20.9418908 8.82716541C20.8375759 8.61120453 20.6097101 8.47268477 20.3588375 8.47268477L18.7213225 8.47268477 18.7213225 2.17950047C18.7213225.977739329 17.6883423 0 16.4186835 0L6.64113255 0C6.39055648 0 6.16298731.138158818 6.05846057.353718658 5.95393383.569238393 5.99164311.822696661 6.15502176 1.00248359L9.01228377 4.14777236C9.13409746 4.28188066 9.31162768 4.35900095 9.49843693 4.35900095L14.1161293 4.35900095 14.1161293 8.47272488 12.4786143 8.47272488C12.2276992 8.47272488 11.9998758 8.61124463 11.895561 8.82720551 11.7912461 9.04312629 11.8295062 9.29686529 11.9936051 9.4764918L15.9337591 13.7900547C16.0555304 13.923361 16.2325522 14 16.4187682 14 16.6049419 14 16.7820061 13.9234011 16.903735 13.7900547L20.843889 9.4764918C21.0079456 9.29682518 21.046248 9.04308619 20.9418908 8.82716541zM16.4187682 12.465254L13.8805098 9.68639696 14.7572718 9.68639696C15.1113577 9.68639696 15.3984144 9.4146913 15.3984144 9.07954086L15.3984144 3.75210475C15.3984144 3.41695432 15.1113577 3.14524866 14.7572718 3.14524866L9.79269644 3.14524866 8.03798607 1.21367208 16.4187259 1.21367208C16.9813568 1.21367208 17.4390797 1.64691728 17.4390797 2.17946037L17.4390797 9.07954086C17.4390797 9.4146913 17.7261364 9.68639696 18.0802223 9.68639696L18.9569843 9.68639696 16.4187682 12.465254z"/>
</svg>
