<svg xmlns="http://www.w3.org/2000/svg" width="22" height="21" viewBox="0 0 22 21">
  <g fill="#FFF">
    <path d="M21.7435926,5.6673754 L16.5620838,0.267163603 C16.3909407,0.0890052786 16.1882725,0 15.9545519,0 C15.8470262,0 15.7342542,0.0234457734 15.6174648,0.0701895528 C15.2664821,0.229630663 15.0909907,0.506202129 15.0909907,0.899953207 L15.0909907,3.60020687 L12.9318278,3.60020687 C11.9783232,3.60020687 11.0942495,3.65177772 10.2802683,3.75487017 C9.46619253,3.85791336 8.74872449,4.00080451 8.12800593,4.18378991 C7.5072401,4.36643051 6.94720856,4.59389392 6.4479113,4.86578608 C5.94870857,5.13757973 5.52366311,5.42592334 5.17272766,5.73066914 C4.82174494,6.03536568 4.51372523,6.38232373 4.24833767,6.7713955 C3.98280833,7.16041802 3.7715381,7.54239695 3.61395981,7.91743082 C3.4566651,8.29256319 3.33075371,8.70503148 3.23622564,9.15498346 C3.14160305,9.60503395 3.07869462,10.0268608 3.04721677,10.4205134 C3.01573892,10.8142645 3,11.2409677 3,11.7001305 C3,12.2253454 3.07883641,12.797107 3.23622564,13.416105 C3.39366214,14.0347089 3.56683756,14.5690361 3.75575191,15.0191359 C3.94461899,15.4688416 4.16737438,15.935442 4.42378177,16.4181491 C4.68014189,16.9009547 4.85776013,17.2218565 4.95673102,17.3813468 C5.05565464,17.5404431 5.15027724,17.6860926 5.24017343,17.8172609 C5.33011689,17.9391198 5.44704811,18 5.59091983,18 C5.62707682,18 5.68081603,17.9908384 5.75289368,17.9720227 C5.95976836,17.8688317 6.04966455,17.7097354 6.02267679,17.4939949 C5.6179076,14.3438878 5.95083545,12.1264397 7.0212713,10.8421433 C8.05597554,9.61399851 10.0260823,8.9998276 12.9316861,8.9998276 L15.0909907,8.9998276 L15.0909907,11.699835 C15.0909907,12.0939309 15.2663403,12.3703546 15.617323,12.5298449 C15.7341124,12.5766872 15.8466954,12.5999852 15.9544101,12.5999852 C16.1973472,12.5999852 16.3998736,12.5109799 16.561942,12.3329694 L21.7436399,6.93270833 C21.9144048,6.7544515 22,6.54368581 22,6.29991873 C21.9999527,6.05634867 21.9143576,5.84523819 21.7435926,5.6673754 Z"/>
    <path d="M18.7164151,13.2271524 C18.5450825,13.1548844 18.387882,13.1910893 18.2441044,13.3350581 C18.0102414,13.550964 17.7671146,13.7175726 17.5152912,13.834364 C17.3530334,13.9242618 17.2723062,14.0546183 17.2723062,14.2255753 L17.2723062,17.1136471 C17.2723062,17.7073882 17.0612245,18.2152964 16.6382576,18.6384114 C16.2154798,19.0612428 15.7069647,19.2726585 15.113327,19.2726585 L3.8861531,19.2726585 C3.29232629,19.2726585 2.7840476,19.0612428 2.3612225,18.6384114 C1.93835013,18.2152964 1.72703211,17.7074355 1.72703211,17.1136471 L1.72703211,5.88611657 C1.72703211,5.29232817 1.93835013,4.78423095 2.3612225,4.36139954 C2.78400034,3.93852086 3.29227903,3.72719968 3.8861531,3.72719968 L5.39751888,3.72719968 C5.45144728,3.72719968 5.52352511,3.70909724 5.61342153,3.67317595 C6.11725739,3.36723053 6.7152907,3.09725366 7.4081359,2.86338715 C7.64204619,2.81848553 7.7589777,2.67461131 7.7589777,2.43157541 C7.7589777,2.31464216 7.71629817,2.21363716 7.63079732,2.12799323 C7.54529647,2.04272743 7.44429298,2 7.32721967,2 L3.88634215,2 C2.81580911,2 1.90039702,2.38010398 1.1402004,3.14026468 C0.380098309,3.90037812 0,4.81580388 0,5.88635289 L0,17.1135053 C0,18.1841016 0.380098309,19.0994801 1.14024766,19.8596881 C1.90044428,20.619896 2.81585638,21 3.88638942,21 L15.1135633,21 C16.1839546,21 17.0994612,20.619896 17.8596578,19.8596881 C18.6199017,19.0994801 19,18.1841489 19,17.1135053 L19,13.6184582 C18.9999527,13.4385681 18.9054717,13.3082116 18.7164151,13.2271524 Z"/>
  </g>
</svg>
