<svg xmlns="http://www.w3.org/2000/svg" width="13" height="12" viewBox="0 0 13 12">
  <path fill="#D5D5D5" fill-rule="evenodd" d="M462.1875,123.071429 L460.15625,123.071429 L458.53125,121.5 L454.46875,121.5 L452.84375,123.071429 L450.8125,123.071429 C450.363594,123.071429 450,123.423036 450,123.857143 L450,131.714286 C450,132.148 450.363594,132.5 450.8125,132.5 L462.1875,132.5 C462.636,132.5 463,132.148 463,131.714286 L463,123.857143 C463,123.423036 462.636,123.071429 462.1875,123.071429 L462.1875,123.071429 Z M462.423782,131.942607 L450.575619,131.942607 L450.575619,123.855373 L452.964847,123.855373 L454.787641,122.05821 L458.21176,122.05821 L460.034554,123.855373 L462.423782,123.855373 L462.423782,131.942607 L462.423782,131.942607 Z M456.48845,125.090378 C455.168067,125.090378 454.097689,126.145704 454.097689,127.447521 C454.097689,128.749 455.168067,129.804664 456.48845,129.804664 C457.808833,129.804664 458.87921,128.749 458.87921,127.447521 C458.87921,126.145704 457.808833,125.090378 456.48845,125.090378 L456.48845,125.090378 Z M456.499701,129.246862 C455.494429,129.246862 454.676906,128.440835 454.676906,127.449699 C454.676906,126.458564 455.494429,125.652536 456.499701,125.652536 C457.504972,125.652536 458.322495,126.458564 458.322495,127.449699 C458.322495,128.440835 457.504972,129.246862 456.499701,129.246862 L456.499701,129.246862 Z" transform="translate(-450 -121)"/>
</svg>
