<svg xmlns="http://www.w3.org/2000/svg" width="33" height="28" viewBox="0 0 33 28">
  <path d="M31.1319473,0 L1.86794488,0 C0.836212954,0 0,0.835648785 0,1.86668463 L0,19.9111051 C0,20.9420871 0.836212954,21.7777359 1.86794488,21.7777359 L3.78754645,21.7777359 L7.15979033,28 L10.5320342,21.7777359 L31.1320551,21.7777359 C32.163787,21.7777359 33,20.9420871 33,19.9111051 L33,1.86668463 C32.9998922,0.835648785 32.1636792,0 31.1319473,0 Z M31.7545776,18.6665769 C31.7545776,19.6976666 30.9183646,20.5333154 29.8866327,20.5333154 L9.66336058,20.5333154 L7.2020647,24.7929796 L4.74141588,20.5333154 L3.11320551,20.5333154 C2.08147359,20.5333154 1.24526064,19.6976666 1.24526064,18.6665769 L1.24526064,3.11110512 C1.24526064,2.08006928 2.08147359,1.2444205 3.11320551,1.2444205 L29.8866866,1.2444205 C30.9184186,1.2444205 31.7546315,2.08006928 31.7546315,3.11110512 L31.7546315,18.6665769 L31.7545776,18.6665769 Z"/>
</svg>
