<svg xmlns="http://www.w3.org/2000/svg" width="10" height="11" viewBox="0 0 10 11">
  <path fill="#52B707" d="M528.197019,205.792218 C528.399093,205.484886 528.5,205.146578 528.5,204.777055 C528.5,204.349355 528.343483,203.977869 528.03019,203.662008 C527.716746,203.346473 527.345612,203.188739 526.916833,203.188739 L525.828236,203.188739 C526.026108,202.777727 526.125217,202.379082 526.125217,201.993003 C526.125217,201.507191 526.052862,201.12109 525.908671,200.83459 C525.76433,200.548002 525.554002,200.337348 525.277709,200.202343 C525.001352,200.067404 524.690139,200 524.343788,200 C524.133395,200 523.947915,200.076806 523.787109,200.230483 C523.609839,200.404839 523.482005,200.629105 523.403692,200.90315 C523.325337,201.177107 523.262427,201.439765 523.215049,201.690971 C523.167672,201.942155 523.094407,202.119653 522.995493,202.223442 C522.793397,202.443498 522.572823,202.709297 522.333661,203.020665 C521.917208,203.564523 521.63472,203.886339 521.486349,203.986027 L519.791681,203.986027 C519.573143,203.986027 519.386536,204.063989 519.231904,204.219564 C519.077338,204.375292 519,204.563173 519,204.78325 L519,208.769103 C519,208.989181 519.077251,209.176996 519.231904,209.332724 C519.386623,209.488451 519.573143,209.56637 519.791681,209.56637 L521.57285,209.56637 C521.663575,209.56637 521.948035,209.649392 522.426358,209.815482 C522.933558,209.994048 523.379906,210.129991 523.765403,210.22344 C524.150942,210.31689 524.541638,210.363636 524.937511,210.363636 L525.51256,210.363636 L525.735344,210.363636 C526.316698,210.363636 526.784666,210.196413 527.139314,209.862141 C527.493832,209.527869 527.669152,209.072204 527.665079,208.49508 C527.912473,208.175358 528.036148,207.805835 528.036148,207.386533 C528.036148,207.295243 528.030061,207.205982 528.017626,207.118705 C528.174251,206.840625 528.252758,206.541669 528.252758,206.221947 C528.252693,206.072458 528.234171,205.929142 528.197019,205.792218 Z M520.465861,208.650852 C520.387527,208.729686 520.294765,208.769256 520.187554,208.769256 C520.080321,208.769256 519.987538,208.729708 519.909182,208.650852 C519.83087,208.572039 519.791681,208.478589 519.791681,208.370546 C519.791681,208.262612 519.830783,208.169228 519.909182,208.090307 C519.987625,208.011407 520.080321,207.971968 520.187554,207.971968 C520.294765,207.971968 520.387527,208.011407 520.465861,208.090307 C520.544217,208.169206 520.583406,208.262591 520.583406,208.370546 C520.583406,208.478589 520.544217,208.572039 520.465861,208.650852 Z M527.575632,205.28804 C527.486964,205.478996 527.376634,205.576569 527.244705,205.58067 C527.306532,205.65128 527.358112,205.749987 527.399359,205.876506 C527.440562,206.003178 527.461034,206.118354 527.461034,206.222209 C527.461034,206.508556 527.351916,206.755661 527.133356,206.963196 C527.207661,207.095997 527.244727,207.239313 527.244727,207.392859 C527.244727,207.546493 527.208701,207.699079 527.136497,207.850596 C527.064424,208.001983 526.96642,208.111008 526.842766,208.177408 C526.863368,208.301942 526.873593,208.418231 526.873593,208.526165 C526.873593,209.219511 526.47772,209.566195 525.685952,209.566195 L524.937792,209.566195 C524.397513,209.566195 523.692528,209.414743 522.822426,209.111577 C522.801781,209.103288 522.742077,209.081409 522.643055,209.04618 C522.544032,209.010951 522.470876,208.984971 522.423433,208.968414 C522.375991,208.951683 522.303896,208.927819 522.206931,208.896757 C522.109989,208.865541 522.031741,208.842681 521.971907,208.828218 C521.91216,208.813734 521.844073,208.800231 521.767862,208.787754 C521.691607,208.775298 521.62664,208.769103 521.573045,208.769103 L521.37513,208.769103 L521.37513,204.783403 L521.573045,204.783403 C521.639009,204.783403 521.712187,204.764665 521.792601,204.727386 C521.872993,204.689997 521.955508,204.633958 522.040016,204.559202 C522.124568,204.484447 522.203877,204.410761 522.278138,204.338056 C522.352378,204.265416 522.434828,204.174083 522.525575,204.064098 C522.616279,203.954027 522.687399,203.865834 522.738979,203.79939 C522.790494,203.732967 522.855419,203.647807 522.933775,203.544018 C523.012087,203.44025 523.059551,203.377951 523.076037,203.357162 C523.302785,203.074872 523.461533,202.885966 523.552237,202.790422 C523.721296,202.611943 523.843953,202.384623 523.920229,202.108506 C523.996592,201.832345 524.059459,201.571803 524.108764,201.32688 C524.158199,201.081935 524.236642,200.905419 524.343983,200.797463 C524.739726,200.797463 525.003692,200.894992 525.135599,201.090158 C525.267484,201.285281 525.333471,201.586331 525.333471,201.993221 C525.333471,202.238166 525.234426,202.571348 525.036468,202.992744 C524.838597,203.414183 524.739726,203.745314 524.739726,203.986115 L526.916768,203.986115 C527.123153,203.986115 527.306553,204.065996 527.467294,204.225934 C527.628165,204.385762 527.708687,204.571527 527.708687,204.783338 C527.708622,204.928638 527.664278,205.096821 527.575632,205.28804 Z" transform="translate(-519 -200)"/>
</svg>
