<svg xmlns="http://www.w3.org/2000/svg" width="30" height="23" viewBox="0 0 30 23">
  <path d="M20.7829713 21.5678806L16.782815 17.0746109C16.6122763 16.8830276 16.3637346 16.7728558 16.1022024 16.7728558L9.63750933 16.7728558 9.63750933 10.8961073 11.929965 10.8961073C12.2812451 10.8961073 12.6001377 10.698222 12.7462375 10.3897064 12.892278 10.0812482 12.838714 9.71876388 12.6089761 9.46215457L7.09277496 3.2999218C6.92229555 3.10948435 6.67446571 3 6.4137639 3 6.15312141 3 5.90529157 3.10942705 5.73475284 3.2999218L.218611033 9.46215457C-.0111268747 9.71882117-.0647501817 10.0812482.0813496029 10.3897064.22739007 10.698222.546341975 10.8961073.89762209 10.8961073L3.1901371 10.8961073 3.1901371 19.8864279C3.1901371 21.6032295 4.6363055 23 6.41382322 23L20.102418 23C20.4532236 23 20.7718196 22.8026303 20.918216 22.4946876 21.0644937 22.1868023 21.0116415 21.8247191 20.7829713 21.5678806zM6.41382322 21.2661255C5.62614192 21.2661255 4.98533153 20.6472037 4.98533153 19.8864279L4.98533153 10.02917C4.98533153 9.55038371 4.58345332 9.16223277 4.08773432 9.16223277L2.8602114 9.16223277 6.41370458 5.19243693 9.96725708 9.16223277 8.7398528 9.16223277C8.2441338 9.16223277 7.84225558 9.55038371 7.84225558 10.02917L7.84225558 17.6397931C7.84225558 18.1185794 8.2441338 18.5067303 8.7398528 18.5067303L15.6901808 18.5067303 18.1467689 21.2661255 6.41382322 21.2661255zM29.9186471 12.6102363C29.7726062 12.3017208 29.4535942 12.1038354 29.1023725 12.1038354L26.8098514 12.1038354 26.8098514 3.11357211C26.8098514 1.39677047 25.3636793 0 23.5861569 0L9.89758556 0C9.54677907 0 9.22818224.19736974 9.0818448.505312368 8.93550736.813197705 8.98830036 1.17528094 9.21703046 1.43211942L13.2171973 5.92538908C13.3877365 6.11697237 13.6362788 6.22714421 13.8978117 6.22714421L20.362581 6.22714421 20.362581 12.1038927 18.07006 12.1038927C17.7187789 12.1038927 17.3998262 12.301778 17.2537853 12.6102936 17.1077445 12.9187518 17.1613086 13.2812361 17.3910471 13.5378454L22.9072627 19.7000782C23.0777425 19.8905157 23.325573 20 23.5862755 20 23.8469187 20 24.0948085 19.8905729 24.265229 19.7000782L29.7814446 13.5378454C30.0111238 13.2811788 30.0647472 12.9186946 29.9186471 12.6102363zM23.5862755 17.8075058L20.0327137 13.8377099 21.2601805 13.8377099C21.7559008 13.8377099 22.1577801 13.449559 22.1577801 12.9707727L22.1577801 5.36014965C22.1577801 4.88136331 21.7559008 4.49321237 21.2601805 4.49321237L14.309775 4.49321237 11.8531805 1.73381726 23.5862162 1.73381726C24.3738996 1.73381726 25.0147116 2.35273897 25.0147116 3.11351481L25.0147116 12.9707727C25.0147116 13.449559 25.4165909 13.8377099 25.9123112 13.8377099L27.139778 13.8377099 23.5862755 17.8075058z"/>
</svg>
