<svg xmlns="http://www.w3.org/2000/svg" width="25" height="24" viewBox="0 0 25 24">
  <g transform="translate(0 .5)">
    <path d="M24.7166024,6.29708378 L18.9896716,0.296848448 C18.8005134,0.098894754 18.5765118,0 18.3181889,0 C18.1993448,0 18.0747021,0.0260508594 17.945619,0.077988392 C17.5576907,0.255145182 17.3637266,0.562446811 17.3637266,0.999948008 L17.3637266,4.00022986 L14.9772834,4.00022986 C13.9234099,4.00022986 12.9462757,4.05753081 12.0466123,4.17207797 C11.1468444,4.2865704 10.3538534,4.44533835 9.66779603,4.64865545 C8.98168643,4.85158946 8.3627042,5.10432658 7.81084933,5.40642898 C7.25909895,5.70842193 6.78931186,6.02880371 6.40143583,6.36741016 C6.01350756,6.70596187 5.67306472,7.09147081 5.37974164,7.52377278 C5.08626184,7.95602002 4.85275263,8.38044106 4.67858715,8.79714535 C4.50473511,9.2139591 4.36556989,9.6722572 4.2610915,10.1722038 C4.15650863,10.6722599 4.08697826,11.1409565 4.05218696,11.5783482 C4.01739565,12.0158494 4,12.4899641 4,13.000145 C4,13.5837171 4.08713498,14.2190078 4.2610915,14.9067833 C4.43510026,15.594121 4.62650468,16.1878179 4.83530474,16.6879288 C5.04405257,17.1876018 5.2902559,17.7060467 5.57365353,18.2423879 C5.85699893,18.7788386 6.05331383,19.1353961 6.16270271,19.3126076 C6.27203934,19.4893813 6.37662221,19.651214 6.47598116,19.7969565 C6.57539235,19.9323553 6.70463212,20 6.86364824,20 C6.90361122,20 6.96300719,19.9898205 7.04267196,19.9689141 C7.27132292,19.8542575 7.37068187,19.6774838 7.34085329,19.4377721 C6.89347682,15.9376531 7.26144971,13.4738219 8.44456302,12.0468259 C9.58818349,10.6822206 11.7656699,9.99980845 14.9771267,9.99980845 L17.3637266,9.99980845 L17.3637266,12.9998167 C17.3637266,13.437701 17.557534,13.7448384 17.9454623,13.9220499 C18.0745453,13.9740969 18.1989791,13.9999836 18.3180322,13.9999836 C18.5865417,13.9999836 18.8103866,13.9010888 18.9895148,13.7032993 L24.7166546,7.70300926 C24.9053948,7.50494611 25,7.27076202 25,6.9999097 C24.9999478,6.7292763 24.9053426,6.4947091 24.7166024,6.29708378 Z"/>
    <path d="M20.686564,14.4089579 C20.4971965,14.3290828 20.3234485,14.3690987 20.1645365,14.5282221 C19.9060563,14.7668549 19.6373372,14.9510013 19.3590061,15.0800866 C19.1796685,15.1794472 19.0904437,15.3235255 19.0904437,15.5124779 L19.0904437,18.7045573 C19.0904437,19.3607975 18.8571429,19.9221697 18.3896531,20.3898231 C17.9223724,20.8571631 17.3603295,21.0908331 16.7042035,21.0908331 L4.29522184,21.0908331 C3.63888695,21.0908331 3.07710524,20.8571631 2.60977224,20.3898231 C2.14238699,19.9221697 1.90882496,19.3608498 1.90882496,18.7045573 L1.90882496,6.29518147 C1.90882496,5.63888903 2.14238699,5.07730789 2.60977224,4.60996791 C3.07705301,4.14257569 3.63883471,3.90901017 4.29522184,3.90901017 L5.96567876,3.90901017 C6.02528383,3.90901017 6.10494881,3.88900221 6.204308,3.84929973 C6.76117922,3.51114953 7.4221634,3.21275405 8.18793968,2.95427001 C8.4464721,2.90464191 8.5757122,2.74562303 8.5757122,2.4770044 C8.5757122,2.34776238 8.52854008,2.23612528 8.43403914,2.14146621 C8.3395382,2.04722506 8.22790277,2 8.09850596,2 L4.2954308,2 C3.11221007,2 2.10043881,2.42011493 1.26022149,3.26029254 C0.420108658,4.10041792 0,5.11220428 0,6.29544267 L0,18.7044006 C0,19.8876912 0.420108658,20.8994254 1.26027373,21.7396552 C2.10049105,22.5798851 3.11226231,23 4.29548304,23 L16.7044647,23 C17.8875287,23 18.8994045,22.5798851 19.7396218,21.7396552 C20.5798913,20.8994254 21,19.8877435 21,18.7044006 L21,14.8414538 C20.9999478,14.6426279 20.8955213,14.4985497 20.686564,14.4089579 Z"/>
  </g>
</svg>
